<svg width="39" height="39" viewBox="0 0 39 39" fill="none" xmlns="http://www.w3.org/2000/svg">
    <path d="M14.2138 4.57278C14.6109 4.56935 15.0079 4.56591 15.4171 4.56237C16.2539 4.55777 17.0908 4.55734 17.9277 4.56084C19.2003 4.56337 20.4714 4.54454 21.7438 4.5242C22.5603 4.52238 23.3768 4.52182 24.1932 4.52264C24.5695 4.51525 24.9457 4.50786 25.3333 4.50024C28.1501 4.53933 30.0102 5.30949 32.0947 7.22122C33.9423 9.27905 33.9459 11.5578 33.9407 14.2137C33.9442 14.6108 33.9476 15.0079 33.9512 15.417C33.9557 16.2539 33.9562 17.0907 33.9527 17.9276C33.9501 19.2002 33.969 20.4713 33.9893 21.7438C33.9911 22.5602 33.9917 23.3767 33.9909 24.1932C33.9983 24.5694 34.0057 24.9456 34.0133 25.3332C33.9742 28.1501 33.204 30.0102 31.2923 32.0946C29.2345 33.9422 26.9557 33.9458 24.2998 33.9407C23.9027 33.9441 23.5056 33.9475 23.0965 33.9511C22.2597 33.9557 21.4228 33.9561 20.5859 33.9526C19.3133 33.9501 18.0422 33.9689 16.7698 33.9893C15.9533 33.9911 15.1368 33.9916 14.3204 33.9908C13.9441 33.9982 13.5679 34.0056 13.1803 34.0132C10.3634 33.9741 8.50334 33.204 6.41892 31.2922C4.57131 29.2344 4.56771 26.9557 4.57285 24.2997C4.56941 23.9027 4.56597 23.5056 4.56243 23.0965C4.55784 22.2596 4.5574 21.4227 4.5609 20.5858C4.56343 19.3132 4.5446 18.0421 4.52427 16.7697C4.52244 15.9532 4.52188 15.1368 4.5227 14.3203C4.51531 13.9441 4.50792 13.5678 4.50031 13.1802C4.5394 10.3634 5.30955 8.50328 7.22128 6.41886C9.27911 4.57124 11.5579 4.56764 14.2138 4.57278ZM28.0828 8.42477C27.9504 9.08673 27.818 9.74868 27.6816 10.4307C28.6746 10.6293 28.6746 10.6293 29.6876 10.8319C29.82 10.1699 29.9523 9.50797 30.0887 8.82596C29.4268 8.69357 28.7648 8.56118 28.0828 8.42477ZM12.4367 15.0694C11.2677 17.1728 11.2507 19.3278 11.6343 21.6638C12.4189 23.8484 13.8781 25.4148 15.8984 26.5376C18.0944 27.3262 20.4192 27.3262 22.6151 26.5376C24.6355 25.4148 26.0947 23.8484 26.8793 21.6638C27.2628 19.3278 27.2459 17.1728 26.0769 15.0694C24.5904 13.086 22.9747 11.8495 20.4995 11.4431C16.9501 11.273 14.5796 12.2101 12.4367 15.0694Z" fill="#BBBBBB"/>
    <path d="M21.2627 14.4427C22.5168 15.1135 23.4262 15.9614 24.071 17.2509C24.2777 18.8924 24.4496 20.5551 23.651 22.0479C22.689 23.2109 21.906 23.9901 20.3914 24.1808C17.2554 24.3043 17.2554 24.3043 15.8217 23.1183C14.3199 21.501 14.286 20.4224 14.2984 18.2743C14.5307 16.6256 15.2446 15.9617 16.4485 14.8438C17.9428 14.0967 19.6359 14.2135 21.2627 14.4427Z" fill="#BBBBBB"/>
</svg>
