<svg version="1.1" id="Layer_1" xmlns="http://www.w3.org/2000/svg" xmlns:xlink="http://www.w3.org/1999/xlink" x="0px" y="0px"
	 width="100%" viewBox="0 0 391 411" enable-background="new 0 0 391 411" xml:space="preserve">
<path fill="#0254D4" opacity="1.000000" stroke="none" 
	d="
M251.000000,412.000000 
	C167.333328,412.000000 84.166664,412.000000 1.000000,412.000000 
	C1.000000,275.000000 1.000000,138.000000 1.000000,1.000000 
	C131.333328,1.000000 261.666656,1.000000 392.000000,1.000000 
	C392.000000,138.000000 392.000000,275.000000 392.000000,412.000000 
	C345.166656,412.000000 298.333344,412.000000 251.000000,412.000000 
M228.026367,282.237305 
	C228.026367,282.237305 228.259720,281.985321 228.774887,282.040070 
	C229.519760,281.787872 230.264633,281.535675 231.582245,282.160400 
	C235.554459,294.885590 239.441986,307.638306 243.557953,320.316833 
	C244.598358,323.521606 247.178955,325.379181 250.724823,325.370483 
	C263.207642,325.339905 275.694061,325.432312 288.171631,325.148529 
	C294.427063,325.006226 295.330719,322.793610 293.179657,316.728394 
	C286.652557,298.324310 280.352325,279.839874 273.928497,261.398987 
	C270.427429,251.348419 266.855042,241.322693 264.123291,231.181442 
	C270.813843,228.593521 274.259766,222.840775 275.647430,216.627441 
	C278.096588,205.661209 279.843536,194.466125 280.880951,183.273819 
	C282.376831,167.135651 281.397552,150.984970 275.645599,135.674469 
	C269.521759,119.374092 258.364075,107.266968 242.452942,99.829033 
	C232.680527,95.260757 222.614624,91.844978 210.891434,92.501877 
	C193.020981,83.844910 180.161499,87.952065 171.108902,104.984093 
	C165.080978,108.813423 158.979233,112.534973 153.090668,116.567787 
	C151.982712,117.326569 151.724976,119.326775 151.015320,120.884949 
	C157.142227,118.443512 162.714386,116.223129 168.273468,114.780495 
	C165.221542,122.574654 161.925995,130.283966 159.174927,138.182907 
	C155.066742,149.978470 151.373611,161.918076 147.445496,173.777054 
	C143.370544,186.079376 139.280746,198.377365 135.089325,210.640289 
	C132.929398,216.959625 130.534546,223.198639 128.087234,228.477615 
	C128.134567,217.018280 127.720421,205.530029 128.435730,194.112549 
	C128.763550,188.880173 129.729599,183.975800 128.116959,178.667694 
	C125.543274,170.196213 116.391243,166.860245 109.985062,172.871124 
	C107.571121,175.136093 105.171631,178.112000 104.310471,181.195312 
	C102.361427,188.173706 100.889267,195.366104 100.080536,202.567749 
	C97.065125,229.419647 97.402374,255.809006 112.220673,280.335236 
	C107.957130,293.110718 103.679008,305.881317 99.438255,318.664368 
	C98.019470,322.941071 99.559380,325.274811 104.522484,325.340759 
	C117.299469,325.510498 130.087265,325.559814 142.854218,325.146545 
	C145.133530,325.072784 148.416122,323.055908 149.353210,321.054810 
	C151.559723,316.342865 152.629807,311.098724 154.964569,306.031769 
	C156.447693,306.150238 158.038834,305.960785 159.396423,306.437073 
	C168.337128,309.573700 177.403320,307.811707 185.737427,305.322052 
	C200.530151,300.903015 213.763168,292.860870 226.730713,283.791748 
	C227.048645,283.284576 227.366592,282.777435 228.026367,282.237305 
z"/>
<path fill="#FCFCFD" opacity="1.000000" stroke="none" 
	d="
M263.314819,231.285767 
	C266.855042,241.322693 270.427429,251.348419 273.928497,261.398987 
	C280.352325,279.839874 286.652557,298.324310 293.179657,316.728394 
	C295.330719,322.793610 294.427063,325.006226 288.171631,325.148529 
	C275.694061,325.432312 263.207642,325.339905 250.724823,325.370483 
	C247.178955,325.379181 244.598358,323.521606 243.557953,320.316833 
	C239.441986,307.638306 235.554459,294.885590 231.527344,281.532654 
	C233.677444,278.378906 235.882446,275.852875 238.760315,272.556030 
	C235.191025,273.816345 232.440781,274.787445 229.447098,275.355103 
	C227.236008,269.600800 225.268356,264.250000 223.279266,258.443542 
	C218.171555,257.670990 213.085266,257.354126 207.538864,256.941742 
	C196.497177,257.017914 185.911331,257.075623 175.338196,257.471802 
	C173.545105,257.539001 170.737045,258.646088 170.220001,259.979340 
	C167.325989,267.441711 164.991409,275.121033 162.092682,282.694580 
	C160.182495,282.080353 158.502213,281.729218 157.129822,280.880310 
	C138.046188,269.076233 130.480438,250.765228 128.245850,229.473938 
	C130.534546,223.198639 132.929398,216.959625 135.089325,210.640289 
	C139.280746,198.377365 143.370544,186.079376 147.445496,173.777054 
	C151.373611,161.918076 155.066742,149.978470 159.174927,138.182907 
	C161.925995,130.283966 165.221542,122.574654 168.583801,114.238052 
	C169.872421,110.789711 170.850723,107.883804 171.829010,104.977898 
	C180.161499,87.952065 193.020981,83.844910 211.304443,92.955811 
	C214.831924,98.770554 218.137375,104.032013 220.995987,109.525955 
	C223.013321,113.403030 224.424576,117.595451 226.010986,122.068474 
	C226.040085,123.629967 225.951416,124.844818 226.320969,125.899025 
	C232.508575,143.550491 238.697342,161.202026 245.021774,178.804718 
	C246.783768,183.708847 248.984589,188.455322 250.961273,193.663010 
	C250.454849,200.022232 250.220001,206.025452 249.435394,211.955963 
	C247.851639,223.927002 252.804184,231.003891 263.314819,231.285767 
M184.057632,196.427429 
	C182.402832,201.597641 180.540665,206.712601 179.144257,211.951691 
	C177.280136,218.945541 178.683975,220.660294 185.826599,220.717392 
	C192.823868,220.773346 199.822144,220.764023 206.819580,220.720657 
	C214.302536,220.674286 216.048691,218.003036 213.694885,210.813354 
	C211.180481,203.133179 208.834900,195.396515 206.500366,187.658951 
	C203.295990,177.038437 200.171371,166.393860 197.012573,155.759598 
	C196.605438,155.770294 196.198303,155.781006 195.791153,155.791718 
	C191.956543,169.077271 188.121933,182.362839 184.057632,196.427429 
z"/>
<path fill="#F96609" opacity="1.000000" stroke="none" 
	d="
M128.166534,228.975769 
	C130.480438,250.765228 138.046188,269.076233 157.129822,280.880310 
	C158.502213,281.729218 160.182495,282.080353 162.191055,283.039673 
	C170.845840,284.911194 179.038666,287.649109 187.210144,287.586761 
	C197.474197,287.508514 207.720734,285.136902 218.313660,283.786499 
	C220.319000,282.823181 221.985504,281.828339 223.934418,280.710449 
	C224.421829,280.574646 224.626816,280.561890 225.197784,280.646179 
	C226.462433,281.157227 227.361084,281.571259 228.259720,281.985321 
	C228.259720,281.985321 228.026367,282.237305 227.623505,282.233002 
	C226.898926,282.737305 226.577225,283.245880 226.255524,283.754456 
	C213.763168,292.860870 200.530151,300.903015 185.737427,305.322052 
	C177.403320,307.811707 168.337128,309.573700 159.396423,306.437073 
	C158.038834,305.960785 156.447693,306.150238 154.212402,305.902283 
	C150.966187,304.933350 148.461868,304.123108 145.979843,303.249542 
	C132.669724,298.564850 121.651321,290.656647 112.848358,279.642700 
	C97.402374,255.809006 97.065125,229.419647 100.080536,202.567749 
	C100.889267,195.366104 102.361427,188.173706 104.310471,181.195312 
	C105.171631,178.112000 107.571121,175.136093 109.985062,172.871124 
	C116.391243,166.860245 125.543274,170.196213 128.116959,178.667694 
	C129.729599,183.975800 128.763550,188.880173 128.435730,194.112549 
	C127.720421,205.530029 128.134567,217.018280 128.166534,228.975769 
z"/>
<path fill="#FA6608" opacity="1.000000" stroke="none" 
	d="
M226.106430,121.647079 
	C224.424576,117.595451 223.013321,113.403030 220.995987,109.525955 
	C218.137375,104.032013 214.831924,98.770554 211.644592,93.093292 
	C222.614624,91.844978 232.680527,95.260757 242.452942,99.829033 
	C258.364075,107.266968 269.521759,119.374092 275.645599,135.674469 
	C281.397552,150.984970 282.376831,167.135651 280.880951,183.273819 
	C279.843536,194.466125 278.096588,205.661209 275.647430,216.627441 
	C274.259766,222.840775 270.813843,228.593521 263.719055,231.233612 
	C252.804184,231.003891 247.851639,223.927002 249.435394,211.955963 
	C250.220001,206.025452 250.454849,200.022232 251.330383,193.402573 
	C251.887131,186.777603 252.344284,180.792816 252.158173,174.828125 
	C251.719040,160.753693 248.561752,147.324860 240.860489,135.355606 
	C237.166550,129.614548 233.250626,123.812317 226.106430,121.647079 
z"/>
<path fill="#F9F9FB" opacity="1.000000" stroke="none" 
	d="
M112.534515,279.988953 
	C121.651321,290.656647 132.669724,298.564850 145.979843,303.249542 
	C148.461868,304.123108 150.966187,304.933350 153.809952,305.921356 
	C152.629807,311.098724 151.559723,316.342865 149.353210,321.054810 
	C148.416122,323.055908 145.133530,325.072784 142.854218,325.146545 
	C130.087265,325.559814 117.299469,325.510498 104.522484,325.340759 
	C99.559380,325.274811 98.019470,322.941071 99.438255,318.664368 
	C103.679008,305.881317 107.957130,293.110718 112.534515,279.988953 
z"/>
<path fill="#E66A21" opacity="1.000000" stroke="none" 
	d="
M171.468964,104.980995 
	C170.850723,107.883804 169.872421,110.789711 168.590332,113.849182 
	C162.714386,116.223129 157.142227,118.443512 151.015320,120.884949 
	C151.724976,119.326775 151.982712,117.326569 153.090668,116.567787 
	C158.979233,112.534973 165.080978,108.813423 171.468964,104.980995 
z"/>
<path fill="#E58351" opacity="1.000000" stroke="none" 
	d="
M228.517303,282.012695 
	C227.361084,281.571259 226.462433,281.157227 225.328339,280.356934 
	C226.625458,278.566650 228.158005,277.162628 229.690552,275.758575 
	C232.440781,274.787445 235.191025,273.816345 238.760315,272.556030 
	C235.882446,275.852875 233.677444,278.378906 231.240967,281.094208 
	C230.264633,281.535675 229.519760,281.787872 228.517303,282.012695 
z"/>
<path fill="#E58351" opacity="1.000000" stroke="none" 
	d="
M226.493118,283.773102 
	C226.577225,283.245880 226.898926,282.737305 227.452576,282.249481 
	C227.366592,282.777435 227.048645,283.284576 226.493118,283.773102 
z"/>
<path fill="#0856D2" opacity="1.000000" stroke="none" 
	d="
M229.447098,275.355103 
	C228.158005,277.162628 226.625458,278.566650 224.962341,280.259918 
	C224.626816,280.561890 224.421829,280.574646 223.607819,280.764801 
	C221.324158,281.879822 219.649490,282.817383 217.974838,283.754974 
	C207.720734,285.136902 197.474197,287.508514 187.210144,287.586761 
	C179.038666,287.649109 170.845840,284.911194 162.564117,283.071350 
	C164.991409,275.121033 167.325989,267.441711 170.220001,259.979340 
	C170.737045,258.646088 173.545105,257.539001 175.338196,257.471802 
	C185.911331,257.075623 196.497177,257.017914 207.708252,257.290070 
	C213.325409,258.122345 218.313065,258.510773 223.300720,258.899200 
	C225.268356,264.250000 227.236008,269.600800 229.447098,275.355103 
z"/>
<path fill="#0B59D4" opacity="1.000000" stroke="none" 
	d="
M184.172485,196.037903 
	C188.121933,182.362839 191.956543,169.077271 195.791153,155.791718 
	C196.198303,155.781006 196.605438,155.770294 197.012573,155.759598 
	C200.171371,166.393860 203.295990,177.038437 206.500366,187.658951 
	C208.834900,195.396515 211.180481,203.133179 213.694885,210.813354 
	C216.048691,218.003036 214.302536,220.674286 206.819580,220.720657 
	C199.822144,220.764023 192.823868,220.773346 185.826599,220.717392 
	C178.683975,220.660294 177.280136,218.945541 179.144257,211.951691 
	C180.540665,206.712601 182.402832,201.597641 184.172485,196.037903 
z"/>
<path fill="#1158CD" opacity="1.000000" stroke="none" 
	d="
M226.010986,122.068474 
	C233.250626,123.812317 237.166550,129.614548 240.860489,135.355606 
	C248.561752,147.324860 251.719040,160.753693 252.158173,174.828125 
	C252.344284,180.792816 251.887131,186.777603 251.353210,193.013687 
	C248.984589,188.455322 246.783768,183.708847 245.021774,178.804718 
	C238.697342,161.202026 232.508575,143.550491 226.320969,125.899025 
	C225.951416,124.844818 226.040085,123.629967 226.010986,122.068474 
z"/>
<path fill="#0046CB" opacity="1.000000" stroke="none" 
	d="
M223.279266,258.443542 
	C218.313065,258.510773 213.325409,258.122345 208.168365,257.385590 
	C213.085266,257.354126 218.171555,257.670990 223.279266,258.443542 
z"/>
<path fill="#E58351" opacity="1.000000" stroke="none" 
	d="
M218.313660,283.786499 
	C219.649490,282.817383 221.324158,281.879822 223.325409,280.887878 
	C221.985504,281.828339 220.319000,282.823181 218.313660,283.786499 
z"/>
</svg>