<svg version="1.1" id="Layer_1" xmlns="http://www.w3.org/2000/svg" xmlns:xlink="http://www.w3.org/1999/xlink" x="0px" y="0px"
	 width="100%" viewBox="0 0 276 504" enable-background="new 0 0 276 504" xml:space="preserve">
<path fill="#FEFEFE" opacity="1.000000" stroke="none" 
	d="
M277.000000,89.000000 
	C277.000000,210.687561 277.000000,332.375122 276.632843,454.536224 
	C275.529358,455.319794 274.616577,455.448456 274.083282,455.967194 
	C266.832092,463.021301 264.564941,472.790283 269.930023,481.728821 
	C271.623657,484.550507 274.606934,486.598114 277.000000,489.000000 
	C277.000000,491.041656 277.000000,493.083344 276.621765,495.553162 
	C275.761383,495.874420 275.024750,495.931732 274.834381,495.636627 
	C270.168518,488.403625 265.708191,481.031403 260.824707,473.950562 
	C259.780334,472.436279 257.269592,471.310425 255.376251,471.219849 
	C254.078461,471.157715 252.679031,473.196564 251.326950,474.298584 
	C249.816559,475.529572 248.346680,477.777161 246.793152,477.835907 
	C233.972046,478.320587 225.781250,495.095825 232.000000,505.000000 
	C228.638718,505.000000 225.277420,505.000000 221.369354,504.605133 
	C216.439316,502.702820 212.060318,501.264313 208.000000,505.000000 
	C139.029312,505.000000 70.058617,505.000000 1.043961,505.000000 
	C1.043961,337.100677 1.043961,169.201340 1.043961,1.150996 
	C92.999817,1.150996 184.999878,1.150996 277.000000,1.150996 
	C277.000000,15.074605 277.000000,29.068644 276.539734,43.530956 
	C274.916870,43.999073 273.750671,44.059372 272.592255,43.989681 
	C255.364517,42.953251 247.348755,62.097038 253.899506,75.943367 
	C258.448212,85.557983 266.395325,89.785248 277.000000,89.000000 
M26.788273,430.096008 
	C28.218504,428.747101 29.648735,427.398193 31.786007,425.952759 
	C44.878620,416.118835 57.870312,406.146881 71.086380,396.481781 
	C93.524345,380.072662 116.144989,363.913574 138.609116,347.540039 
	C153.388809,336.767456 168.014954,325.784424 182.733871,314.928162 
	C208.264923,296.097137 233.828720,277.310455 259.344910,258.459351 
	C264.682129,254.516281 264.532654,253.879013 258.985504,249.773529 
	C240.681305,236.226501 222.445343,222.587219 204.133865,209.050079 
	C191.604584,199.787521 178.960800,190.679855 166.427643,181.422516 
	C154.475876,172.594574 142.590912,163.675964 130.695084,154.772522 
	C116.811539,144.381393 102.982079,133.917664 89.065163,123.571510 
	C77.757759,115.165329 66.391479,106.837120 54.984268,98.566803 
	C46.358444,92.313004 37.626831,86.205109 28.741049,79.380325 
	C27.158390,78.259476 25.575729,77.138626 23.545782,75.700989 
	C23.183018,75.689331 22.820253,75.677673 22.295801,74.963982 
	C20.375378,73.250160 18.454952,71.536331 16.065598,69.404030 
	C14.025892,74.661766 17.494204,77.051872 20.357914,80.433212 
	C28.285583,92.759995 36.254032,105.060783 44.132175,117.419136 
	C59.116768,140.925278 73.964684,164.518967 89.029556,187.973404 
	C102.406387,208.799744 116.097130,229.425385 129.329956,250.341675 
	C130.496582,252.185715 130.160828,255.991608 129.036026,258.088898 
	C125.302002,265.051331 121.005943,271.725159 116.713913,278.373138 
	C102.493988,300.398712 88.128456,322.330353 73.918053,344.362030 
	C55.922710,372.261780 38.024685,400.224335 19.443855,428.367676 
	C17.529087,431.207733 15.614318,434.047791 13.499210,437.184998 
	C19.465506,437.476776 22.671328,433.582458 26.019455,429.994843 
	C26.019455,429.994843 26.086754,430.108521 26.788273,430.096008 
M189.296753,140.114349 
	C187.868164,141.074295 186.439575,142.034225 185.006729,142.088577 
	C184.340622,137.746246 183.587677,133.415024 183.029770,129.058838 
	C182.286362,123.254181 181.546799,117.442177 181.070923,111.611664 
	C180.270905,101.810326 179.878723,91.971695 178.883575,82.192650 
	C178.572861,79.139313 177.291656,75.979126 175.712143,73.306763 
	C173.075394,68.845634 168.370850,70.999901 164.817932,71.435974 
	C163.300613,71.622208 161.132462,75.702301 161.187958,77.965729 
	C161.477737,89.783905 162.387024,101.586884 163.082397,113.395065 
	C163.092148,113.560905 163.122574,113.725525 163.142868,113.890778 
	C164.763275,127.084526 166.327286,140.285614 168.040131,153.467346 
	C168.521286,157.170227 169.420990,160.820190 170.183212,164.483078 
	C170.272003,164.909790 170.643845,165.342331 170.996277,165.639618 
	C175.834213,169.720703 182.556992,168.528564 186.642670,162.916367 
	C187.091553,162.273514 187.540421,161.630646 187.991074,160.191864 
	C187.991806,159.130600 187.992538,158.069336 188.000366,156.254929 
	C188.664871,155.171265 189.329376,154.087585 189.996750,153.861633 
	C190.184128,159.814590 190.602066,160.155350 195.699646,157.342819 
	C198.501312,155.797012 201.067764,153.804565 203.661194,151.905548 
	C211.233490,146.360794 218.931046,140.968079 226.255768,135.110931 
	C231.086426,131.248108 231.374069,128.367844 227.441330,123.198502 
	C224.985580,119.970558 221.547058,117.500420 217.068436,120.775475 
	C214.870087,122.383041 212.326401,123.517021 210.120224,125.115448 
	C203.363739,130.010681 196.694992,135.026993 189.296753,140.114349 
M100.479576,401.410797 
	C101.948631,401.135529 103.582817,401.185516 104.861847,400.536011 
	C122.678017,391.489288 140.484497,382.421722 158.212463,373.203674 
	C172.104980,365.979950 185.820984,358.415955 199.732834,351.230469 
	C216.000244,342.828400 232.415451,334.712616 248.695709,326.334991 
	C249.988464,325.669739 251.256256,324.070740 251.626175,322.666138 
	C252.667221,318.713226 253.252640,314.638702 253.981873,310.605652 
	C254.912277,305.459961 255.706375,300.287323 256.746887,295.164398 
	C257.753937,290.206085 258.999023,285.296143 260.270020,279.800781 
	C258.472137,280.850433 257.285339,281.394531 256.266327,282.161530 
	C246.966751,289.160919 237.766098,296.293610 228.401657,303.204590 
	C213.260529,314.378723 198.015717,325.412292 182.817719,336.509369 
	C166.298233,348.571381 149.740967,360.582245 133.281601,372.725739 
	C124.754356,379.017029 116.403214,385.546967 107.221970,391.957581 
	C104.415672,394.229431 101.609375,396.501282 98.426903,398.906342 
	C98.426903,398.906342 98.068054,399.080902 97.352303,399.061066 
	C92.421249,402.428986 87.490196,405.796875 82.559143,409.164795 
	C82.948158,409.751495 83.337166,410.338165 83.726181,410.924835 
	C89.457375,408.590607 95.659477,407.176483 100.479576,401.410797 
M28.702597,156.125122 
	C28.770975,158.085480 28.839354,160.045837 28.450838,162.542130 
	C29.258739,165.071030 30.066641,167.599915 30.898827,171.032272 
	C32.239670,179.920593 33.553425,188.813126 34.928463,197.696152 
	C36.518246,207.966492 38.208374,218.221405 39.771011,228.495789 
	C41.911308,242.568268 44.052967,256.641418 46.047291,270.735046 
	C48.518024,288.195374 50.814991,305.680267 53.243595,323.146698 
	C53.736393,326.690826 54.412502,330.214539 55.160046,333.714386 
	C55.336128,334.538727 56.144386,335.227966 57.299011,336.904663 
	C62.099220,329.679047 66.546051,323.119476 70.856461,316.471405 
	C82.883987,297.921051 94.936829,279.385864 106.759735,260.705444 
	C108.524277,257.917419 111.772415,255.533295 108.638565,250.797699 
	C96.623123,232.641052 85.213493,214.083649 73.566689,195.682831 
	C64.291283,181.028580 55.071098,166.338623 45.685410,151.755234 
	C40.951485,144.399719 35.904613,137.245621 31.012245,129.204681 
	C28.555601,124.813042 26.098957,120.421394 23.642313,116.029755 
	C22.833023,116.387451 22.023733,116.745148 21.214443,117.102844 
	C22.171511,120.395454 23.128580,123.688065 24.088188,127.842476 
	C24.169338,129.841522 24.250486,131.840561 24.132973,134.697632 
	C24.859236,136.769852 25.585499,138.842056 26.285915,141.779465 
	C26.385773,143.770523 26.485630,145.761597 26.282923,148.557205 
	C27.080673,150.801468 27.878424,153.045715 28.702597,156.125122 
M205.951599,91.268951 
	C205.291367,92.202660 204.564209,93.096703 203.982941,94.077225 
	C201.899323,97.592072 202.656662,104.715279 205.448196,106.336708 
	C208.970367,108.382523 212.613647,110.230751 216.268906,112.034058 
	C222.407089,115.062279 228.744263,117.720314 234.720505,121.034035 
	C240.347855,124.154305 245.292068,123.551231 248.327850,118.597809 
	C250.820374,114.530807 248.429886,107.559784 243.703354,105.173897 
	C237.777283,102.182495 231.880905,99.128136 225.897064,96.256470 
	C219.840683,93.350014 214.254578,88.548584 205.951599,91.268951 
M233.778366,71.959328 
	C240.593658,82.022942 247.325150,92.146645 254.403534,102.021683 
	C254.901672,102.716637 259.511108,101.755051 259.568573,101.258331 
	C259.860931,98.731316 260.111145,95.584099 258.866882,93.600891 
	C253.411224,84.904945 247.421768,76.544571 241.653305,68.043900 
	C239.084000,64.257652 236.410187,60.526978 234.094574,56.588375 
	C231.923874,52.896236 229.122391,52.206741 225.458038,53.632847 
	C222.862213,62.050888 230.060104,65.820366 233.778366,71.959328 
M197.964661,82.580040 
	C192.290726,79.023895 187.715805,80.530861 183.752747,87.261398 
	C182.272064,89.776077 184.884872,95.476593 188.371735,97.338882 
	C191.284637,98.894638 198.085770,98.022354 200.016647,95.845345 
	C202.044785,93.558723 201.204575,86.215706 197.964661,82.580040 
z"/>
<path fill="#F1F1F1" opacity="1.000000" stroke="none" 
	d="
M232.449982,505.000000 
	C225.781250,495.095825 233.972046,478.320587 246.793152,477.835907 
	C248.346680,477.777161 249.816559,475.529572 251.326950,474.298584 
	C252.679031,473.196564 254.078461,471.157715 255.376251,471.219849 
	C257.269592,471.310425 259.780334,472.436279 260.824707,473.950562 
	C265.708191,481.031403 270.168518,488.403625 274.834381,495.636627 
	C275.024750,495.931732 275.761383,495.874420 276.621765,495.990662 
	C277.000000,498.932922 277.000000,501.865845 277.000000,505.000000 
	C273.320892,505.000000 269.639618,505.000000 265.477234,504.551575 
	C264.995148,493.468475 262.687042,490.972412 254.213440,486.537292 
	C249.057434,483.838593 245.602234,486.128296 242.827225,488.658905 
	C239.884842,491.342255 237.593765,495.429016 240.413971,500.132202 
	C241.181259,501.411835 240.835129,503.359131 241.000000,505.000000 
	C238.299988,505.000000 235.599976,505.000000 232.449982,505.000000 
z"/>
<path fill="#F1F1F1" opacity="1.000000" stroke="none" 
	d="
M277.000000,88.550018 
	C266.395325,89.785248 258.448212,85.557983 253.899506,75.943367 
	C247.348755,62.097038 255.364517,42.953251 272.592255,43.989681 
	C273.750671,44.059372 274.916870,43.999073 276.539734,43.999615 
	C277.000000,46.700012 277.000000,49.400028 276.550171,52.551208 
	C275.104858,53.001896 274.109344,52.999947 273.113861,53.001171 
	C264.287720,53.012020 258.595734,60.470798 260.980957,68.899544 
	C262.740112,75.115967 269.774261,79.990295 277.000000,80.000000 
	C277.000000,82.700012 277.000000,85.400032 277.000000,88.550018 
z"/>
<path fill="#FEFEFE" opacity="1.000000" stroke="none" 
	d="
M241.468628,505.000000 
	C240.835129,503.359131 241.181259,501.411835 240.413971,500.132202 
	C237.593765,495.429016 239.884842,491.342255 242.827225,488.658905 
	C245.602234,486.128296 249.057434,483.838593 254.213440,486.537292 
	C262.687042,490.972412 264.995148,493.468475 264.998047,504.551575 
	C257.312408,505.000000 249.624832,505.000000 241.468628,505.000000 
z"/>
<path fill="#FEFEFE" opacity="1.000000" stroke="none" 
	d="
M277.000000,79.531342 
	C269.774261,79.990295 262.740112,75.115967 260.980957,68.899544 
	C258.595734,60.470798 264.287720,53.012020 273.113861,53.001171 
	C274.109344,52.999947 275.104858,53.001896 276.550171,53.001186 
	C277.000000,61.687565 277.000000,70.375130 277.000000,79.531342 
z"/>
<path fill="#F2F2F2" opacity="1.000000" stroke="none" 
	d="
M277.000000,488.531342 
	C274.606934,486.598114 271.623657,484.550507 269.930023,481.728821 
	C264.564941,472.790283 266.832092,463.021301 274.083282,455.967194 
	C274.616577,455.448456 275.529358,455.319794 276.632843,455.004883 
	C277.000000,466.020905 277.000000,477.041779 277.000000,488.531342 
z"/>
<path fill="#F3F3F3" opacity="1.000000" stroke="none" 
	d="
M208.463181,505.000000 
	C212.060318,501.264313 216.439316,502.702820 220.911285,504.605133 
	C216.975449,505.000000 212.950912,505.000000 208.463181,505.000000 
z"/>
<path fill="#FF3265" opacity="1.000000" stroke="none" 
	d="
M28.942295,80.032288 
	C37.626831,86.205109 46.358444,92.313004 54.984268,98.566803 
	C66.391479,106.837120 77.757759,115.165329 89.065163,123.571510 
	C102.982079,133.917664 116.811539,144.381393 130.695084,154.772522 
	C142.590912,163.675964 154.475876,172.594574 166.427643,181.422516 
	C178.960800,190.679855 191.604584,199.787521 204.133865,209.050079 
	C222.445343,222.587219 240.681305,236.226501 258.985504,249.773529 
	C264.532654,253.879013 264.682129,254.516281 259.344910,258.459351 
	C233.828720,277.310455 208.264923,296.097137 182.733871,314.928162 
	C168.014954,325.784424 153.388809,336.767456 138.609116,347.540039 
	C116.144989,363.913574 93.524345,380.072662 71.086380,396.481781 
	C57.870312,406.146881 44.878620,416.118835 31.065811,425.980530 
	C28.925995,427.375031 27.506374,428.741791 26.086754,430.108521 
	C26.086754,430.108521 26.019455,429.994843 25.692108,430.014343 
	C23.792704,430.620331 22.220646,431.206787 20.260986,431.937866 
	C20.186853,430.349243 20.135767,429.254517 20.084686,428.159790 
	C38.024685,400.224335 55.922710,372.261780 73.918053,344.362030 
	C88.128456,322.330353 102.493988,300.398712 116.713913,278.373138 
	C121.005943,271.725159 125.302002,265.051331 129.036026,258.088898 
	C130.160828,255.991608 130.496582,252.185715 129.329956,250.341675 
	C116.097130,229.425385 102.406387,208.799744 89.029556,187.973404 
	C73.964684,164.518967 59.116768,140.925278 44.132175,117.419136 
	C36.254032,105.060783 28.285583,92.759995 20.258942,79.710976 
	C20.925810,77.881165 21.691650,76.773582 22.457489,75.666008 
	C22.820253,75.677673 23.183018,75.689331 23.799671,76.206863 
	C25.683140,77.819252 27.312717,78.925774 28.942295,80.032288 
z"/>
<path fill="#48DAE7" opacity="1.000000" stroke="none" 
	d="
M24.331635,133.839600 
	C24.250486,131.840561 24.169338,129.841522 24.314461,127.191521 
	C24.783625,125.612839 25.026516,124.685120 25.283724,123.702713 
	C27.242800,125.861343 29.121025,127.930893 30.999252,130.000443 
	C35.904613,137.245621 40.951485,144.399719 45.685410,151.755234 
	C55.071098,166.338623 64.291283,181.028580 73.566689,195.682831 
	C85.213493,214.083649 96.623123,232.641052 108.638565,250.797699 
	C111.772415,255.533295 108.524277,257.917419 106.759735,260.705444 
	C94.936829,279.385864 82.883987,297.921051 70.856461,316.471405 
	C66.546051,323.119476 62.099220,329.679047 57.299011,336.904663 
	C56.144386,335.227966 55.336128,334.538727 55.160046,333.714386 
	C54.412502,330.214539 53.736393,326.690826 53.243595,323.146698 
	C50.814991,305.680267 48.518024,288.195374 46.047291,270.735046 
	C44.052967,256.641418 41.911308,242.568268 39.771011,228.495789 
	C38.208374,218.221405 36.518246,207.966492 34.928463,197.696152 
	C33.553425,188.813126 32.239670,179.920593 30.954922,170.139603 
	C30.309923,166.833359 29.608828,164.419769 28.907732,162.006195 
	C28.839354,160.045837 28.770975,158.085480 28.797916,155.271515 
	C28.459488,152.079987 30.550043,148.868073 26.585487,147.752655 
	C26.485630,145.761597 26.385773,143.770523 26.512911,141.066833 
	C26.909721,137.823151 27.901718,134.988144 24.331635,133.839600 
z"/>
<path fill="#4CDBE8" opacity="1.000000" stroke="none" 
	d="
M107.972519,391.969055 
	C116.403214,385.546967 124.754356,379.017029 133.281601,372.725739 
	C149.740967,360.582245 166.298233,348.571381 182.817719,336.509369 
	C198.015717,325.412292 213.260529,314.378723 228.401657,303.204590 
	C237.766098,296.293610 246.966751,289.160919 256.266327,282.161530 
	C257.285339,281.394531 258.472137,280.850433 260.270020,279.800781 
	C258.999023,285.296143 257.753937,290.206085 256.746887,295.164398 
	C255.706375,300.287323 254.912277,305.459961 253.981873,310.605652 
	C253.252640,314.638702 252.667221,318.713226 251.626175,322.666138 
	C251.256256,324.070740 249.988464,325.669739 248.695709,326.334991 
	C232.415451,334.712616 216.000244,342.828400 199.732834,351.230469 
	C185.820984,358.415955 172.104980,365.979950 158.212463,373.203674 
	C140.484497,382.421722 122.678017,391.489288 104.861847,400.536011 
	C103.582817,401.185516 101.948631,401.135529 99.855721,401.614594 
	C98.843933,400.905884 98.455994,399.993408 98.068054,399.080902 
	C98.068054,399.080902 98.426903,398.906342 98.968834,398.868835 
	C102.331352,396.543884 105.151932,394.256470 107.972519,391.969055 
z"/>
<path fill="#F1F1F1" opacity="1.000000" stroke="none" 
	d="
M187.993271,157.008072 
	C187.992538,158.069336 187.991806,159.130600 187.670807,160.635284 
	C186.900360,161.719131 186.450180,162.359558 186.000000,163.000000 
	C182.556992,168.528564 175.834213,169.720703 170.996277,165.639618 
	C170.643845,165.342331 170.272003,164.909790 170.183212,164.483078 
	C169.420990,160.820190 168.521286,157.170227 168.040131,153.467346 
	C166.327286,140.285614 164.763275,127.084526 163.142868,113.890778 
	C163.122574,113.725525 163.092148,113.560905 163.082397,113.395065 
	C162.387024,101.586884 161.477737,89.783905 161.187958,77.965729 
	C161.132462,75.702301 163.300613,71.622208 164.817932,71.435974 
	C168.370850,70.999901 173.075394,68.845634 175.712143,73.306763 
	C177.291656,75.979126 178.572861,79.139313 178.883575,82.192650 
	C179.878723,91.971695 180.270905,101.810326 181.070923,111.611664 
	C181.546799,117.442177 182.286362,123.254181 183.029770,129.058838 
	C183.587677,133.415024 184.340622,137.746246 185.004791,143.002274 
	C185.004150,146.663925 184.646393,149.477783 185.134323,152.136429 
	C185.453690,153.876602 186.997742,155.391998 187.993271,157.008072 
z"/>
<path fill="#F1F1F1" opacity="1.000000" stroke="none" 
	d="
M206.333572,91.166946 
	C214.254578,88.548584 219.840683,93.350014 225.897064,96.256470 
	C231.880905,99.128136 237.777283,102.182495 243.703354,105.173897 
	C248.429886,107.559784 250.820374,114.530807 248.327850,118.597809 
	C245.292068,123.551231 240.347855,124.154305 234.720505,121.034035 
	C228.744263,117.720314 222.407089,115.062279 216.268906,112.034058 
	C212.613647,110.230751 208.970367,108.382523 205.448196,106.336708 
	C202.656662,104.715279 201.899323,97.592072 203.982941,94.077225 
	C204.564209,93.096703 205.291367,92.202660 206.333572,91.166946 
z"/>
<path fill="#F1F1F1" opacity="1.000000" stroke="none" 
	d="
M189.992126,139.996231 
	C196.694992,135.026993 203.363739,130.010681 210.120224,125.115448 
	C212.326401,123.517021 214.870087,122.383041 217.068436,120.775475 
	C221.547058,117.500420 224.985580,119.970558 227.441330,123.198502 
	C231.374069,128.367844 231.086426,131.248108 226.255768,135.110931 
	C218.931046,140.968079 211.233490,146.360794 203.661194,151.905548 
	C201.067764,153.804565 198.501312,155.797012 195.699646,157.342819 
	C190.602066,160.155350 190.184128,159.814590 189.998108,152.969116 
	C189.997025,148.049805 189.994583,144.023026 189.992126,139.996231 
z"/>
<path fill="#F1F1F1" opacity="1.000000" stroke="none" 
	d="
M233.574036,71.656967 
	C230.060104,65.820366 222.862213,62.050888 225.458038,53.632847 
	C229.122391,52.206741 231.923874,52.896236 234.094574,56.588375 
	C236.410187,60.526978 239.084000,64.257652 241.653305,68.043900 
	C247.421768,76.544571 253.411224,84.904945 258.866882,93.600891 
	C260.111145,95.584099 259.860931,98.731316 259.568573,101.258331 
	C259.511108,101.755051 254.901672,102.716637 254.403534,102.021683 
	C247.325150,92.146645 240.593658,82.022942 233.574036,71.656967 
z"/>
<path fill="#F1F1F1" opacity="1.000000" stroke="none" 
	d="
M198.260620,82.832397 
	C201.204575,86.215706 202.044785,93.558723 200.016647,95.845345 
	C198.085770,98.022354 191.284637,98.894638 188.371735,97.338882 
	C184.884872,95.476593 182.272064,89.776077 183.752747,87.261398 
	C187.715805,80.530861 192.290726,79.023895 198.260620,82.832397 
z"/>
<path fill="#9EEBF2" opacity="1.000000" stroke="none" 
	d="
M97.710175,399.070984 
	C98.455994,399.993408 98.843933,400.905884 99.557968,401.858459 
	C95.659477,407.176483 89.457375,408.590607 83.726181,410.924835 
	C83.337166,410.338165 82.948158,409.751495 82.559143,409.164795 
	C87.490196,405.796875 92.421249,402.428986 97.710175,399.070984 
z"/>
<path fill="#FAFAFA" opacity="1.000000" stroke="none" 
	d="
M189.644440,140.055298 
	C189.994583,144.023026 189.997025,148.049805 189.996674,152.540253 
	C189.329376,154.087585 188.664871,155.171265 187.996826,156.631500 
	C186.997742,155.391998 185.453690,153.876602 185.134323,152.136429 
	C184.646393,149.477783 185.004150,146.663925 185.006927,143.455078 
	C186.439575,142.034225 187.868164,141.074295 189.644440,140.055298 
z"/>
<path fill="#8FE8F0" opacity="1.000000" stroke="none" 
	d="
M31.005749,129.602570 
	C29.121025,127.930893 27.242800,125.861343 25.283724,123.702713 
	C25.026516,124.685120 24.783625,125.612839 24.313190,126.760620 
	C23.128580,123.688065 22.171511,120.395454 21.214443,117.102844 
	C22.023733,116.745148 22.833023,116.387451 23.642313,116.029755 
	C26.098957,120.421394 28.555601,124.813042 31.005749,129.602570 
z"/>
<path fill="#FF668D" opacity="1.000000" stroke="none" 
	d="
M19.764269,428.263733 
	C20.135767,429.254517 20.186853,430.349243 20.260986,431.937866 
	C22.220646,431.206787 23.792704,430.620331 25.734638,430.065247 
	C22.671328,433.582458 19.465506,437.476776 13.499210,437.184998 
	C15.614318,434.047791 17.529087,431.207733 19.764269,428.263733 
z"/>
<path fill="#FF638A" opacity="1.000000" stroke="none" 
	d="
M22.376646,75.314995 
	C21.691650,76.773582 20.925810,77.881165 20.137501,79.378433 
	C17.494204,77.051872 14.025892,74.661766 16.065598,69.404030 
	C18.454952,71.536331 20.375378,73.250160 22.376646,75.314995 
z"/>
<path fill="#9EEBF2" opacity="1.000000" stroke="none" 
	d="
M107.597244,391.963318 
	C105.151932,394.256470 102.331352,396.543884 99.156921,398.802185 
	C101.609375,396.501282 104.415672,394.229431 107.597244,391.963318 
z"/>
<path fill="#8FE8F0" opacity="1.000000" stroke="none" 
	d="
M28.679285,162.274170 
	C29.608828,164.419769 30.309923,166.833359 30.942780,169.687866 
	C30.066641,167.599915 29.258739,165.071030 28.679285,162.274170 
z"/>
<path fill="#8FE8F0" opacity="1.000000" stroke="none" 
	d="
M26.434204,148.154938 
	C30.550043,148.868073 28.459488,152.079987 28.784702,154.853943 
	C27.878424,153.045715 27.080673,150.801468 26.434204,148.154938 
z"/>
<path fill="#8FE8F0" opacity="1.000000" stroke="none" 
	d="
M24.232304,134.268616 
	C27.901718,134.988144 26.909721,137.823151 26.525833,140.634247 
	C25.585499,138.842056 24.859236,136.769852 24.232304,134.268616 
z"/>
<path fill="#FF668D" opacity="1.000000" stroke="none" 
	d="
M26.437511,430.102264 
	C27.506374,428.741791 28.925995,427.375031 30.712292,426.028778 
	C29.648735,427.398193 28.218504,428.747101 26.437511,430.102264 
z"/>
<path fill="#FF638A" opacity="1.000000" stroke="none" 
	d="
M28.841671,79.706306 
	C27.312717,78.925774 25.683140,77.819252 24.023315,76.365257 
	C25.575729,77.138626 27.158390,78.259476 28.841671,79.706306 
z"/>
<path fill="#FAFAFA" opacity="1.000000" stroke="none" 
	d="
M186.321335,162.958191 
	C186.450180,162.359558 186.900360,161.719131 187.669922,161.033249 
	C187.540421,161.630646 187.091553,162.273514 186.321335,162.958191 
z"/>
</svg>