<svg version="1.1" id="Layer_1" xmlns="http://www.w3.org/2000/svg" xmlns:xlink="http://www.w3.org/1999/xlink" x="0px" y="0px"
	 width="100%" viewBox="0 0 242 209" enable-background="new 0 0 242 209" xml:space="preserve">
<path fill="#F4B604" opacity="1.000000" stroke="none" 
	d="
M243.000000,13.000002 
	C243.000000,59.020893 243.000000,105.041786 242.644348,151.614258 
	C241.499100,153.472855 240.778549,154.828568 239.900742,156.073395 
	C239.001907,157.348068 238.089294,159.376511 236.936981,159.563904 
	C233.650711,160.098343 232.178024,161.497452 231.540436,164.831512 
	C231.300766,166.084839 228.762177,167.507751 227.159790,167.657669 
	C226.231491,167.744507 225.019287,165.498413 224.046631,164.217346 
	C223.020187,162.865448 222.126709,161.412613 221.110504,159.538742 
	C220.984589,135.384171 220.923309,111.694710 220.938278,87.753914 
	C221.066864,87.335480 221.119202,87.168381 221.513290,87.065414 
	C225.753662,88.256432 224.956009,85.317932 224.969345,83.366127 
	C225.035187,73.720245 225.048294,64.073341 224.975708,54.427578 
	C224.954315,51.582600 225.634201,49.341122 228.836685,49.125664 
	C232.468781,48.881306 233.048645,46.685326 233.021240,43.672985 
	C232.948578,35.690498 233.064880,27.706161 232.977173,19.723978 
	C232.916840,14.233403 235.091003,7.424146 226.038788,6.904439 
	C229.454132,6.232799 232.869492,5.561158 236.597961,5.013627 
	C238.940704,7.758492 240.970352,10.379248 243.000000,13.000002 
z"/>
<path fill="#F3B609" opacity="1.000000" stroke="none" 
	d="
M1.000002,198.000000 
	C1.000000,197.250000 1.000000,196.500000 1.286650,195.263092 
	C2.686455,195.461594 3.799610,196.146973 5.385219,197.123276 
	C6.221212,192.193146 6.993653,186.742706 8.151543,181.375427 
	C8.482620,179.840744 9.636322,178.104401 10.932725,177.242813 
	C13.064259,175.826172 15.620098,175.047943 17.998898,174.465118 
	C18.001194,179.286118 18.001640,183.642517 18.164579,188.172455 
	C18.815893,188.361633 19.304716,188.377289 19.793539,188.392929 
	C19.524956,188.253174 19.256371,188.113419 18.995964,187.727081 
	C19.004145,187.480484 19.020058,186.987305 19.265028,186.990662 
	C19.509998,186.994019 19.999973,186.997421 20.354641,186.998138 
	C21.414360,186.997955 22.119413,186.997055 22.889990,187.235245 
	C22.955515,187.474335 22.932426,187.969620 22.757124,188.185181 
	C23.382191,188.896072 24.182560,189.391418 25.035820,190.182861 
	C25.391781,190.985657 25.694853,191.492386 26.337971,192.235626 
	C27.647036,192.645691 28.615866,192.969513 29.585106,192.970749 
	C53.305229,193.000839 77.025429,193.013763 100.745445,192.955978 
	C102.163826,192.952515 103.580704,192.334061 105.467010,192.000519 
	C113.289780,191.998886 120.643822,191.998520 127.998238,192.432037 
	C127.629494,195.579300 129.279861,199.615784 124.632523,199.820648 
	C120.705551,199.993759 118.614319,201.088242 119.589615,205.723511 
	C114.972549,206.172287 110.718063,206.910492 106.458176,206.943176 
	C88.838440,207.078400 71.216583,206.941086 53.597015,207.086716 
	C51.727428,207.102173 49.867748,208.316315 47.534630,208.980103 
	C36.698421,208.977234 26.331055,208.968643 15.763089,208.764023 
	C15.039352,208.379791 14.516214,208.191574 13.612099,207.928864 
	C11.705759,207.588913 10.180397,207.323441 8.351965,206.946014 
	C5.699265,203.889374 3.349634,200.944687 1.000002,198.000000 
z"/>
<path fill="#F5B80E" opacity="1.000000" stroke="none" 
	d="
M17.997044,174.000534 
	C15.620098,175.047943 13.064259,175.826172 10.932725,177.242813 
	C9.636322,178.104401 8.482620,179.840744 8.151543,181.375427 
	C6.993653,186.742706 6.221212,192.193146 5.385219,197.123276 
	C3.799610,196.146973 2.686455,195.461594 1.286650,194.888092 
	C1.000000,167.645767 1.000000,140.291550 1.419953,112.468460 
	C5.298888,112.269951 6.401406,110.205154 8.601614,107.685219 
	C12.290834,103.459869 14.817642,98.832405 17.536325,94.161972 
	C17.597944,94.056107 17.836472,94.053215 17.994362,94.470718 
	C17.996510,121.292938 17.996775,147.646729 17.997044,174.000534 
z"/>
<path fill="#F5B302" opacity="1.000000" stroke="none" 
	d="
M221.175140,160.003860 
	C222.126709,161.412613 223.020187,162.865448 224.046631,164.217346 
	C225.019287,165.498413 226.231491,167.744507 227.159790,167.657669 
	C228.762177,167.507751 231.300766,166.084839 231.540436,164.831512 
	C232.178024,161.497452 233.650711,160.098343 236.936981,159.563904 
	C238.089294,159.376511 239.001907,157.348068 239.900742,156.073395 
	C240.778549,154.828568 241.499100,153.472855 242.644348,152.082916 
	C243.000000,167.354233 243.000000,182.708450 242.663757,198.604843 
	C239.337875,202.114792 236.348236,205.082581 232.959122,208.045792 
	C231.386169,208.476425 230.212692,208.911621 229.110779,209.296478 
	C229.182343,209.246124 229.289139,209.384781 228.812515,209.294037 
	C223.560242,209.126617 218.784592,209.049957 213.893784,208.648071 
	C212.075668,206.306122 210.531998,204.121613 208.629517,202.314972 
	C206.241318,200.047104 203.559097,198.088837 200.977890,195.653168 
	C199.676727,194.420135 198.355255,192.733124 197.135574,192.803757 
	C194.391556,192.962692 194.707687,191.628677 195.401520,189.929382 
	C201.536743,189.913925 207.284088,190.105682 213.007156,189.816589 
	C215.673264,189.681915 218.292282,188.614899 220.958832,187.576691 
	C220.942047,186.135941 220.899078,185.088989 220.927185,183.604065 
	C220.947937,181.100052 220.897629,179.034027 220.907288,176.509064 
	C220.925079,171.714249 220.882904,167.378357 220.913055,162.666245 
	C221.048645,161.527954 221.111893,160.765915 221.175140,160.003860 
z"/>
<path fill="#F6BB1A" opacity="1.000000" stroke="none" 
	d="
M1.000000,58.000000 
	C1.000000,43.645771 1.000000,29.291544 1.341107,14.342847 
	C3.726511,10.803764 5.770807,7.859150 8.164124,4.925483 
	C9.343813,4.309414 10.174480,3.682398 11.140123,2.939280 
	C11.275101,2.823176 11.631136,2.829005 11.991303,2.906483 
	C12.594584,3.018866 12.837695,3.053771 13.380541,3.306555 
	C23.267830,4.312658 32.855385,5.100883 42.063507,5.857914 
	C41.615917,10.126827 41.243717,13.676712 40.808186,17.830616 
	C36.156521,17.830616 31.210402,17.700272 26.281002,17.929506 
	C25.159370,17.981668 24.095617,19.278427 23.002941,20.328554 
	C23.004232,21.089754 23.007811,21.524734 22.994858,22.177010 
	C22.978327,22.394306 22.953091,22.829422 22.740871,22.996979 
	C22.744112,23.803545 22.959572,24.442553 23.080002,25.094231 
	C22.984970,25.106901 22.833261,24.989639 22.746054,25.102936 
	C22.539949,25.502909 22.602444,25.755268 22.918186,26.398174 
	C22.947840,29.354692 22.905634,31.886347 22.514135,34.289505 
	C21.771433,32.557854 21.429317,30.939934 20.972853,29.354944 
	C20.248920,26.841204 19.448538,24.349480 18.680498,21.848442 
	C18.118387,21.998318 17.556274,22.148193 16.994162,22.298069 
	C16.994162,26.198301 16.994162,30.098536 16.585258,34.000038 
	C11.649279,33.697098 9.789067,35.930897 9.979876,40.323868 
	C10.102705,43.151787 10.019059,45.989639 9.995434,48.822769 
	C9.931192,56.526566 8.754764,57.719234 1.000000,58.000000 
z"/>
<path fill="#F5BA14" opacity="1.000000" stroke="none" 
	d="
M1.000000,58.468658 
	C8.754764,57.719234 9.931192,56.526566 9.995434,48.822769 
	C10.019059,45.989639 10.102705,43.151787 9.979876,40.323868 
	C9.789067,35.930897 11.649279,33.697098 16.836639,34.001152 
	C17.664461,34.001221 17.832001,34.001450 18.000793,34.470196 
	C18.001497,42.292267 18.000952,49.645821 17.764610,57.339699 
	C17.351961,65.064919 17.059418,72.449722 17.053862,79.834732 
	C17.051563,82.888458 17.664423,85.942657 17.998243,89.413727 
	C17.996811,91.221313 17.994644,92.611801 17.992477,94.002289 
	C17.836472,94.053215 17.597944,94.056107 17.536325,94.161972 
	C14.817642,98.832405 12.290834,103.459869 8.601614,107.685219 
	C6.401406,110.205154 5.298888,112.269951 1.419953,111.999802 
	C1.000000,94.312439 1.000000,76.624878 1.000000,58.468658 
z"/>
<path fill="#E99B08" opacity="1.000000" stroke="none" 
	d="
M214.008942,208.973282 
	C218.784592,209.049957 223.560242,209.126617 228.841492,209.495361 
	C229.347107,209.787445 229.000000,210.000000 229.000000,210.000000 
	C157.312439,210.000000 85.624878,210.000000 13.343600,209.685913 
	C11.384935,208.600555 10.019986,207.829269 8.655035,207.057983 
	C10.180397,207.323441 11.705759,207.588913 13.812851,208.128281 
	C14.917615,208.588150 15.440651,208.774094 15.963688,208.960037 
	C26.331055,208.968643 36.698421,208.977234 48.002678,208.988205 
	C86.955421,208.985825 124.971275,208.981064 163.457230,208.984039 
	C180.621201,208.985596 197.315063,208.979446 214.008942,208.973282 
z"/>
<path fill="#FBC63E" opacity="1.000000" stroke="none" 
	d="
M108.000000,1.000000 
	C148.354233,1.000000 188.708450,1.000000 229.292511,1.234262 
	C228.661758,1.674357 227.801193,1.880191 226.477859,2.072956 
	C207.354523,2.122738 188.693954,2.185589 169.563614,2.189841 
	C166.606445,2.106771 164.118469,2.035077 161.631729,2.065392 
	C143.745514,2.283433 125.859558,2.522168 107.977318,2.461939 
	C107.987411,1.779693 107.993706,1.389846 108.000000,1.000000 
z"/>
<path fill="#FBC945" opacity="1.000000" stroke="none" 
	d="
M107.531342,1.000000 
	C107.993706,1.389846 107.987411,1.779693 107.606430,2.514833 
	C106.483742,2.892970 105.735733,2.925812 104.523743,2.949043 
	C96.049080,2.701408 88.038399,2.463384 79.558990,2.185929 
	C57.393593,2.182534 35.696918,2.218570 13.993517,1.940956 
	C13.991196,1.418204 13.995598,1.209102 14.000000,1.000000 
	C45.020893,1.000000 76.041786,1.000000 107.531342,1.000000 
z"/>
<path fill="#FDF9EE" opacity="1.000000" stroke="none" 
	d="
M7.815103,4.914536 
	C5.770807,7.859150 3.726511,10.803764 1.341107,13.874189 
	C1.000000,9.752580 1.000000,5.505160 1.000000,1.000000 
	C4.342161,1.000000 7.688125,1.000000 11.521852,1.314487 
	C11.883457,2.028984 11.757297,2.428995 11.631136,2.829005 
	C11.631136,2.829005 11.275101,2.823176 10.810881,2.910950 
	C9.502808,3.637328 8.658956,4.275931 7.815103,4.914536 
z"/>
<path fill="#FDF9EE" opacity="1.000000" stroke="none" 
	d="
M243.000000,12.520826 
	C240.970352,10.379248 238.940704,7.758492 236.477875,4.769656 
	C235.581497,4.142272 235.118347,3.882970 234.429062,3.386511 
	C233.468628,2.432902 232.734314,1.716450 232.000000,0.999999 
	C235.591980,1.000000 239.183945,1.000000 243.000000,1.000000 
	C243.000000,4.678767 243.000000,8.360208 243.000000,12.520826 
z"/>
<path fill="#FDF9EE" opacity="1.000000" stroke="none" 
	d="
M229.474121,210.000000 
	C229.000000,210.000000 229.347107,209.787445 229.318115,209.586121 
	C229.289139,209.384781 229.182343,209.246124 229.509033,209.309814 
	C231.009995,208.932449 232.184296,208.491409 233.358582,208.050354 
	C236.348236,205.082581 239.337875,202.114792 242.663757,199.073502 
	C243.000000,202.599579 243.000000,206.199158 243.000000,210.000000 
	C238.650711,210.000000 234.299484,210.000000 229.474121,210.000000 
z"/>
<path fill="#FDF9EE" opacity="1.000000" stroke="none" 
	d="
M8.351965,206.946014 
	C10.019986,207.829269 11.384935,208.600555 12.874943,209.685913 
	C9.078018,210.000000 5.156037,210.000000 1.000000,210.000000 
	C1.000000,206.321411 1.000000,202.639877 1.000002,198.479187 
	C3.349634,200.944687 5.699265,203.889374 8.351965,206.946014 
z"/>
<path fill="#F2BE25" opacity="1.000000" stroke="none" 
	d="
M231.666672,0.999999 
	C232.734314,1.716450 233.468628,2.432902 233.970047,3.487702 
	C231.471634,3.246042 229.206131,2.666032 226.940613,2.086024 
	C227.801193,1.880191 228.661758,1.674357 229.761169,1.234262 
	C230.444443,1.000000 230.888901,1.000000 231.666672,0.999999 
z"/>
<path fill="#F3C12D" opacity="1.000000" stroke="none" 
	d="
M11.991303,2.906483 
	C11.757297,2.428995 11.883457,2.028984 12.004808,1.314487 
	C12.444445,1.000000 12.888889,1.000000 13.666667,1.000000 
	C13.995598,1.209102 13.991196,1.418204 13.854326,2.091854 
	C13.519713,2.747721 13.306029,2.925146 13.080806,3.088676 
	C12.837695,3.053771 12.594584,3.018866 11.991303,2.906483 
z"/>
<path fill="#159F5D" opacity="1.000000" stroke="none" 
	d="
M221.171555,87.001289 
	C221.119202,87.168381 221.066864,87.335480 220.551041,87.803520 
	C219.392029,89.751404 218.139999,91.383484 218.095551,93.047806 
	C217.882736,101.016281 218.382187,109.020241 217.831223,116.956230 
	C217.559235,120.873993 216.676498,126.620270 214.100357,128.092545 
	C209.627167,130.648956 208.673386,132.793488 209.724655,137.435349 
	C211.035187,143.221924 209.808746,144.466827 204.172729,146.183655 
	C202.919708,146.565338 202.052048,148.240479 201.027710,149.339401 
	C197.446457,153.181427 193.899429,157.056107 190.260132,160.842178 
	C189.892029,161.225113 188.944168,160.984482 188.343735,161.227173 
	C187.594467,161.529984 186.791046,161.904510 186.247086,162.473709 
	C183.984802,164.840866 181.811279,167.292877 179.704254,169.605057 
	C183.082596,170.120117 187.112518,170.734512 191.394974,171.387405 
	C191.242813,172.763962 191.119614,173.878433 190.528168,174.994293 
	C182.097549,174.998901 174.132584,174.895020 166.174911,175.089478 
	C164.439499,175.131897 162.730148,176.240677 160.545364,176.932373 
	C154.811432,177.006409 149.540924,177.006409 144.196320,177.006409 
	C144.196320,180.438492 144.196320,183.246902 144.132538,186.348755 
	C144.074539,187.042877 144.080322,187.443558 143.645569,187.913193 
	C141.129837,187.933853 139.054657,187.885559 136.986053,187.632614 
	C136.992645,187.427963 136.990448,187.018448 136.933563,186.741699 
	C125.584450,186.309753 114.292229,186.154572 102.932510,185.630127 
	C101.316963,178.556610 104.815575,174.333511 112.044144,173.966461 
	C114.288490,173.852524 117.402077,175.119232 117.972801,171.294205 
	C118.460457,168.025864 120.262321,166.379974 123.509796,165.909988 
	C124.512154,165.764938 125.824188,165.018051 126.262527,164.168915 
	C128.813873,159.226486 132.868790,157.513763 138.190247,157.946548 
	C139.130600,158.023026 140.120468,157.490555 141.087479,157.239288 
	C134.352615,154.913498 127.723122,152.906540 120.954254,152.155258 
	C114.243721,151.410461 114.107300,151.890381 114.467163,145.006317 
	C126.351524,145.001373 137.767395,145.045883 149.182312,144.962357 
	C151.446167,144.945801 153.706436,144.437943 156.363922,144.081299 
	C158.098602,143.945801 159.437744,143.885605 161.258636,143.863083 
	C170.703506,143.924622 179.667633,144.021851 188.628662,143.897079 
	C190.052505,143.877274 192.188110,143.257187 192.751328,142.231750 
	C195.012894,138.114075 192.819824,128.931549 188.563766,126.572250 
	C183.275757,123.640900 177.462219,121.657562 171.975235,118.888672 
	C174.942749,116.658524 177.606903,114.255196 180.732483,113.095520 
	C184.290894,111.775253 185.614639,110.126419 184.248520,106.532112 
	C183.517929,104.609871 182.917114,102.638306 182.373688,101.031815 
	C180.678513,101.714645 179.271683,102.281326 177.899994,102.413574 
	C178.485733,91.937706 175.602585,88.078636 166.091156,85.680786 
	C170.119507,81.374031 174.751862,82.386398 177.150406,87.644691 
	C177.974197,89.450661 179.160065,91.091461 180.180511,92.807716 
	C180.709061,92.773598 181.237610,92.739479 181.766174,92.705360 
	C182.873932,90.113167 184.037567,87.543114 185.075943,84.923409 
	C186.526230,81.264603 186.900940,76.450211 189.514221,74.155792 
	C193.258270,70.868591 192.827225,67.373512 193.052139,63.496151 
	C193.154373,61.734081 193.403137,59.770107 194.271530,58.304142 
	C196.472015,54.589359 196.510956,51.175922 194.112671,47.584732 
	C192.200729,44.721764 193.005112,41.849609 196.195786,41.407761 
	C200.965866,40.747196 201.276566,37.954041 200.987228,34.374733 
	C200.707916,30.919542 200.326355,27.472618 200.459015,24.014669 
	C206.961212,24.002489 212.994080,23.997700 219.204773,24.192387 
	C219.873611,24.578560 220.364670,24.765255 220.921768,25.419531 
	C221.049072,46.258503 221.110306,66.629898 221.171555,87.001289 
z"/>
<path fill="#119E5A" opacity="1.000000" stroke="none" 
	d="
M190.996414,174.992905 
	C191.119614,173.878433 191.242813,172.763962 191.394974,171.387405 
	C187.112518,170.734512 183.082596,170.120117 179.704254,169.605057 
	C181.811279,167.292877 183.984802,164.840866 186.247086,162.473709 
	C186.791046,161.904510 187.594467,161.529984 188.343735,161.227173 
	C188.944168,160.984482 189.892029,161.225113 190.260132,160.842178 
	C193.899429,157.056107 197.446457,153.181427 201.027710,149.339401 
	C202.052048,148.240479 202.919708,146.565338 204.172729,146.183655 
	C209.808746,144.466827 211.035187,143.221924 209.724655,137.435349 
	C208.673386,132.793488 209.627167,130.648956 214.100357,128.092545 
	C216.676498,126.620270 217.559235,120.873993 217.831223,116.956230 
	C218.382187,109.020241 217.882736,101.016281 218.095551,93.047806 
	C218.139999,91.383484 219.392029,89.751404 220.474808,88.054863 
	C220.923309,111.694710 220.984589,135.384171 221.110504,159.538742 
	C221.111893,160.765915 221.048645,161.527954 220.708588,163.015259 
	C220.570282,168.149673 220.708801,172.558838 220.847305,176.968002 
	C220.897629,179.034027 220.947937,181.100052 220.734528,183.873917 
	C220.316727,185.673676 220.162628,186.765594 219.633087,187.914871 
	C210.628189,187.936722 201.998764,187.901199 193.426849,187.427719 
	C193.321304,183.632248 193.158249,180.274734 192.911621,176.629089 
	C192.217514,175.891602 191.606964,175.442261 190.996414,174.992905 
z"/>
<path fill="#F4B609" opacity="1.000000" stroke="none" 
	d="
M221.513290,87.065414 
	C221.110306,66.629898 221.049072,46.258503 221.003906,25.419622 
	C221.020004,24.952133 221.152527,25.049242 221.439682,24.940054 
	C221.473480,23.559818 221.220123,22.288769 220.701294,21.127182 
	C219.305145,20.835321 218.174469,20.434000 216.881165,19.670204 
	C211.529861,16.613836 206.368454,18.420801 201.194763,18.198915 
	C201.193939,18.811567 201.193130,19.424219 201.192307,20.036871 
	C206.472824,20.036871 211.753342,20.036871 216.690399,20.272413 
	C208.894485,20.677544 201.442062,20.847132 193.852570,20.821362 
	C193.509430,20.379662 193.269943,20.171801 192.872070,19.663776 
	C191.164520,18.882469 189.581955,18.439808 187.900055,17.665916 
	C185.053238,13.475134 183.373184,8.889269 177.369202,8.070458 
	C174.708740,7.707629 172.465820,4.283130 170.033371,2.248441 
	C188.693954,2.185589 207.354523,2.122738 226.477859,2.072955 
	C229.206131,2.666032 231.471634,3.246042 234.196167,3.724859 
	C235.118347,3.882970 235.581497,4.142272 236.164749,4.645546 
	C232.869492,5.561158 229.454132,6.232799 226.038788,6.904439 
	C235.091003,7.424146 232.916840,14.233403 232.977173,19.723978 
	C233.064880,27.706161 232.948578,35.690498 233.021240,43.672985 
	C233.048645,46.685326 232.468781,48.881306 228.836685,49.125664 
	C225.634201,49.341122 224.954315,51.582600 224.975708,54.427578 
	C225.048294,64.073341 225.035187,73.720245 224.969345,83.366127 
	C224.956009,85.317932 225.753662,88.256432 221.513290,87.065414 
z"/>
<path fill="#F3B405" opacity="1.000000" stroke="none" 
	d="
M162.987137,208.976318 
	C124.971275,208.981064 86.955421,208.985825 48.471519,208.982483 
	C49.867748,208.316315 51.727428,207.102173 53.597015,207.086716 
	C71.216583,206.941086 88.838440,207.078400 106.458176,206.943176 
	C110.718063,206.910492 114.972549,206.172287 119.589615,205.723511 
	C118.614319,201.088242 120.705551,199.993759 124.632523,199.820648 
	C129.279861,199.615784 127.629494,195.579300 128.442932,192.431763 
	C131.260223,191.999741 133.633194,192.001877 136.112061,192.111160 
	C136.217972,192.218307 136.637619,192.272614 136.637619,192.272614 
	C136.637619,192.272614 136.989410,192.009308 137.055298,191.844421 
	C137.081116,190.845871 137.041046,190.012222 137.337128,189.270172 
	C140.105026,189.250900 142.536774,189.140030 144.986542,189.271103 
	C145.004578,189.513046 145.035950,189.997726 145.236862,190.199677 
	C145.967606,190.595413 146.497452,190.789200 147.120300,191.300964 
	C149.144257,193.411133 151.075180,195.203308 153.171936,197.281067 
	C154.890457,198.711105 156.443161,199.855515 157.997940,200.999969 
	C158.000000,201.000000 158.000214,201.004105 158.092438,201.327301 
	C159.785477,204.092453 161.386307,206.534393 162.987137,208.976318 
z"/>
<path fill="#FCB308" opacity="1.000000" stroke="none" 
	d="
M137.000977,189.178574 
	C137.041046,190.012222 137.081116,190.845871 136.809570,191.842590 
	C136.497955,192.005676 136.006165,192.004013 136.006165,192.004013 
	C133.633194,192.001877 131.260223,191.999741 128.442566,191.997894 
	C120.643822,191.998520 113.289780,191.998886 105.124657,191.768829 
	C102.348114,191.362610 100.382988,191.038483 98.417145,191.034134 
	C80.553467,190.994675 62.689049,190.927185 44.826210,191.056427 
	C38.548172,191.101837 32.273911,191.669769 25.997925,191.999115 
	C25.694853,191.492386 25.391781,190.985657 25.394386,189.986328 
	C26.515575,189.357727 27.331123,189.102600 28.146595,189.102844 
	C64.431389,189.113998 100.716187,189.147614 137.000977,189.178574 
z"/>
<path fill="#02A35C" opacity="1.000000" stroke="none" 
	d="
M136.990448,187.018448 
	C136.990448,187.018448 136.992645,187.427963 136.523315,187.699951 
	C98.346786,187.971161 60.639606,187.970383 22.932426,187.969620 
	C22.932426,187.969620 22.955515,187.474335 22.967001,186.906662 
	C22.936129,185.893021 22.893770,185.447052 22.921032,184.536957 
	C22.946852,171.381531 22.903051,158.690262 22.924839,145.534454 
	C23.050594,137.048569 23.110760,129.027222 23.376961,121.005272 
	C23.582996,121.004669 23.995066,121.003372 23.998524,121.471634 
	C24.013868,134.290695 24.025753,146.641495 24.029573,159.461365 
	C24.015879,163.738541 23.881794,167.551849 24.036711,171.353394 
	C24.236221,176.249222 24.667309,181.135620 25.340042,186.258453 
	C38.783703,186.654724 51.885971,186.818649 65.457603,186.986084 
	C73.621025,186.987213 81.315086,186.984848 89.476715,186.987183 
	C105.626335,187.000748 121.308388,187.009598 136.990448,187.018448 
z"/>
<path fill="#FFB31A" opacity="1.000000" stroke="none" 
	d="
M17.994358,94.470718 
	C17.994644,92.611801 17.996811,91.221313 18.000286,88.945480 
	C18.001198,77.706551 18.000803,67.352966 18.000406,56.999374 
	C18.000952,49.645821 18.001497,42.292267 18.002285,34.041084 
	C18.002527,31.013739 18.002527,28.884022 18.002527,26.754305 
	C19.033911,29.912817 18.626732,33.111740 19.202122,36.122913 
	C19.499075,37.676949 21.542179,38.897324 22.829327,40.728348 
	C22.835583,46.724842 22.808823,52.261444 22.141674,57.812653 
	C20.668314,59.601475 19.201468,61.346169 19.117216,63.155254 
	C18.825081,69.428085 19.013407,75.723297 19.016962,82.478020 
	C19.016684,117.626465 19.018372,152.306885 19.020058,186.987305 
	C19.020058,186.987305 19.004145,187.480484 18.749666,187.736084 
	C18.495188,187.991684 18.002087,187.998917 18.002087,187.998917 
	C18.001640,183.642517 18.001194,179.286118 17.998896,174.465118 
	C17.996775,147.646729 17.996510,121.292938 17.994358,94.470718 
z"/>
<path fill="#EABA08" opacity="1.000000" stroke="none" 
	d="
M26.337969,192.235641 
	C32.273911,191.669769 38.548172,191.101837 44.826210,191.056427 
	C62.689049,190.927185 80.553467,190.994675 98.417145,191.034134 
	C100.382988,191.038483 102.348114,191.362610 104.655930,191.770111 
	C103.580704,192.334061 102.163826,192.952515 100.745445,192.955978 
	C77.025429,193.013763 53.305229,193.000839 29.585106,192.970749 
	C28.615866,192.969513 27.647036,192.645691 26.337969,192.235641 
z"/>
<path fill="#FBC040" opacity="1.000000" stroke="none" 
	d="
M22.757124,188.185181 
	C60.639606,187.970383 98.346786,187.971161 136.516724,187.904602 
	C139.054657,187.885559 141.129837,187.933853 143.883057,187.975616 
	C144.561066,187.969070 145.014313,188.158218 145.007736,188.376221 
	C145.001160,188.594208 144.968521,189.029144 144.968521,189.029144 
	C142.536774,189.140030 140.105026,189.250900 137.337128,189.270172 
	C100.716187,189.147614 64.431389,189.113998 28.146595,189.102844 
	C27.331123,189.102600 26.515575,189.357727 25.341496,189.690247 
	C24.182560,189.391418 23.382191,188.896072 22.757124,188.185181 
z"/>
<path fill="#ECBE09" opacity="1.000000" stroke="none" 
	d="
M19.265028,186.990662 
	C19.018372,152.306885 19.016684,117.626465 19.343697,82.476318 
	C20.108267,82.008072 20.544138,82.009552 20.982361,82.454224 
	C20.658432,103.931198 20.332155,124.964989 20.004093,146.467560 
	C20.003515,159.625656 20.004719,172.314957 20.003832,185.336502 
	C20.001150,186.111633 20.000563,186.554520 19.999973,186.997421 
	C19.999973,186.997421 19.509998,186.994019 19.265028,186.990662 
z"/>
<path fill="#F7B70B" opacity="1.000000" stroke="none" 
	d="
M20.354641,186.998138 
	C20.000563,186.554520 20.001150,186.111633 20.359390,185.335175 
	C21.428497,185.001450 22.139956,185.001266 22.851414,185.001083 
	C22.893770,185.447052 22.936129,185.893021 22.901476,186.667572 
	C22.119413,186.997055 21.414360,186.997955 20.354641,186.998138 
z"/>
<path fill="#ECBE09" opacity="1.000000" stroke="none" 
	d="
M18.164579,188.172455 
	C18.002087,187.998917 18.495188,187.991684 18.741486,187.982666 
	C19.256371,188.113419 19.524956,188.253174 19.793539,188.392929 
	C19.304716,188.377289 18.815893,188.361633 18.164579,188.172455 
z"/>
<path fill="#F3B405" opacity="1.000000" stroke="none" 
	d="
M15.763088,208.764023 
	C15.440651,208.774094 14.917615,208.588150 14.193829,208.202759 
	C14.516214,208.191574 15.039352,208.379791 15.763088,208.764023 
z"/>
<path fill="#EDA505" opacity="1.000000" stroke="none" 
	d="
M153.006119,196.995468 
	C151.075180,195.203308 149.144257,193.411133 147.398163,191.253448 
	C148.053940,190.596054 148.524887,190.304199 149.396957,190.009079 
	C150.867844,190.012787 151.937592,190.019730 153.116425,190.131180 
	C153.225510,190.235687 153.650223,190.278946 153.650223,190.278946 
	C153.650223,190.278946 154.002441,190.010544 154.377045,190.006424 
	C155.500854,190.004807 156.250061,190.007324 157.339783,190.244217 
	C163.788345,190.319534 169.896393,190.160492 176.471008,190.001175 
	C181.956665,190.003342 186.975739,190.005768 192.107224,190.113525 
	C192.219620,190.218872 192.651138,190.247574 192.651138,190.247574 
	C192.651138,190.247574 192.983612,189.944626 192.996750,189.692139 
	C193.022888,189.271606 193.035904,189.103546 193.301865,189.044220 
	C194.037766,189.415222 194.520737,189.677475 195.003708,189.939728 
	C194.707687,191.628677 194.391556,192.962692 197.135574,192.803757 
	C198.355255,192.733124 199.676727,194.420135 201.040924,196.015472 
	C202.362625,200.100876 201.294052,201.316391 197.688782,200.739014 
	C194.775146,200.272385 191.788223,199.982239 188.842987,200.044891 
	C178.559906,200.263626 168.280823,200.669403 158.000214,201.004105 
	C158.000214,201.004105 158.000000,201.000000 157.929825,200.656281 
	C156.241806,199.206848 154.623962,198.101166 153.006119,196.995468 
z"/>
<path fill="#F1AC04" opacity="1.000000" stroke="none" 
	d="
M158.092438,201.327301 
	C168.280823,200.669403 178.559906,200.263626 188.842987,200.044891 
	C191.788223,199.982239 194.775146,200.272385 197.688782,200.739014 
	C201.294052,201.316391 202.362625,200.100876 201.066833,196.359253 
	C203.559097,198.088837 206.241318,200.047104 208.629517,202.314972 
	C210.531998,204.121613 212.075668,206.306122 213.893784,208.648071 
	C197.315063,208.979446 180.621201,208.985596 163.457230,208.984039 
	C161.386307,206.534393 159.785477,204.092453 158.092438,201.327301 
z"/>
<path fill="#FBC63E" opacity="1.000000" stroke="none" 
	d="
M195.401520,189.929382 
	C194.520737,189.677475 194.037766,189.415222 193.286987,188.828339 
	C193.019196,188.503708 192.987289,188.071198 192.924942,187.999527 
	C192.862595,187.927856 192.822189,187.742218 192.957947,187.777649 
	C193.093704,187.813065 193.369324,187.865677 193.369324,187.865677 
	C201.998764,187.901199 210.628189,187.936722 219.858917,187.985565 
	C220.460205,187.998917 220.932648,187.970490 220.932648,187.970490 
	C218.292282,188.614899 215.673264,189.681915 213.007156,189.816589 
	C207.284088,190.105682 201.536743,189.913925 195.401520,189.929382 
z"/>
<path fill="#099B65" opacity="1.000000" stroke="none" 
	d="
M220.907288,176.509064 
	C220.708801,172.558838 220.570282,168.149673 220.636261,163.391495 
	C220.882904,167.378357 220.925079,171.714249 220.907288,176.509064 
z"/>
<path fill="#E99B08" opacity="1.000000" stroke="none" 
	d="
M232.959137,208.045792 
	C232.184296,208.491409 231.009995,208.932449 229.437454,209.360153 
	C230.212692,208.911621 231.386169,208.476425 232.959137,208.045792 
z"/>
<path fill="#099B65" opacity="1.000000" stroke="none" 
	d="
M220.958832,187.576691 
	C220.932648,187.970490 220.460205,187.998917 220.234375,187.928223 
	C220.162628,186.765594 220.316727,185.673676 220.663467,184.311890 
	C220.899078,185.088989 220.942047,186.135941 220.958832,187.576691 
z"/>
<path fill="#23A565" opacity="1.000000" stroke="none" 
	d="
M23.175030,25.081562 
	C22.959572,24.442553 22.744112,23.803545 23.096375,23.040333 
	C24.133913,22.985382 24.603727,23.054632 25.415983,23.341908 
	C27.732395,23.707304 29.706079,23.978306 31.680374,23.982807 
	C50.118935,24.024860 68.557602,24.021191 86.997116,24.455452 
	C86.341942,27.323673 86.404480,31.152775 84.888809,31.938839 
	C81.055733,33.926777 80.937950,36.725269 80.965691,40.152786 
	C80.997070,44.028828 81.771332,47.827682 76.000221,49.409119 
	C73.034752,50.221737 71.062820,54.445766 68.496819,56.981361 
	C64.767181,60.666794 60.892616,64.205315 57.129356,67.857491 
	C56.846237,68.132256 57.142620,69.011505 56.858597,69.276886 
	C52.972569,72.907822 48.644428,76.102341 45.779129,80.729721 
	C45.662212,80.918541 45.150845,80.928513 44.827839,80.914688 
	C37.895645,80.617912 30.964106,80.305824 24.027016,79.528275 
	C24.012960,62.999573 24.031878,46.939159 23.959642,30.879154 
	C23.950945,28.945486 23.448584,27.014038 23.175030,25.081562 
z"/>
<path fill="#F5BA15" opacity="1.000000" stroke="none" 
	d="
M13.380541,3.306555 
	C13.306029,2.925146 13.519713,2.747721 13.861050,2.405504 
	C35.696918,2.218570 57.393593,2.182534 79.604713,2.552447 
	C83.144577,4.007160 86.169998,5.055923 88.918167,6.008577 
	C89.272499,9.940233 89.635643,13.969600 89.703339,18.078644 
	C88.942001,18.770218 88.476097,19.382111 87.603928,19.971586 
	C80.457291,19.351564 73.721428,18.365511 66.975014,18.287014 
	C62.127548,18.230612 57.277180,19.779535 52.408348,19.918163 
	C42.614449,20.197020 32.807053,20.001886 23.005224,20.002333 
	C24.095617,19.278427 25.159370,17.981668 26.281002,17.929506 
	C31.210402,17.700272 36.156521,17.830616 40.808186,17.830616 
	C41.243717,13.676712 41.615917,10.126827 42.063507,5.857914 
	C32.855385,5.100883 23.267830,4.312658 13.380541,3.306555 
z"/>
<path fill="#EEB917" opacity="1.000000" stroke="none" 
	d="
M23.002941,20.328554 
	C32.807053,20.001886 42.614449,20.197020 52.408348,19.918163 
	C57.277180,19.779535 62.127548,18.230612 66.975014,18.287014 
	C73.721428,18.365511 80.457291,19.351564 88.071396,19.972178 
	C123.629105,19.997601 158.313080,20.000013 192.997055,20.002424 
	C193.269943,20.171801 193.509430,20.379662 193.385101,20.823099 
	C183.270447,21.336353 173.486694,21.906153 163.701859,21.925566 
	C116.805206,22.018608 69.908241,21.962700 23.011389,21.959713 
	C23.007811,21.524734 23.004232,21.089754 23.002941,20.328554 
z"/>
<path fill="#D8A310" opacity="1.000000" stroke="none" 
	d="
M22.994858,22.177010 
	C69.908241,21.962700 116.805206,22.018608 163.701859,21.925566 
	C173.486694,21.906153 183.270447,21.336353 193.522156,21.018456 
	C201.442062,20.847132 208.894485,20.677544 216.674438,20.253944 
	C217.001968,19.999933 217.043793,20.032677 217.043793,20.032677 
	C218.174469,20.434000 219.305145,20.835321 220.712128,21.470341 
	C220.980240,22.161888 220.972061,22.619740 220.499207,23.034607 
	C199.689682,23.049904 179.344818,23.108187 158.536072,23.096375 
	C113.739319,23.058815 69.406425,23.091347 25.073540,23.123880 
	C24.603727,23.054632 24.133913,22.985382 23.308596,22.872776 
	C22.953091,22.829422 22.978327,22.394306 22.994858,22.177010 
z"/>
<path fill="#08A460" opacity="1.000000" stroke="none" 
	d="
M23.080000,25.094231 
	C23.448584,27.014038 23.950945,28.945486 23.959642,30.879154 
	C24.031878,46.939159 24.012960,62.999573 24.017578,79.997139 
	C24.007399,94.290733 24.001232,107.647057 23.995068,121.003372 
	C23.995066,121.003372 23.582996,121.004669 23.308329,120.540527 
	C22.973633,107.235870 22.913607,94.395370 22.921665,81.174362 
	C22.920523,73.128593 22.851292,65.463318 22.782063,57.798046 
	C22.808823,52.261444 22.835583,46.724842 22.933485,40.515251 
	C22.957560,38.034176 22.910494,36.226089 22.863428,34.418003 
	C22.905634,31.886347 22.947840,29.354692 22.968407,26.151562 
	C22.908936,25.316603 22.871098,25.153120 22.833261,24.989639 
	C22.833261,24.989639 22.984970,25.106901 23.080000,25.094231 
z"/>
<path fill="#F2BB14" opacity="1.000000" stroke="none" 
	d="
M22.514135,34.289505 
	C22.910494,36.226089 22.957560,38.034176 22.900471,40.055359 
	C21.542179,38.897324 19.499075,37.676949 19.202122,36.122913 
	C18.626732,33.111740 19.033911,29.912817 18.002527,26.754305 
	C18.002527,28.884022 18.002527,31.013739 18.001034,33.572567 
	C17.832001,34.001450 17.664461,34.001221 17.245543,33.999882 
	C16.994162,30.098536 16.994162,26.198301 16.994162,22.298069 
	C17.556274,22.148193 18.118387,21.998318 18.680498,21.848442 
	C19.448538,24.349480 20.248920,26.841204 20.972853,29.354944 
	C21.429317,30.939934 21.771433,32.557854 22.514135,34.289505 
z"/>
<path fill="#F3C12D" opacity="1.000000" stroke="none" 
	d="
M8.164124,4.925483 
	C8.658956,4.275931 9.502808,3.637328 10.675903,3.027053 
	C10.174480,3.682398 9.343813,4.309414 8.164124,4.925483 
z"/>
<path fill="#FFBC0E" opacity="1.000000" stroke="none" 
	d="
M22.746054,25.102936 
	C22.871098,25.153120 22.908936,25.316603 22.896549,25.726700 
	C22.602444,25.755268 22.539949,25.502909 22.746054,25.102936 
z"/>
<path fill="#F2BB14" opacity="1.000000" stroke="none" 
	d="
M17.764610,57.339699 
	C18.000803,67.352966 18.001198,77.706551 17.999550,88.528389 
	C17.664423,85.942657 17.051563,82.888458 17.053862,79.834732 
	C17.059418,72.449722 17.351961,65.064919 17.764610,57.339699 
z"/>
<path fill="#F4B80D" opacity="1.000000" stroke="none" 
	d="
M169.563614,2.189842 
	C172.465820,4.283130 174.708740,7.707629 177.369202,8.070458 
	C183.373184,8.889269 185.053238,13.475134 187.431488,17.666553 
	C170.707947,17.998945 154.353668,17.999474 137.875061,17.653793 
	C134.848770,16.538383 131.910126,15.022462 129.052902,15.162917 
	C123.873680,15.417515 122.111481,12.990366 121.294197,8.445240 
	C121.059692,7.141093 119.215523,5.429070 117.866142,5.169724 
	C115.163010,4.650195 112.265015,5.233388 109.500847,4.907931 
	C107.941589,4.724341 106.488586,3.638221 104.987724,2.958655 
	C105.735733,2.925812 106.483742,2.892970 107.602631,2.807233 
	C125.859558,2.522168 143.745514,2.283433 161.631729,2.065392 
	C164.118469,2.035077 166.606445,2.106771 169.563614,2.189842 
z"/>
<path fill="#F5B911" opacity="1.000000" stroke="none" 
	d="
M104.523743,2.949043 
	C106.488586,3.638221 107.941589,4.724341 109.500847,4.907931 
	C112.265015,5.233388 115.163010,4.650195 117.866142,5.169724 
	C119.215523,5.429070 121.059692,7.141093 121.294197,8.445240 
	C122.111481,12.990366 123.873680,15.417515 129.052902,15.162917 
	C131.910126,15.022462 134.848770,16.538383 137.406464,17.653851 
	C121.374413,17.999733 105.686592,17.999350 89.998779,17.998966 
	C89.635643,13.969600 89.272499,9.940233 88.918167,6.008577 
	C86.169998,5.055923 83.144577,4.007160 80.073433,2.591878 
	C88.038399,2.463384 96.049080,2.701408 104.523743,2.949043 
z"/>
<path fill="#1BA260" opacity="1.000000" stroke="none" 
	d="
M199.989716,24.022060 
	C200.326355,27.472618 200.707916,30.919542 200.987228,34.374733 
	C201.276566,37.954041 200.965866,40.747196 196.195786,41.407761 
	C193.005112,41.849609 192.200729,44.721764 194.112671,47.584732 
	C196.510956,51.175922 196.472015,54.589359 194.271530,58.304142 
	C193.403137,59.770107 193.154373,61.734081 193.052139,63.496151 
	C192.827225,67.373512 193.258270,70.868591 189.514221,74.155792 
	C186.900940,76.450211 186.526230,81.264603 185.075943,84.923409 
	C184.037567,87.543114 182.873932,90.113167 181.766174,92.705360 
	C181.237610,92.739479 180.709061,92.773598 180.180511,92.807716 
	C179.160065,91.091461 177.974197,89.450661 177.150406,87.644691 
	C174.751862,82.386398 170.119507,81.374031 165.730560,85.758560 
	C156.841415,88.547768 152.980453,92.554474 154.113098,99.479691 
	C154.703308,103.088348 157.502319,106.335747 159.036057,109.966408 
	C157.941223,110.574524 156.813141,111.521538 156.333618,111.263474 
	C151.916656,108.886345 151.327576,111.695740 150.860977,115.153595 
	C150.162216,116.130188 149.601852,116.945274 148.708923,117.661591 
	C144.081131,115.824821 139.785904,114.086823 135.704193,112.101173 
	C133.859131,108.509766 131.362976,110.033981 128.452606,111.194366 
	C125.328445,111.061378 122.648666,110.956482 119.643982,110.653229 
	C117.082176,110.109970 114.837128,109.489639 112.612350,109.555405 
	C111.719398,109.581810 110.871025,111.115913 109.680374,112.156738 
	C102.917282,115.246727 96.476181,118.143761 89.660973,120.903351 
	C81.171944,118.709496 73.069550,118.113701 65.002533,120.625366 
	C65.669479,119.378937 66.267891,118.425156 67.008423,117.598732 
	C67.859703,116.648743 68.836761,115.811470 70.049339,114.646469 
	C71.724060,113.640289 73.864365,112.354385 76.419357,111.039963 
	C86.328499,110.551765 91.510269,104.534485 89.991104,95.900131 
	C89.064484,90.633621 85.062195,88.414032 81.067619,85.932487 
	C82.586906,85.023293 84.668648,83.563942 85.203072,84.000175 
	C87.018906,85.482391 88.059456,87.887161 89.815964,89.475189 
	C93.047890,92.397125 96.419098,95.243095 100.093559,97.543663 
	C101.036995,98.134346 103.328842,96.571350 105.312843,96.135269 
	C107.385475,96.192009 109.146492,96.111252 111.241226,96.157745 
	C123.224846,104.075890 137.134094,98.184135 138.474564,84.890724 
	C139.279602,76.907097 134.554153,70.611565 124.896454,66.611450 
	C121.776855,63.303623 120.832733,60.327045 124.389587,56.966911 
	C125.256432,56.148003 125.301376,54.522202 126.036186,53.489338 
	C129.025650,49.287312 128.436829,42.301376 135.725723,41.281746 
	C136.665741,41.150249 137.782501,38.486645 137.890656,36.931534 
	C138.188766,32.645046 137.995087,28.324362 138.464844,24.011696 
	C145.624985,23.996965 152.316208,23.987741 159.475601,23.982418 
	C173.292435,23.998234 186.641068,24.010147 199.989716,24.022060 
M132.164490,65.515511 
	C132.164490,65.515511 131.874634,65.422043 131.874634,65.422043 
	C131.874634,65.422043 132.058578,65.634483 132.164490,65.515511 
M129.471024,66.496048 
	C129.471024,66.496048 129.513718,66.479500 129.471024,66.496048 
z"/>
<path fill="#19A15F" opacity="1.000000" stroke="none" 
	d="
M89.009148,186.982468 
	C81.315086,186.984848 73.621025,186.987213 65.117485,186.753983 
	C51.204887,186.354263 38.101772,186.190170 24.998653,186.026062 
	C24.667309,181.135620 24.236221,176.249222 24.036711,171.353394 
	C23.881794,167.551849 24.015879,163.738541 24.443989,159.491089 
	C28.635000,159.356384 32.407707,159.897995 36.169701,159.831711 
	C37.414169,159.809799 39.584141,158.331802 39.700092,157.330688 
	C40.288063,152.254166 43.578178,151.830429 47.543766,151.979797 
	C50.349808,152.085495 53.163052,152.001968 55.973080,151.999573 
	C63.950596,151.992783 63.950596,151.992126 64.477478,144.074402 
	C71.313774,144.010498 77.683884,143.985580 84.303299,143.975922 
	C84.552589,143.991180 85.026871,144.147934 85.380112,144.355606 
	C95.155006,144.712463 104.576675,144.861649 113.998337,145.010834 
	C114.107300,151.890381 114.243721,151.410461 120.954254,152.155258 
	C127.723122,152.906540 134.352615,154.913498 141.087479,157.239288 
	C140.120468,157.490555 139.130600,158.023026 138.190247,157.946548 
	C132.868790,157.513763 128.813873,159.226486 126.262527,164.168915 
	C125.824188,165.018051 124.512154,165.764938 123.509796,165.909988 
	C120.262321,166.379974 118.460457,168.025864 117.972801,171.294205 
	C117.402077,175.119232 114.288490,173.852524 112.044144,173.966461 
	C104.815575,174.333511 101.316963,178.556610 102.469543,185.630524 
	C97.719086,186.327591 93.364120,186.655029 89.009148,186.982468 
z"/>
<path fill="#F5F7F6" opacity="1.000000" stroke="none" 
	d="
M85.026871,144.147949 
	C85.026871,144.147934 84.552589,143.991180 84.157135,143.587753 
	C82.921661,134.972733 82.814232,126.968689 90.035080,121.040787 
	C96.476181,118.143761 102.917282,115.246727 110.090973,112.195236 
	C113.872002,111.644379 116.920441,111.247978 119.968887,110.851585 
	C122.648666,110.956482 125.328445,111.061378 128.690750,111.496872 
	C131.412415,112.001259 133.451538,112.175034 135.490677,112.348816 
	C139.785904,114.086823 144.081131,115.824821 148.978745,117.866867 
	C151.293137,119.242493 153.005127,120.314072 154.837097,121.698685 
	C161.781647,127.979752 160.678513,136.062866 160.776871,143.825409 
	C159.437744,143.885605 158.098602,143.945801 155.902405,144.009644 
	C131.705841,144.058182 108.366356,144.103058 85.026871,144.147949 
z"/>
<path fill="#5BBE8E" opacity="1.000000" stroke="none" 
	d="
M161.258636,143.863098 
	C160.678513,136.062866 161.781647,127.979752 155.173874,121.477951 
	C157.927322,120.297569 160.463959,119.650963 163.447281,119.036591 
	C166.554520,119.134132 169.215088,119.199455 171.875656,119.264786 
	C177.462219,121.657562 183.275757,123.640900 188.563766,126.572250 
	C192.819824,128.931549 195.012894,138.114075 192.751328,142.231750 
	C192.188110,143.257187 190.052505,143.877274 188.628662,143.897079 
	C179.667633,144.021851 170.703506,143.924622 161.258636,143.863098 
z"/>
<path fill="#F0F0F0" opacity="1.000000" stroke="none" 
	d="
M193.426849,187.427719 
	C193.369324,187.865677 193.093704,187.813065 192.615204,187.582825 
	C178.421051,187.236069 164.704803,187.159805 150.990295,186.963104 
	C148.721756,186.930557 146.460785,186.371201 144.196320,186.055313 
	C144.196320,183.246902 144.196320,180.438492 144.196320,177.006409 
	C149.540924,177.006409 154.811432,177.006409 161.009827,176.994446 
	C172.290222,176.960739 182.642700,176.938980 192.995178,176.917206 
	C193.158249,180.274734 193.321304,183.632248 193.426849,187.427719 
z"/>
<path fill="#5BBE8E" opacity="1.000000" stroke="none" 
	d="
M159.303650,109.746323 
	C157.502319,106.335747 154.703308,103.088348 154.113098,99.479691 
	C152.980453,92.554474 156.841415,88.547768 165.638779,86.081024 
	C175.602585,88.078636 178.485733,91.937706 177.688873,102.675911 
	C172.705612,111.138939 169.299026,112.335938 159.303650,109.746323 
z"/>
<path fill="#19A15F" opacity="1.000000" stroke="none" 
	d="
M159.036057,109.966408 
	C169.299026,112.335938 172.705612,111.138939 177.653717,103.110352 
	C179.271683,102.281326 180.678513,101.714645 182.373688,101.031815 
	C182.917114,102.638306 183.517929,104.609871 184.248520,106.532112 
	C185.614639,110.126419 184.290894,111.775253 180.732483,113.095520 
	C177.606903,114.255196 174.942749,116.658524 171.975235,118.888672 
	C169.215088,119.199455 166.554520,119.134132 163.372711,118.693314 
	C161.254425,114.309174 158.282806,117.441231 155.882797,116.670418 
	C154.510864,115.896263 153.255417,115.450470 151.749817,115.001938 
	C151.332886,114.996834 151.166138,114.994453 150.999374,114.992081 
	C151.327576,111.695740 151.916656,108.886345 156.333618,111.263474 
	C156.813141,111.521538 157.941223,110.574524 159.036057,109.966408 
M162.164062,112.516319 
	C162.164062,112.516319 161.875412,112.423264 161.875412,112.423264 
	C161.875412,112.423264 162.058594,112.634789 162.164062,112.516319 
z"/>
<path fill="#02A35C" opacity="1.000000" stroke="none" 
	d="
M85.380112,144.355621 
	C108.366356,144.103058 131.705841,144.058182 155.506836,144.084961 
	C153.706436,144.437943 151.446167,144.945801 149.182312,144.962357 
	C137.767395,145.045883 126.351524,145.001373 114.467163,145.006317 
	C104.576675,144.861649 95.155006,144.712463 85.380112,144.355621 
z"/>
<path fill="#ECFAF9" opacity="1.000000" stroke="none" 
	d="
M144.132538,186.348755 
	C146.460785,186.371201 148.721756,186.930557 150.990295,186.963104 
	C164.704803,187.159805 178.421051,187.236069 192.479462,187.547409 
	C192.822189,187.742218 192.862595,187.927856 192.527847,188.135773 
	C190.602783,188.564865 189.009064,188.999237 187.422684,188.973907 
	C173.285828,188.748169 159.150253,188.441238 145.014313,188.158218 
	C145.014313,188.158218 144.561066,187.969070 144.323578,187.906647 
	C144.080322,187.443558 144.074539,187.042877 144.132538,186.348755 
z"/>
<path fill="#099C56" opacity="1.000000" stroke="none" 
	d="
M192.911621,176.629089 
	C182.642700,176.938980 172.290222,176.960739 161.473267,176.920410 
	C162.730148,176.240677 164.439499,175.131897 166.174911,175.089478 
	C174.132584,174.895020 182.097549,174.998901 190.528168,174.994293 
	C191.606964,175.442261 192.217514,175.891602 192.911621,176.629089 
z"/>
<path fill="#02A35C" opacity="1.000000" stroke="none" 
	d="
M200.459015,24.014668 
	C186.641068,24.010147 173.292435,23.998234 159.473602,23.779535 
	C159.003403,23.572750 158.999939,23.166468 158.999939,23.166468 
	C179.344818,23.108187 199.689682,23.049904 220.502304,23.270325 
	C220.970047,23.549028 220.842987,24.003065 220.540146,24.001204 
	C219.833862,23.997198 219.430405,23.995054 219.026962,23.992910 
	C212.994080,23.997700 206.961212,24.002489 200.459015,24.014668 
z"/>
<path fill="#1AA055" opacity="1.000000" stroke="none" 
	d="
M89.476715,186.987183 
	C93.364120,186.655029 97.719086,186.327591 102.537033,185.999786 
	C114.292229,186.154572 125.584450,186.309753 136.933563,186.741699 
	C121.308388,187.009598 105.626335,187.000748 89.476715,186.987183 
z"/>
<path fill="#099B65" opacity="1.000000" stroke="none" 
	d="
M219.204773,24.192387 
	C219.430405,23.995054 219.833862,23.997198 220.619171,24.262234 
	C221.051529,24.699831 221.102036,24.874537 221.152527,25.049242 
	C221.152527,25.049242 221.020004,24.952133 220.937866,24.952042 
	C220.364670,24.765255 219.873611,24.578560 219.204773,24.192387 
z"/>
<path fill="#FAB50B" opacity="1.000000" stroke="none" 
	d="
M89.703339,18.078644 
	C105.686592,17.999350 121.374413,17.999733 137.530807,18.000057 
	C154.353668,17.999474 170.707947,17.998945 187.530807,17.997782 
	C189.581955,18.439808 191.164520,18.882469 192.872070,19.663776 
	C158.313080,20.000013 123.629105,19.997601 88.477661,19.994596 
	C88.476097,19.382111 88.942001,18.770218 89.703339,18.078644 
z"/>
<path fill="#FAB50B" opacity="1.000000" stroke="none" 
	d="
M217.017914,20.018402 
	C211.753342,20.036871 206.472824,20.036871 201.192307,20.036871 
	C201.193130,19.424219 201.193939,18.811567 201.194763,18.198915 
	C206.368454,18.420801 211.529861,16.613836 216.881165,19.670204 
	C217.043793,20.032677 217.001968,19.999933 217.017914,20.018402 
z"/>
<path fill="#F4B604" opacity="1.000000" stroke="none" 
	d="
M221.439682,24.940054 
	C221.102036,24.874537 221.051529,24.699831 220.922012,24.264095 
	C220.842987,24.003065 220.970047,23.549028 220.966949,23.313309 
	C220.972061,22.619740 220.980240,22.161888 220.977600,21.360880 
	C221.220123,22.288769 221.473480,23.559818 221.439682,24.940054 
z"/>
<path fill="#F0A525" opacity="1.000000" stroke="none" 
	d="
M145.007736,188.376221 
	C159.150253,188.441238 173.285828,188.748169 187.422684,188.973907 
	C189.009064,188.999237 190.602783,188.564865 192.590195,188.207428 
	C192.987289,188.071198 193.019196,188.503708 193.034058,188.719604 
	C193.035904,189.103546 193.022888,189.271606 192.749695,189.709900 
	C192.489517,189.980133 191.994827,190.008194 191.994827,190.008194 
	C186.975739,190.005768 181.956665,190.003342 176.002258,189.996094 
	C169.044403,189.997452 163.021835,190.003647 156.999283,190.009842 
	C156.250061,190.007324 155.500854,190.004807 154.128204,190.006302 
	C153.504761,190.010300 153.007339,190.026688 153.007339,190.026672 
	C151.937592,190.019730 150.867844,190.012787 149.000610,190.003433 
	C147.147400,189.999939 146.091675,189.998825 145.035950,189.997726 
	C145.035950,189.997726 145.004578,189.513046 144.986542,189.271088 
	C144.968521,189.029144 145.001160,188.594208 145.007736,188.376221 
z"/>
<path fill="#F1AC04" opacity="1.000000" stroke="none" 
	d="
M153.171936,197.281067 
	C154.623962,198.101166 156.241806,199.206848 157.927765,200.656235 
	C156.443161,199.855515 154.890457,198.711105 153.171936,197.281067 
z"/>
<path fill="#E99B08" opacity="1.000000" stroke="none" 
	d="
M145.236862,190.199677 
	C146.091675,189.998825 147.147400,189.999939 148.599472,190.006683 
	C148.524887,190.304199 148.053940,190.596054 147.305145,190.935440 
	C146.497452,190.789200 145.967606,190.595413 145.236862,190.199677 
z"/>
<path fill="#EABA08" opacity="1.000000" stroke="none" 
	d="
M136.112061,192.111160 
	C136.006165,192.004013 136.497955,192.005676 136.743683,192.007492 
	C136.989410,192.009308 136.637619,192.272614 136.637619,192.272614 
	C136.637619,192.272614 136.217972,192.218307 136.112061,192.111160 
z"/>
<path fill="#1EA463" opacity="1.000000" stroke="none" 
	d="
M64.011299,144.113373 
	C63.950596,151.992126 63.950596,151.992783 55.973080,151.999573 
	C53.163052,152.001968 50.349808,152.085495 47.543766,151.979797 
	C43.578178,151.830429 40.288063,152.254166 39.700092,157.330688 
	C39.584141,158.331802 37.414169,159.809799 36.169701,159.831711 
	C32.407707,159.897995 28.635000,159.356384 24.452053,159.022003 
	C24.025753,146.641495 24.013868,134.290695 23.998526,121.471634 
	C24.001232,107.647057 24.007399,94.290733 24.023003,80.465561 
	C30.964106,80.305824 37.895645,80.617912 44.827839,80.914688 
	C45.150845,80.928513 45.662212,80.918541 45.779129,80.729721 
	C48.644428,76.102341 52.972569,72.907822 56.858597,69.276886 
	C57.142620,69.011505 56.846237,68.132256 57.129356,67.857491 
	C60.892616,64.205315 64.767181,60.666794 68.496819,56.981361 
	C71.062820,54.445766 73.034752,50.221737 76.000221,49.409119 
	C81.771332,47.827682 80.997070,44.028828 80.965691,40.152786 
	C80.937950,36.725269 81.055733,33.926777 84.888809,31.938839 
	C86.404480,31.152775 86.341942,27.323673 87.466125,24.445797 
	C104.621475,24.013371 121.308701,24.015287 137.995926,24.017204 
	C137.995087,28.324362 138.188766,32.645046 137.890656,36.931534 
	C137.782501,38.486645 136.665741,41.150249 135.725723,41.281746 
	C128.436829,42.301376 129.025650,49.287312 126.036186,53.489338 
	C125.301376,54.522202 125.256432,56.148003 124.389587,56.966911 
	C120.832733,60.327045 121.776855,63.303623 124.497284,66.655006 
	C123.137199,66.966972 122.070366,66.904655 120.844894,66.508270 
	C116.526741,63.760132 112.691216,65.084862 109.142784,67.452751 
	C105.352875,69.981773 101.998360,83.681038 103.545837,88.342949 
	C104.356903,90.786362 104.536469,93.439392 105.001221,95.997765 
	C103.328842,96.571350 101.036995,98.134346 100.093559,97.543663 
	C96.419098,95.243095 93.047890,92.397125 89.815964,89.475189 
	C88.059456,87.887161 87.018906,85.482391 85.203072,84.000175 
	C84.668648,83.563942 82.586906,85.023293 80.666573,85.894150 
	C71.937248,86.499664 67.085022,89.947105 66.080338,96.148567 
	C64.903595,103.412170 68.107651,108.229050 76.004669,111.068481 
	C73.864365,112.354385 71.724060,113.640289 70.049339,114.646469 
	C68.836761,115.811470 67.859703,116.648743 67.008423,117.598732 
	C66.267891,118.425156 65.669479,119.378937 64.748413,120.860077 
	C62.846600,122.211769 61.186623,122.943794 59.565891,123.754311 
	C53.645061,126.715263 50.199265,131.117218 50.067287,138.128098 
	C49.980297,142.749130 51.597206,144.434402 56.099606,144.023392 
	C58.712326,143.784882 61.372486,144.066055 64.011299,144.113373 
z"/>
<path fill="#F7B70B" opacity="1.000000" stroke="none" 
	d="
M22.853579,81.554863 
	C22.913607,94.395370 22.973633,107.235870 23.102293,120.541122 
	C23.110760,129.027222 23.050594,137.048569 22.568096,145.534912 
	C21.432470,145.999527 20.719173,145.999161 20.005878,145.998779 
	C20.332155,124.964989 20.658432,103.931198 21.452934,82.348557 
	C22.231966,81.718079 22.542772,81.636467 22.853579,81.554863 
z"/>
<path fill="#F3B609" opacity="1.000000" stroke="none" 
	d="
M20.004095,146.467560 
	C20.719173,145.999161 21.432470,145.999527 22.502508,145.999451 
	C22.903051,158.690262 22.946852,171.381531 22.921032,184.536957 
	C22.139956,185.001266 21.428497,185.001450 20.361481,185.002960 
	C20.004719,172.314957 20.003515,159.625656 20.004095,146.467560 
z"/>
<path fill="#1AA055" opacity="1.000000" stroke="none" 
	d="
M25.340042,186.258438 
	C38.101772,186.190170 51.204887,186.354263 64.648125,186.750458 
	C51.885971,186.818649 38.783703,186.654724 25.340042,186.258438 
z"/>
<path fill="#F2BB14" opacity="1.000000" stroke="none" 
	d="
M22.921665,81.174362 
	C22.542772,81.636467 22.231966,81.718079 21.450584,81.905365 
	C20.544138,82.009552 20.108267,82.008072 19.345661,82.008293 
	C19.013407,75.723297 18.825081,69.428085 19.117216,63.155254 
	C19.201468,61.346169 20.668314,59.601475 22.141674,57.812653 
	C22.851292,65.463318 22.920523,73.128593 22.921665,81.174362 
z"/>
<path fill="#E99B08" opacity="1.000000" stroke="none" 
	d="
M157.339783,190.244217 
	C163.021835,190.003647 169.044403,189.997452 175.535706,189.996368 
	C169.896393,190.160492 163.788345,190.319534 157.339783,190.244217 
z"/>
<path fill="#E99B08" opacity="1.000000" stroke="none" 
	d="
M192.107224,190.113525 
	C191.994827,190.008194 192.489517,189.980133 192.736572,189.962372 
	C192.983612,189.944626 192.651138,190.247574 192.651138,190.247574 
	C192.651138,190.247574 192.219620,190.218872 192.107224,190.113525 
z"/>
<path fill="#E99B08" opacity="1.000000" stroke="none" 
	d="
M153.116425,190.131195 
	C153.007339,190.026688 153.504761,190.010300 153.753601,190.010422 
	C154.002441,190.010544 153.650223,190.278946 153.650223,190.278946 
	C153.650223,190.278946 153.225510,190.235687 153.116425,190.131195 
z"/>
<path fill="#08A460" opacity="1.000000" stroke="none" 
	d="
M138.464844,24.011696 
	C121.308701,24.015287 104.621475,24.013371 87.465240,24.021107 
	C68.557602,24.021191 50.118935,24.024860 31.680374,23.982807 
	C29.706079,23.978306 27.732395,23.707304 25.415983,23.341904 
	C69.406425,23.091347 113.739319,23.058815 158.536072,23.096375 
	C158.999939,23.166468 159.003403,23.572750 159.005402,23.775635 
	C152.316208,23.987741 145.624985,23.996965 138.464844,24.011696 
z"/>
<path fill="#F4F6F5" opacity="1.000000" stroke="none" 
	d="
M121.003525,66.842339 
	C122.070366,66.904655 123.137199,66.966972 124.603210,66.985733 
	C134.554153,70.611565 139.279602,76.907097 138.474564,84.890724 
	C137.134094,98.184135 123.224846,104.075890 111.088760,95.852829 
	C100.623329,85.710190 106.043114,68.524155 121.003525,66.842339 
z"/>
<path fill="#60BE91" opacity="1.000000" stroke="none" 
	d="
M64.477478,144.074402 
	C61.372486,144.066055 58.712326,143.784882 56.099606,144.023392 
	C51.597206,144.434402 49.980297,142.749130 50.067287,138.128098 
	C50.199265,131.117218 53.645061,126.715263 59.565891,123.754311 
	C61.186623,122.943794 62.846600,122.211769 64.742691,121.209000 
	C73.069550,118.113701 81.171944,118.709496 89.660965,120.903351 
	C82.814232,126.968689 82.921661,134.972733 83.907845,143.572495 
	C77.683884,143.985580 71.313774,144.010498 64.477478,144.074402 
z"/>
<path fill="#60BE91" opacity="1.000000" stroke="none" 
	d="
M76.419357,111.039963 
	C68.107651,108.229050 64.903595,103.412170 66.080338,96.148567 
	C67.085022,89.947105 71.937248,86.499664 80.519905,86.212730 
	C85.062195,88.414032 89.064484,90.633621 89.991104,95.900131 
	C91.510269,104.534485 86.328499,110.551765 76.419357,111.039963 
z"/>
<path fill="#23A565" opacity="1.000000" stroke="none" 
	d="
M120.844894,66.508270 
	C106.043114,68.524155 100.623329,85.710190 110.755028,95.725578 
	C109.146492,96.111252 107.385475,96.192009 105.312851,96.135269 
	C104.536469,93.439392 104.356903,90.786362 103.545837,88.342949 
	C101.998360,83.681038 105.352875,69.981773 109.142784,67.452751 
	C112.691216,65.084862 116.526741,63.760132 120.844894,66.508270 
z"/>
<path fill="#159F5D" opacity="1.000000" stroke="none" 
	d="
M155.999283,116.998779 
	C158.282806,117.441231 161.254425,114.309174 162.926025,118.661087 
	C160.463959,119.650963 157.927322,120.297569 155.053894,121.164917 
	C153.005127,120.314072 151.293137,119.242493 149.311310,117.965637 
	C149.601852,116.945274 150.162216,116.130188 150.860977,115.153595 
	C151.166138,114.994453 151.332886,114.996834 151.936890,115.282471 
	C153.582520,116.043419 154.790894,116.521103 155.999283,116.998779 
z"/>
<path fill="#099C56" opacity="1.000000" stroke="none" 
	d="
M119.643982,110.653229 
	C116.920441,111.247978 113.872002,111.644379 110.412956,112.002281 
	C110.871025,111.115913 111.719398,109.581810 112.612350,109.555405 
	C114.837128,109.489639 117.082176,110.109970 119.643982,110.653229 
z"/>
<path fill="#099C56" opacity="1.000000" stroke="none" 
	d="
M135.704193,112.101173 
	C133.451538,112.175034 131.412415,112.001259 129.135132,111.524979 
	C131.362976,110.033981 133.859131,108.509766 135.704193,112.101173 
z"/>
<path fill="#1EA463" opacity="1.000000" stroke="none" 
	d="
M132.111542,65.574997 
	C132.058578,65.634483 131.874634,65.422043 131.874634,65.422043 
	C131.874634,65.422043 132.164490,65.515511 132.111542,65.574997 
z"/>
<path fill="#1EA463" opacity="1.000000" stroke="none" 
	d="
M129.492371,66.487778 
	C129.513718,66.479500 129.471024,66.496048 129.492371,66.487778 
z"/>
<path fill="#1BA260" opacity="1.000000" stroke="none" 
	d="
M155.882797,116.670418 
	C154.790894,116.521103 153.582520,116.043419 152.187042,115.285202 
	C153.255417,115.450470 154.510864,115.896263 155.882797,116.670418 
z"/>
<path fill="#1BA260" opacity="1.000000" stroke="none" 
	d="
M162.111328,112.575554 
	C162.058594,112.634789 161.875412,112.423264 161.875412,112.423264 
	C161.875412,112.423264 162.164062,112.516319 162.111328,112.575554 
z"/>
</svg>