<svg version="1.1" id="Layer_1" xmlns="http://www.w3.org/2000/svg" xmlns:xlink="http://www.w3.org/1999/xlink" x="0px" y="0px"
	 width="100%" viewBox="0 0 303 237" enable-background="new 0 0 303 237" xml:space="preserve">
<path fill="#2E77A3" opacity="1.000000" stroke="none" 
	d="
M184.000000,238.000000 
	C122.666672,238.000000 61.833347,238.000000 1.000016,238.000000 
	C1.000011,159.000015 1.000011,80.000031 1.000005,1.000038 
	C101.999969,1.000025 202.999939,1.000025 303.999939,1.000013 
	C303.999939,79.999962 303.999939,158.999924 303.999969,237.999939 
	C264.166656,238.000000 224.333328,238.000000 184.000000,238.000000 
M204.854538,171.811615 
	C211.367996,170.467865 207.556946,177.015793 210.513458,179.524796 
	C210.513458,173.580017 210.513458,168.470474 210.513458,163.360947 
	C210.139053,163.332520 209.764633,163.304092 209.390228,163.275665 
	C209.135818,165.407059 208.881409,167.538467 208.595688,169.932236 
	C206.939056,169.932236 205.477554,169.932236 204.007660,169.091507 
	C203.828720,167.211853 203.649780,165.332184 203.470840,163.452530 
	C203.212234,163.513458 202.953629,163.574371 202.695023,163.635300 
	C202.695023,168.850235 202.695023,174.065155 202.695023,179.280075 
	C203.126480,179.268478 203.557922,179.256882 203.989380,179.245285 
	C203.989380,176.812592 203.989380,174.379883 204.854538,171.811615 
M225.499908,150.233826 
	C232.993439,150.228119 240.490158,150.360382 247.979858,150.188080 
	C263.712219,149.826187 275.435516,137.797318 275.286255,122.355865 
	C275.137360,106.958679 263.148743,95.191513 247.413544,95.047188 
	C239.420822,94.973869 231.425201,95.081703 223.435028,94.912415 
	C217.578171,94.788322 213.747055,90.320656 214.990311,85.120125 
	C216.081589,80.555374 219.335358,78.782707 223.897827,78.801216 
	C237.386063,78.855942 250.875610,78.906448 264.362762,78.770531 
	C271.000946,78.703644 275.278412,74.635170 275.261719,68.926636 
	C275.244751,63.126583 270.967102,59.156086 264.403137,59.124523 
	C250.415405,59.057259 236.424774,58.943153 222.439713,59.147987 
	C206.292068,59.384491 193.727890,73.339592 195.153336,89.102715 
	C196.454666,103.493324 208.085526,114.140770 223.082245,114.470459 
	C231.404419,114.653419 239.737549,114.398315 248.056396,114.649750 
	C252.450607,114.782578 255.607742,118.244354 255.801102,122.319511 
	C255.993240,126.368919 253.048523,129.842865 248.658371,130.559723 
	C247.192871,130.798996 245.671341,130.739212 244.175339,130.740860 
	C231.352982,130.754959 218.530121,130.687180 205.708420,130.781631 
	C199.512024,130.827286 195.167435,134.899200 195.105408,140.362686 
	C195.043732,145.792709 199.366714,149.998245 205.517563,150.158875 
	C211.841354,150.323990 218.172195,150.220047 225.499908,150.233826 
M24.710508,77.242455 
	C23.862507,78.478210 22.963915,79.682549 22.174072,80.954422 
	C9.790422,100.895630 15.113918,127.669670 34.235115,141.679916 
	C52.876797,155.338821 79.973953,152.382889 94.955139,135.056183 
	C99.329750,129.996643 99.462997,124.237427 95.294571,120.383553 
	C90.854126,116.278160 85.134705,116.815857 80.445007,121.954063 
	C75.859909,126.977669 70.306862,129.868637 63.514271,130.592407 
	C52.676895,131.747192 41.806610,125.468834 37.252045,115.239281 
	C32.640427,104.881577 35.283787,92.998154 43.939545,85.175064 
	C52.137318,77.765907 63.895130,76.687241 73.585320,82.577660 
	C76.138062,84.129395 78.373642,86.212700 80.955811,87.703979 
	C85.346954,90.239983 90.529755,89.133911 93.523888,85.310738 
	C96.629829,81.344795 96.448807,76.432045 92.954346,72.565063 
	C91.843040,71.335281 90.585899,70.215988 89.290436,69.177124 
	C69.499672,53.306557 42.026764,56.517933 24.710508,77.242455 
M160.514374,60.823631 
	C155.086517,60.189930 149.672165,59.279148 144.226364,59.013988 
	C140.184311,58.817181 136.738602,61.145187 136.047546,65.024025 
	C135.494171,68.130119 135.835236,72.311714 137.595581,74.646774 
	C139.235657,76.822304 143.231888,78.056046 146.261414,78.197807 
	C156.567688,78.680038 164.682922,82.667366 169.881302,91.637299 
	C176.769958,103.523857 173.145126,117.607971 161.232178,126.428329 
	C156.054382,130.261978 154.822144,136.101212 158.211502,140.742416 
	C161.572769,145.345169 167.050781,146.224533 172.281265,142.423294 
	C176.017502,139.707977 179.744354,136.704620 182.636765,133.147812 
	C201.937729,109.413345 193.272003,72.153770 160.514374,60.823631 
M132.141357,107.499969 
	C132.141220,97.014320 131.925629,86.522469 132.227707,76.045532 
	C132.389832,70.422104 133.441635,64.824326 134.129730,58.889294 
	C131.329895,58.889294 127.385468,58.834789 123.443069,58.901184 
	C116.295578,59.021557 112.810501,62.493294 112.793350,69.770119 
	C112.738846,92.904968 112.737892,116.040115 112.795998,139.174957 
	C112.814354,146.482208 116.248245,149.916153 123.452522,149.980499 
	C131.940216,150.056305 140.435455,150.191040 148.914749,149.913086 
	C153.097672,149.775970 157.252045,148.768219 161.538269,148.136887 
	C158.912155,145.155899 156.082031,143.025406 154.803543,140.194244 
	C153.468109,137.236984 153.626144,133.605316 153.107086,130.105164 
	C146.584671,130.105164 139.652939,130.105164 132.141357,130.105164 
	C132.141357,122.722992 132.141357,115.611435 132.141357,107.499969 
M105.579750,113.786873 
	C105.801247,110.804939 106.238823,107.820030 106.197899,104.841698 
	C106.120064,99.176949 102.540863,95.284592 96.922180,95.196251 
	C84.777466,95.005302 72.627739,95.127426 60.480068,95.134369 
	C57.328403,95.136177 56.294762,96.328888 57.629654,99.510216 
	C63.555847,113.633591 65.275345,114.852112 80.291534,114.848640 
	C81.123566,114.848450 81.961227,114.911446 82.786766,114.838135 
	C91.092087,114.100555 98.314896,115.493462 101.701241,126.273575 
	C103.277916,121.225067 104.310242,117.919548 105.579750,113.786873 
M247.372162,179.690445 
	C251.604919,181.260468 254.282516,179.987564 254.842224,175.788147 
	C255.190674,173.173737 255.587357,170.240799 254.743393,167.888077 
	C253.971130,165.735229 251.560791,164.169983 249.872284,162.345810 
	C248.264069,164.259979 245.472000,166.078278 245.307495,168.109375 
	C245.014297,171.729416 246.309387,175.478104 247.372162,179.690445 
M144.113998,164.660126 
	C143.471710,165.550934 142.829422,166.441727 142.158966,167.371582 
	C141.834442,166.210678 141.582794,165.310455 141.193787,163.918839 
	C137.417511,171.602386 137.526184,172.438171 143.092651,174.502090 
	C143.590546,171.121536 144.060318,167.931976 144.113998,164.660126 
M225.717453,163.046646 
	C225.443863,167.065842 224.899857,171.093307 225.022491,175.100388 
	C225.075638,176.836945 226.101105,179.262131 227.441086,179.998489 
	C228.398346,180.524506 230.615219,178.758286 232.270035,178.014908 
	C232.220993,177.577698 232.171967,177.140488 232.122925,176.703293 
	C228.018204,178.544052 226.209747,177.373001 226.046265,173.189804 
	C225.772415,166.182632 226.273682,165.413910 232.541489,165.541733 
	C231.399429,162.310867 229.370834,161.441299 225.717453,163.046646 
z"/>
<path fill="#FCFDFE" opacity="1.000000" stroke="none" 
	d="
M224.999924,150.233826 
	C218.172195,150.220047 211.841354,150.323990 205.517563,150.158875 
	C199.366714,149.998245 195.043732,145.792709 195.105408,140.362686 
	C195.167435,134.899200 199.512024,130.827286 205.708420,130.781631 
	C218.530121,130.687180 231.352982,130.754959 244.175339,130.740860 
	C245.671341,130.739212 247.192871,130.798996 248.658371,130.559723 
	C253.048523,129.842865 255.993240,126.368919 255.801102,122.319511 
	C255.607742,118.244354 252.450607,114.782578 248.056396,114.649750 
	C239.737549,114.398315 231.404419,114.653419 223.082245,114.470459 
	C208.085526,114.140770 196.454666,103.493324 195.153336,89.102715 
	C193.727890,73.339592 206.292068,59.384491 222.439713,59.147987 
	C236.424774,58.943153 250.415405,59.057259 264.403137,59.124523 
	C270.967102,59.156086 275.244751,63.126583 275.261719,68.926636 
	C275.278412,74.635170 271.000946,78.703644 264.362762,78.770531 
	C250.875610,78.906448 237.386063,78.855942 223.897827,78.801216 
	C219.335358,78.782707 216.081589,80.555374 214.990311,85.120125 
	C213.747055,90.320656 217.578171,94.788322 223.435028,94.912415 
	C231.425201,95.081703 239.420822,94.973869 247.413544,95.047188 
	C263.148743,95.191513 275.137360,106.958679 275.286255,122.355865 
	C275.435516,137.797318 263.712219,149.826187 247.979858,150.188080 
	C240.490158,150.360382 232.993439,150.228119 224.999924,150.233826 
z"/>
<path fill="#FCFDFE" opacity="1.000000" stroke="none" 
	d="
M24.916855,76.949501 
	C42.026764,56.517933 69.499672,53.306557 89.290436,69.177124 
	C90.585899,70.215988 91.843040,71.335281 92.954346,72.565063 
	C96.448807,76.432045 96.629829,81.344795 93.523888,85.310738 
	C90.529755,89.133911 85.346954,90.239983 80.955811,87.703979 
	C78.373642,86.212700 76.138062,84.129395 73.585320,82.577660 
	C63.895130,76.687241 52.137318,77.765907 43.939545,85.175064 
	C35.283787,92.998154 32.640427,104.881577 37.252045,115.239281 
	C41.806610,125.468834 52.676895,131.747192 63.514271,130.592407 
	C70.306862,129.868637 75.859909,126.977669 80.445007,121.954063 
	C85.134705,116.815857 90.854126,116.278160 95.294571,120.383553 
	C99.462997,124.237427 99.329750,129.996643 94.955139,135.056183 
	C79.973953,152.382889 52.876797,155.338821 34.235115,141.679916 
	C15.113918,127.669670 9.790422,100.895630 22.174072,80.954422 
	C22.963915,79.682549 23.862507,78.478210 24.916855,76.949501 
z"/>
<path fill="#FCFDFD" opacity="1.000000" stroke="none" 
	d="
M160.903854,60.920570 
	C193.272003,72.153770 201.937729,109.413345 182.636765,133.147812 
	C179.744354,136.704620 176.017502,139.707977 172.281265,142.423294 
	C167.050781,146.224533 161.572769,145.345169 158.211502,140.742416 
	C154.822144,136.101212 156.054382,130.261978 161.232178,126.428329 
	C173.145126,117.607971 176.769958,103.523857 169.881302,91.637299 
	C164.682922,82.667366 156.567688,78.680038 146.261414,78.197807 
	C143.231888,78.056046 139.235657,76.822304 137.595581,74.646774 
	C135.835236,72.311714 135.494171,68.130119 136.047546,65.024025 
	C136.738602,61.145187 140.184311,58.817181 144.226364,59.013988 
	C149.672165,59.279148 155.086517,60.189930 160.903854,60.920570 
z"/>
<path fill="#FDFEFE" opacity="1.000000" stroke="none" 
	d="
M132.141357,107.999924 
	C132.141357,115.611435 132.141357,122.722992 132.141357,130.105164 
	C139.652939,130.105164 146.584671,130.105164 153.107086,130.105164 
	C153.626144,133.605316 153.468109,137.236984 154.803543,140.194244 
	C156.082031,143.025406 158.912155,145.155899 161.538269,148.136887 
	C157.252045,148.768219 153.097672,149.775970 148.914749,149.913086 
	C140.435455,150.191040 131.940216,150.056305 123.452522,149.980499 
	C116.248245,149.916153 112.814354,146.482208 112.795998,139.174957 
	C112.737892,116.040115 112.738846,92.904968 112.793350,69.770119 
	C112.810501,62.493294 116.295578,59.021557 123.443069,58.901184 
	C127.385468,58.834789 131.329895,58.889294 134.129730,58.889294 
	C133.441635,64.824326 132.389832,70.422104 132.227707,76.045532 
	C131.925629,86.522469 132.141220,97.014320 132.141357,107.999924 
z"/>
<path fill="#F9FBFD" opacity="1.000000" stroke="none" 
	d="
M105.461166,114.200455 
	C104.310242,117.919548 103.277916,121.225067 101.701241,126.273575 
	C98.314896,115.493462 91.092087,114.100555 82.786766,114.838135 
	C81.961227,114.911446 81.123566,114.848450 80.291534,114.848640 
	C65.275345,114.852112 63.555847,113.633591 57.629654,99.510216 
	C56.294762,96.328888 57.328403,95.136177 60.480068,95.134369 
	C72.627739,95.127426 84.777466,95.005302 96.922180,95.196251 
	C102.540863,95.284592 106.120064,99.176949 106.197899,104.841698 
	C106.238823,107.820030 105.801247,110.804939 105.461166,114.200455 
z"/>
<path fill="#3B7EA8" opacity="1.000000" stroke="none" 
	d="
M247.156219,179.431717 
	C246.309387,175.478104 245.014297,171.729416 245.307495,168.109375 
	C245.472000,166.078278 248.264069,164.259979 249.872284,162.345810 
	C251.560791,164.169983 253.971130,165.735229 254.743393,167.888077 
	C255.587357,170.240799 255.190674,173.173737 254.842224,175.788147 
	C254.282516,179.987564 251.604919,181.260468 247.156219,179.431717 
M248.218994,167.314957 
	C248.218994,170.832764 248.218994,174.350555 248.218994,179.318146 
	C250.694000,177.464798 252.633026,176.749908 252.788849,175.755585 
	C253.226364,172.963730 253.104340,170.032898 252.723267,167.221893 
	C252.668991,166.821472 249.952774,166.781876 248.218994,167.314957 
z"/>
<path fill="#C5D9E5" opacity="1.000000" stroke="none" 
	d="
M144.322052,164.701263 
	C144.060318,167.931976 143.590546,171.121536 143.092651,174.502090 
	C137.526184,172.438171 137.417511,171.602386 141.193787,163.918839 
	C141.582794,165.310455 141.834442,166.210678 142.158966,167.371582 
	C142.829422,166.441727 143.471710,165.550934 144.322052,164.701263 
z"/>
<path fill="#3A7EA8" opacity="1.000000" stroke="none" 
	d="
M226.026215,162.840454 
	C229.370834,161.441299 231.399429,162.310867 232.541489,165.541733 
	C226.273682,165.413910 225.772415,166.182632 226.046265,173.189804 
	C226.209747,177.373001 228.018204,178.544052 232.122925,176.703293 
	C232.171967,177.140488 232.220993,177.577698 232.270035,178.014908 
	C230.615219,178.758286 228.398346,180.524506 227.441086,179.998489 
	C226.101105,179.262131 225.075638,176.836945 225.022491,175.100388 
	C224.899857,171.093307 225.443863,167.065842 226.026215,162.840454 
z"/>
<path fill="#CADCE7" opacity="1.000000" stroke="none" 
	d="
M204.016037,169.932236 
	C205.477554,169.932236 206.939056,169.932236 208.595688,169.932236 
	C208.881409,167.538467 209.135818,165.407059 209.390228,163.275665 
	C209.764633,163.304092 210.139053,163.332520 210.513458,163.360947 
	C210.513458,168.470474 210.513458,173.580017 210.513458,179.524796 
	C207.556946,177.015793 211.367996,170.467865 204.446106,171.544098 
	C204.030457,170.828476 204.023254,170.380356 204.016037,169.932236 
z"/>
<path fill="#B0CCDC" opacity="1.000000" stroke="none" 
	d="
M204.011841,169.511871 
	C204.023254,170.380356 204.030457,170.828476 204.013519,171.611877 
	C203.989380,174.379883 203.989380,176.812592 203.989380,179.245285 
	C203.557922,179.256882 203.126480,179.268478 202.695023,179.280075 
	C202.695023,174.065155 202.695023,168.850235 202.695023,163.635300 
	C202.953629,163.574371 203.212234,163.513458 203.470840,163.452530 
	C203.649780,165.332184 203.828720,167.211853 204.011841,169.511871 
z"/>
<path fill="#2E77A3" opacity="1.000000" stroke="none" 
	d="
M248.343781,166.945129 
	C249.952774,166.781876 252.668991,166.821472 252.723267,167.221893 
	C253.104340,170.032898 253.226364,172.963730 252.788849,175.755585 
	C252.633026,176.749908 250.694000,177.464798 248.218994,179.318146 
	C248.218994,174.350555 248.218994,170.832764 248.343781,166.945129 
z"/>
</svg>