<svg version="1.1" id="Layer_1" xmlns="http://www.w3.org/2000/svg" xmlns:xlink="http://www.w3.org/1999/xlink" x="0px" y="0px"
	 width="100%" viewBox="0 0 329 329" enable-background="new 0 0 329 329" xml:space="preserve">
<path fill="#051B4A" opacity="1.000000" stroke="none" 
	d="
M216.000000,330.000000 
	C144.000015,330.000000 72.500023,330.000000 1.000029,330.000000 
	C1.000019,220.333359 1.000019,110.666733 1.000010,1.000073 
	C110.666618,1.000049 220.333237,1.000049 329.999878,1.000024 
	C329.999939,110.666595 329.999939,220.333191 329.999969,329.999878 
	C292.166656,330.000000 254.333328,330.000000 216.000000,330.000000 
M264.000946,110.988144 
	C264.000946,110.988144 264.242279,110.753578 264.136261,111.521133 
	C264.296936,114.182129 264.390869,116.893394 268.510803,116.953636 
	C268.510803,116.953636 268.886414,116.901291 269.629547,116.916199 
	C272.536285,114.425056 275.739716,112.181610 278.159180,109.283669 
	C278.837219,108.471527 277.531250,105.494415 276.445160,104.018196 
	C276.105743,103.556854 273.503113,104.760590 271.409790,104.927025 
	C268.932007,103.706604 266.454224,102.486183 263.935822,100.479103 
	C260.758087,98.993927 257.614502,96.365028 254.395279,96.268936 
	C248.268921,96.086052 242.053299,97.082161 235.966949,98.126114 
	C232.880020,98.655602 229.787582,100.003441 227.060928,101.601265 
	C221.785507,104.692657 216.783920,108.249252 211.610504,111.520782 
	C211.203598,111.778084 210.342484,111.317108 209.179642,110.854767 
	C208.090439,109.666046 207.001236,108.477325 205.929596,106.482834 
	C204.930893,105.258720 204.090240,103.844101 202.897186,102.854248 
	C201.011169,101.289474 198.401566,100.390640 196.954346,98.540337 
	C191.790756,91.938568 191.819016,91.793304 183.168716,94.031487 
	C181.770798,94.019974 180.372864,94.008461 178.716858,93.261726 
	C174.818054,92.862404 170.919235,92.463081 166.101440,92.039970 
	C162.729691,92.043106 159.357956,92.046242 155.242035,92.023880 
	C154.497284,92.027298 153.752533,92.030708 152.272461,92.031944 
	C149.928711,92.522224 147.581451,92.996475 145.242126,93.507034 
	C142.593872,94.085022 139.535187,94.046959 137.394257,95.425179 
	C132.747192,98.416740 128.632172,102.223419 124.152519,105.495445 
	C123.196510,106.193726 121.497337,106.485573 120.343651,106.185020 
	C117.170052,105.358253 114.104271,104.117668 110.420685,102.933357 
	C109.938957,102.627022 109.457237,102.320686 108.971085,101.238243 
	C108.249908,96.693352 104.485672,96.461823 101.166077,96.090828 
	C97.220963,95.649925 93.199913,95.463234 89.239120,95.675903 
	C80.829933,96.127403 71.924034,94.828613 65.206116,102.055527 
	C64.233147,103.102211 62.212013,103.128822 60.732525,103.760132 
	C57.863022,104.984566 53.284878,105.672119 52.548321,107.713036 
	C50.967258,112.094009 51.376160,117.193146 50.918941,122.811356 
	C50.553886,127.038391 49.079021,131.561584 50.107777,135.416672 
	C51.362682,140.119232 52.294666,145.710098 57.719334,148.364014 
	C58.544834,148.767883 58.568707,150.585754 59.360825,151.321899 
	C62.536613,154.273239 65.492142,157.816971 69.253204,159.679535 
	C72.754173,161.413284 77.558189,160.486847 81.098526,162.176956 
	C86.174469,164.600143 90.634048,168.321213 95.315285,171.548340 
	C95.605957,171.748749 95.530800,172.473801 95.634079,172.952972 
	C96.518005,177.053970 91.131165,187.923035 87.114120,188.554321 
	C80.611290,189.576294 73.891388,190.152176 67.964790,185.887161 
	C66.292938,184.684021 64.423019,183.756134 62.362370,182.535156 
	C62.445362,181.306000 62.562382,179.572922 62.677319,177.870651 
	C56.612831,176.971100 52.398857,179.128998 50.766651,184.605896 
	C49.752029,188.010513 48.269188,191.973923 52.030865,195.805435 
	C53.300209,197.174759 54.383839,199.444138 55.872349,199.751282 
	C61.172157,200.844833 66.609734,201.270691 72.140930,202.597122 
	C74.270630,205.130463 85.473969,207.545578 89.012230,205.418716 
	C92.525146,203.307053 94.852921,204.520798 97.605995,206.344269 
	C103.992371,210.574249 106.866760,209.739578 109.850784,203.770889 
	C108.202545,201.488739 106.847824,199.613007 105.493095,197.737244 
	C107.211082,196.710602 108.929070,195.683945 110.647057,194.657303 
	C110.953117,195.066772 111.259186,195.476242 111.565247,195.885712 
	C110.929901,197.031860 110.294556,198.178009 110.100449,198.528168 
	C112.862190,200.763397 115.201843,202.656998 117.205757,204.278870 
	C119.233932,204.630173 121.578056,204.465103 123.273720,205.434418 
	C128.888672,208.644150 132.347794,206.822784 132.979416,199.310532 
	C132.978073,198.876022 132.976730,198.441528 133.572739,197.673584 
	C137.248398,195.396927 137.843582,188.793304 144.287338,189.918304 
	C143.431686,189.346390 142.576035,188.774490 141.960144,188.362839 
	C143.022186,186.694153 144.502945,185.262817 144.888641,183.580444 
	C145.767761,179.745819 147.923157,179.250610 151.451050,179.517166 
	C156.360062,179.888107 161.375763,179.878784 166.254898,179.285141 
	C170.122025,178.814636 172.175766,179.832413 173.369843,183.512756 
	C175.059540,188.720657 177.005524,193.863098 182.001694,197.814682 
	C182.320465,199.054031 182.447769,201.273087 182.988129,201.378693 
	C187.558228,202.271912 192.367203,203.805634 196.778824,203.102921 
	C200.872787,202.450806 204.187073,200.959091 207.568695,204.684967 
	C208.315155,205.507416 212.275696,204.906921 212.305099,204.664459 
	C212.847290,200.192657 215.071793,202.565811 217.226166,203.023026 
	C218.678482,203.331268 220.398514,202.378174 222.907211,201.990219 
	C226.279800,201.607773 229.652390,201.225327 233.688263,200.882645 
	C234.131363,200.889313 234.574448,200.895966 235.606186,201.429199 
	C243.388840,203.826706 251.152100,203.776138 258.456299,200.108078 
	C263.595428,197.527267 268.064972,193.509064 273.323730,191.299515 
	C278.681488,189.048370 279.389923,184.115067 281.595947,180.057159 
	C282.258301,178.838791 281.213348,176.692291 280.977295,174.161606 
	C280.832428,168.635529 281.009216,163.074875 280.420471,157.596497 
	C280.074432,154.376175 278.511719,151.286606 277.869293,149.294846 
	C275.007202,148.169403 271.037720,147.836838 270.174500,146.024643 
	C268.094055,141.657074 264.088501,141.666870 260.751465,140.082001 
	C259.728180,139.596024 258.664154,139.193039 257.607941,138.779694 
	C251.421982,136.358871 246.017685,131.696808 238.258987,131.781082 
	C236.723984,128.865295 233.781952,125.857910 233.964508,123.053932 
	C234.285156,118.128296 234.505707,112.601669 238.996948,109.000610 
	C238.996948,109.000610 238.790787,108.778481 239.602127,108.906036 
	C246.794937,108.876350 253.987762,108.846664 261.059937,109.009659 
	C261.059937,109.009659 261.167297,108.812843 261.308136,109.501747 
	C262.288513,109.921715 263.268860,110.341675 264.000946,110.988144 
M269.503387,100.476013 
	C269.503387,100.476013 269.507294,100.507668 269.503387,100.476013 
z"/>
<path fill="#061B47" opacity="1.000000" stroke="none" 
	d="
M132.976654,199.960709 
	C132.347794,206.822784 128.888672,208.644150 123.273720,205.434418 
	C121.578056,204.465103 119.233932,204.630173 117.205757,204.278870 
	C115.201843,202.656998 112.862190,200.763397 110.100449,198.528168 
	C110.294556,198.178009 110.929901,197.031860 111.565247,195.885712 
	C111.259186,195.476242 110.953117,195.066772 110.647057,194.657303 
	C108.929070,195.683945 107.211082,196.710602 105.493103,197.737244 
	C106.847824,199.613007 108.202545,201.488739 109.850784,203.770889 
	C106.866760,209.739578 103.992371,210.574249 97.605995,206.344269 
	C94.852921,204.520798 92.525146,203.307053 89.012230,205.418716 
	C85.473969,207.545578 74.270630,205.130463 72.483589,202.270050 
	C78.604752,201.945419 84.397385,201.697739 90.157669,202.022919 
	C95.576721,202.328857 98.438118,199.700989 100.224922,194.699860 
	C102.556206,193.270172 104.647987,192.084396 107.129517,190.904388 
	C112.196136,189.628250 117.740997,181.712479 118.268539,175.703110 
	C118.412018,172.972244 118.285210,170.488815 118.407959,167.936600 
	C118.482643,167.241577 118.307770,166.615326 118.046654,165.647293 
	C117.938118,164.604477 117.915825,163.903473 117.950699,162.757965 
	C117.635628,159.744415 118.197296,156.135468 116.714119,154.803436 
	C112.452286,150.975922 114.233025,147.486771 115.960030,143.664627 
	C116.628380,142.185440 117.644188,140.754288 117.876602,139.207336 
	C118.604454,134.362732 121.288673,131.549393 125.660835,130.568115 
	C126.068443,128.790070 126.536781,127.181763 126.779686,125.540108 
	C126.951866,124.376419 126.819435,123.167656 127.025444,121.701996 
	C128.480972,120.276520 129.734055,119.128082 131.393341,117.958664 
	C135.582596,117.801018 138.724503,117.089455 140.469833,112.884407 
	C141.759674,109.776756 147.979004,108.616402 150.529510,110.763626 
	C151.486191,111.569054 152.190903,114.384415 151.615112,115.020668 
	C147.992493,119.023811 147.715683,124.026756 146.476746,128.997040 
	C143.924942,133.233719 142.191238,137.747879 139.315506,141.350372 
	C132.051346,150.450333 132.056595,162.210434 127.205879,172.526459 
	C126.445984,174.139328 126.096191,175.950027 125.045319,176.567413 
	C117.411865,181.052185 120.850845,189.436295 118.265717,195.680130 
	C117.643707,197.182465 119.296471,199.626587 120.076370,202.211975 
	C123.412376,201.483017 127.134834,200.669632 131.210251,199.882187 
	C132.034363,199.925659 132.505508,199.943176 132.976654,199.960709 
M116.383728,186.984116 
	C116.602486,187.434174 116.821236,187.884247 117.039986,188.334305 
	C117.249474,188.155380 117.660393,187.853821 117.637573,187.816345 
	C117.384071,187.400024 117.063431,187.024567 116.383728,186.984116 
z"/>
<path fill="#162646" opacity="1.000000" stroke="none" 
	d="
M110.995834,103.040802 
	C114.104271,104.117668 117.170052,105.358253 120.343651,106.185020 
	C121.497337,106.485573 123.196510,106.193726 124.152519,105.495445 
	C128.632172,102.223419 132.747192,98.416740 137.394257,95.425179 
	C139.535187,94.046959 142.593872,94.085022 145.242126,93.507034 
	C147.581451,92.996475 149.928711,92.522224 152.715836,92.335815 
	C154.101547,92.442909 155.043869,92.246147 155.986206,92.049377 
	C159.357956,92.046242 162.729691,92.043106 166.693115,92.413193 
	C171.181519,93.189934 175.078232,93.593437 178.974945,93.996948 
	C180.372864,94.008461 181.770798,94.019974 183.586670,94.429916 
	C184.023270,96.136047 184.041946,97.443764 183.688354,98.704376 
	C174.932495,94.646774 165.998688,96.298218 156.803955,96.042625 
	C153.903748,96.603661 151.441925,97.245583 148.729614,98.010963 
	C148.109314,98.150711 147.739517,98.167015 147.010483,98.137527 
	C145.759079,98.678940 144.866898,99.266144 143.712967,100.054031 
	C142.213303,100.663605 140.975388,101.072495 139.346497,101.357742 
	C137.983429,101.880112 137.011353,102.526131 135.864899,103.422501 
	C134.814575,104.125359 133.938660,104.577866 132.715881,105.005119 
	C131.577530,105.644028 130.786011,106.308182 129.747314,107.129555 
	C129.316315,107.840149 129.132507,108.393524 128.623230,108.977173 
	C127.737724,109.556282 127.177681,110.105118 126.268433,110.651917 
	C124.702637,111.748688 123.430557,112.792488 122.278267,113.955032 
	C113.618141,122.692268 107.207443,132.682312 105.060608,145.026627 
	C105.027374,145.010712 105.049004,145.081161 104.673630,145.277847 
	C102.197006,144.986115 100.095772,144.497696 97.798767,143.823639 
	C97.252266,143.646439 96.901512,143.654907 96.432907,143.303711 
	C94.939896,142.549408 93.564735,142.154770 92.170074,141.864182 
	C92.150566,141.968231 92.225830,141.770279 92.121216,141.448288 
	C90.999817,140.793289 89.983040,140.460281 88.616814,140.001190 
	C82.889465,136.895035 77.511566,133.914932 72.073601,130.564117 
	C68.182831,124.842163 67.365974,119.158134 71.205757,113.626213 
	C75.906281,106.854240 83.055885,104.075500 90.819893,105.402336 
	C97.407791,106.528175 103.621323,109.646873 105.805954,116.873276 
	C101.652473,116.003006 97.572960,116.391083 94.817673,112.457695 
	C93.967636,111.244217 90.815552,111.185089 88.783981,111.361755 
	C85.496880,111.647606 82.028061,112.048172 79.089752,113.392296 
	C77.010681,114.343361 74.442467,116.845863 74.304855,118.810738 
	C74.094406,121.815605 75.167908,125.344635 76.803879,127.957802 
	C80.693848,134.171341 88.013855,135.414062 94.169258,137.678772 
	C99.573410,139.667053 104.104942,134.190430 103.491051,128.065567 
	C103.404755,127.204582 104.191544,125.998627 104.927322,125.357765 
	C107.936607,122.736679 111.082840,120.272812 114.178650,117.751053 
	C113.892250,117.305077 113.605843,116.859100 113.319443,116.413124 
	C112.541374,116.263863 111.763306,116.114609 110.985275,115.489723 
	C110.871529,113.743027 110.757759,112.471962 110.597870,110.908775 
	C110.754791,110.079559 110.957825,109.542465 111.477974,108.905899 
	C113.538834,107.073715 113.450249,105.775467 110.924377,105.042519 
	C110.942139,105.025703 110.935448,105.074081 110.951820,104.735153 
	C110.977402,103.944412 110.986618,103.492607 110.995834,103.040802 
z"/>
<path fill="#1E2C4C" opacity="1.000000" stroke="none" 
	d="
M51.908077,195.096588 
	C48.269188,191.973923 49.752029,188.010513 50.766651,184.605896 
	C52.398857,179.128998 56.612831,176.971100 62.677319,177.870651 
	C62.562382,179.572922 62.445362,181.306000 62.362370,182.535156 
	C64.423019,183.756134 66.292938,184.684021 67.964790,185.887161 
	C73.891388,190.152176 80.611290,189.576294 87.114120,188.554321 
	C91.131165,187.923035 96.518005,177.053970 95.634079,172.952972 
	C95.530800,172.473801 95.605957,171.748749 95.315285,171.548340 
	C90.634048,168.321213 86.174469,164.600143 81.098526,162.176956 
	C77.558189,160.486847 72.754173,161.413284 69.253204,159.679535 
	C65.492142,157.816971 62.536613,154.273239 59.360825,151.321899 
	C58.568707,150.585754 58.544834,148.767883 57.719334,148.364014 
	C52.294666,145.710098 51.362682,140.119232 50.107777,135.416672 
	C49.079021,131.561584 50.553886,127.038391 51.189453,122.218925 
	C52.287098,121.083160 53.114231,120.539825 53.983597,120.373489 
	C54.034378,121.504097 54.042934,122.257698 53.942680,123.466904 
	C51.836964,135.335968 56.033188,144.301285 65.494507,150.384628 
	C70.577156,153.652588 76.613678,155.410873 82.134377,158.030365 
	C88.911041,161.245773 96.092667,163.961105 100.225288,171.364059 
	C100.134293,175.811600 99.998962,179.851334 99.873871,183.930283 
	C99.884117,183.969498 99.913078,183.893784 99.603302,184.000839 
	C98.779663,185.005585 98.265808,185.903259 97.823959,186.822113 
	C97.895981,186.843292 97.781265,186.746445 97.440781,186.765442 
	C96.654686,187.485733 96.209068,188.187027 95.460655,188.918671 
	C94.687553,189.486008 94.217239,190.022964 93.342682,190.549957 
	C91.818939,190.823898 90.652367,190.988770 89.587212,191.410065 
	C78.539719,195.779633 64.701515,193.025223 59.210068,182.949478 
	C58.571995,181.778732 57.469769,180.860947 55.558010,178.630142 
	C54.224827,184.567917 53.207653,189.098236 52.117043,193.995026 
	C51.998425,194.606522 51.953251,194.851547 51.908077,195.096588 
z"/>
<path fill="#1A294A" opacity="1.000000" stroke="none" 
	d="
M209.692459,111.189957 
	C210.342484,111.317108 211.203598,111.778084 211.610504,111.520782 
	C216.783920,108.249252 221.785507,104.692657 227.060928,101.601265 
	C229.787582,100.003441 232.880020,98.655602 235.966949,98.126114 
	C242.053299,97.082161 248.268921,96.086052 254.395279,96.268936 
	C257.614502,96.365028 260.758087,98.993927 263.545837,100.956146 
	C261.822693,101.093697 260.489594,100.754219 259.088104,100.182549 
	C258.347809,99.959763 257.675873,99.969162 256.537415,99.990204 
	C247.599091,99.518570 239.275146,99.851723 231.543915,104.378250 
	C231.165176,104.491600 231.040985,104.690956 230.656586,104.941757 
	C229.524979,105.616478 228.734802,106.290405 227.963486,106.985703 
	C227.982346,107.007072 227.971680,106.951317 227.622421,106.954247 
	C226.753784,107.561211 226.234406,108.165253 225.760040,108.794769 
	C225.805069,108.820244 225.784180,108.718910 225.434433,108.676888 
	C223.895828,109.919823 222.706970,111.204773 221.627380,112.654648 
	C221.736618,112.819557 221.482269,112.516502 221.144165,112.551880 
	C220.118591,113.709045 219.431107,114.830826 218.526413,116.066139 
	C218.052399,116.494759 218.071747,116.791931 218.063385,117.269562 
	C217.456192,118.306183 217.152847,119.144402 216.679337,120.147224 
	C216.307831,120.622543 216.328262,120.917946 216.218063,121.366974 
	C215.612930,123.027687 215.360199,124.519470 215.025421,126.432610 
	C215.000961,128.564606 215.058533,130.275238 215.051697,132.371277 
	C216.156860,135.455933 217.326462,138.155212 218.465271,140.926147 
	C218.434479,140.997818 218.538071,141.114471 218.533295,141.472137 
	C219.631989,142.957993 220.735489,144.086182 221.860657,145.168991 
	C221.882324,145.123611 221.787048,145.155838 221.814056,145.501450 
	C222.527359,146.310684 223.213654,146.774307 223.898682,147.525528 
	C223.991821,148.184219 224.086258,148.555298 223.864258,148.999069 
	C223.031204,149.688538 222.514587,150.305328 221.671341,150.857208 
	C212.590729,143.441162 208.339813,134.066025 211.631607,122.993408 
	C213.014160,118.342941 212.531082,116.018074 209.004028,113.449142 
	C209.306610,112.530800 209.499542,111.860382 209.692459,111.189957 
z"/>
<path fill="#162646" opacity="1.000000" stroke="none" 
	d="
M53.941372,119.996490 
	C53.114231,120.539825 52.287098,121.083160 51.215149,121.812378 
	C51.376160,117.193146 50.967258,112.094009 52.548321,107.713036 
	C53.284878,105.672119 57.863022,104.984566 60.732525,103.760132 
	C62.212013,103.128822 64.233147,103.102211 65.206116,102.055527 
	C71.924034,94.828613 80.829933,96.127403 89.239120,95.675903 
	C93.199913,95.463234 97.220963,95.649925 101.166077,96.090828 
	C104.485672,96.461823 108.249908,96.693352 108.629745,101.568924 
	C106.489899,101.720657 104.691391,101.541710 102.474281,101.426674 
	C97.673134,100.929100 93.290596,99.926186 88.908058,99.926163 
	C84.214256,99.926147 79.520462,100.870491 74.426727,101.303024 
	C73.017548,101.790115 72.008316,102.376869 70.754036,103.180695 
	C69.351227,103.936348 68.193466,104.474922 66.731567,105.055786 
	C65.930954,105.678246 65.434471,106.258415 64.999542,106.913879 
	C65.061104,106.989174 65.079346,107.182831 64.740578,107.204239 
	C63.264702,108.480827 62.127594,109.736008 60.731125,111.043808 
	C60.201565,111.512398 59.931358,111.928375 59.308792,112.426224 
	C57.284748,115.004227 55.613060,117.500359 53.941372,119.996490 
M55.236210,111.354927 
	C55.295040,110.842247 55.353874,110.329567 55.412701,109.816887 
	C55.146263,109.810936 54.879826,109.804985 54.613392,109.799034 
	C54.654186,110.314011 54.694981,110.828987 55.236210,111.354927 
z"/>
<path fill="#061B47" opacity="1.000000" stroke="none" 
	d="
M181.998779,197.001221 
	C177.005524,193.863098 175.059540,188.720657 173.369843,183.512756 
	C172.175766,179.832413 170.122025,178.814636 166.254898,179.285141 
	C161.375763,179.878784 156.360062,179.888107 151.451050,179.517166 
	C147.923157,179.250610 145.767761,179.745819 144.888641,183.580444 
	C144.502945,185.262817 143.022186,186.694153 141.960144,188.362839 
	C142.576035,188.774490 143.431686,189.346390 144.287338,189.918304 
	C137.843582,188.793304 137.248398,195.396927 133.074570,197.604065 
	C135.084854,191.541489 137.518723,185.515091 140.170258,179.586029 
	C140.649734,178.513855 142.022598,177.841217 143.366043,176.985382 
	C144.830170,176.236374 145.911255,175.486115 147.318329,174.588837 
	C148.098969,174.543289 148.553635,174.644745 149.115051,175.139618 
	C154.201111,175.657974 159.180450,175.782913 164.453476,175.834442 
	C165.188126,175.373032 165.629089,174.985062 166.417221,174.482941 
	C167.482941,174.442139 168.201462,174.515457 169.178101,174.890610 
	C172.141556,176.398361 176.390106,176.935440 177.257904,178.937729 
	C179.693008,184.556305 180.733871,190.779144 182.243195,196.823029 
	C182.161728,196.882431 181.998779,197.001221 181.998779,197.001221 
z"/>
<path fill="#E0E9F0" opacity="1.000000" stroke="none" 
	d="
M231.717255,104.413589 
	C239.275146,99.851723 247.599091,99.518570 256.753906,100.196182 
	C258.010071,100.398590 258.583252,100.406662 259.156464,100.414734 
	C260.489594,100.754219 261.822693,101.093697 263.566132,101.349472 
	C266.454224,102.486183 268.932007,103.706604 271.789368,105.387268 
	C271.074768,109.532104 269.980591,113.216698 268.886414,116.901291 
	C268.886414,116.901291 268.510803,116.953636 268.306702,116.539391 
	C266.815826,114.334625 265.529053,112.544098 264.242279,110.753571 
	C264.242279,110.753578 264.000946,110.988144 264.110229,110.516464 
	C263.202118,109.634140 262.184723,109.223495 261.167297,108.812843 
	C261.167297,108.812843 261.059937,109.009659 261.059509,108.544205 
	C259.349762,107.246414 257.719757,106.007454 255.916718,105.655945 
	C249.858719,104.474930 243.827957,104.086754 238.790787,108.778481 
	C238.790787,108.778481 238.996948,109.000610 238.526367,108.854294 
	C237.089539,108.907349 236.123322,109.106705 235.117310,108.837326 
	C233.957443,107.050247 232.837341,105.731918 231.717255,104.413589 
z"/>
<path fill="#213151" opacity="1.000000" stroke="none" 
	d="
M238.805603,132.216278 
	C246.017685,131.696808 251.421982,136.358871 257.607941,138.779694 
	C258.664154,139.193039 259.728180,139.596024 260.751465,140.082001 
	C264.088501,141.666870 268.094055,141.657074 270.174500,146.024643 
	C271.037720,147.836838 275.007202,148.169403 277.869293,149.294846 
	C278.511719,151.286606 280.074432,154.376175 280.420471,157.596497 
	C281.009216,163.074875 280.832428,168.635529 280.651917,174.577454 
	C279.909180,174.997620 279.491821,175.001953 278.995422,174.548401 
	C278.587097,169.858047 279.216888,165.256241 277.755005,161.459854 
	C272.642395,148.182602 260.997131,143.172089 248.191757,139.569916 
	C247.367081,138.961304 246.668091,138.637970 245.708832,138.147125 
	C245.038513,137.953369 244.628464,137.927109 244.129883,137.589859 
	C243.324875,136.958069 242.608368,136.637268 241.944153,136.228424 
	C241.996429,136.140396 242.031311,135.938599 241.934448,135.604340 
	C241.054810,134.944702 240.272064,134.619354 239.334885,134.282684 
	C239.180466,134.271378 238.989685,134.027451 238.985214,133.722565 
	C238.922363,133.017212 238.863983,132.616745 238.805603,132.216278 
z"/>
<path fill="#061B47" opacity="1.000000" stroke="none" 
	d="
M221.998779,201.989319 
	C220.398514,202.378174 218.678482,203.331268 217.226166,203.023026 
	C215.071793,202.565811 212.847290,200.192657 212.305099,204.664459 
	C212.275696,204.906921 208.315155,205.507416 207.568695,204.684967 
	C204.187073,200.959091 200.872787,202.450806 196.778824,203.102921 
	C192.367203,203.805634 187.558228,202.271912 182.988129,201.378693 
	C182.447769,201.273087 182.320465,199.054031 182.000244,197.407959 
	C181.998779,197.001221 182.161728,196.882431 182.546844,197.021362 
	C190.261978,197.694839 197.588257,198.338058 204.927948,198.589859 
	C205.634003,198.614059 206.423492,196.205215 207.392303,194.704437 
	C208.375549,193.458450 209.140747,192.433884 210.433701,190.702682 
	C211.317963,197.334045 215.351715,199.039047 220.091980,200.292938 
	C220.770660,201.060257 221.384720,201.524780 221.998779,201.989319 
z"/>
<path fill="#142247" opacity="1.000000" stroke="none" 
	d="
M279.074463,175.006287 
	C279.491821,175.001953 279.909180,174.997620 280.638550,174.982147 
	C281.213348,176.692291 282.258301,178.838791 281.595947,180.057159 
	C279.389923,184.115067 278.681488,189.048370 273.323730,191.299515 
	C268.064972,193.509064 263.595428,197.527267 258.456299,200.108078 
	C251.152100,203.776138 243.388840,203.826706 235.598114,201.113434 
	C236.064774,200.494461 236.539490,200.191254 237.381805,199.826569 
	C238.490631,199.809509 239.231888,199.853928 240.230042,200.137573 
	C241.713654,200.090805 242.940369,199.804810 244.309433,199.355759 
	C244.451797,199.192703 244.882355,199.143188 244.882355,199.143188 
	C244.882355,199.143188 245.254684,199.364853 245.598068,199.549469 
	C247.013443,199.318253 248.085434,198.902435 249.160431,198.373535 
	C249.163406,198.260452 249.042007,198.069519 249.428314,198.157196 
	C250.862579,198.119980 251.910538,197.995087 253.115372,198.092743 
	C253.852097,197.886322 254.431961,197.457321 254.997375,196.912720 
	C254.982941,196.797119 254.870468,196.593079 255.236389,196.641113 
	C257.867004,195.520020 260.131683,194.350906 262.681274,193.220551 
	C263.298035,193.091736 263.629883,192.924149 264.306030,192.746490 
	C266.575928,190.978180 268.501495,189.219925 270.361938,187.341537 
	C270.296844,187.221405 270.471161,187.431854 270.730103,187.431641 
	C271.151978,187.150894 271.314972,186.870361 271.508453,186.569321 
	C271.538971,186.548828 271.579895,186.487747 271.889709,186.422485 
	C272.576813,185.665634 272.954102,184.974045 273.255371,184.241928 
	C273.179382,184.201401 273.288879,184.334396 273.569580,184.340210 
	C274.202057,184.217865 274.553802,184.089737 275.246033,183.890442 
	C276.041840,182.858612 276.497223,181.897964 276.977631,180.947266 
	C277.002655,180.957230 276.950409,180.968536 277.312012,180.862473 
	C278.069641,179.391815 278.465668,178.027237 278.806030,176.380402 
	C278.858368,175.734207 278.966431,175.370239 279.074463,175.006287 
z"/>
<path fill="#22314F" opacity="1.000000" stroke="none" 
	d="
M51.969471,195.451019 
	C51.953251,194.851547 51.998425,194.606522 52.458965,194.141129 
	C64.250793,198.441101 75.814751,201.467896 88.131905,198.218857 
	C92.095276,197.173401 96.034927,196.038010 99.985420,194.943756 
	C98.438118,199.700989 95.576721,202.328857 90.157669,202.022919 
	C84.397385,201.697739 78.604752,201.945419 72.410706,201.946152 
	C66.609734,201.270691 61.172157,200.844833 55.872349,199.751282 
	C54.383839,199.444138 53.300209,197.174759 51.969471,195.451019 
z"/>
<path fill="#16284B" opacity="1.000000" stroke="none" 
	d="
M184.060608,98.751472 
	C184.041946,97.443764 184.023270,96.136047 184.005966,94.437881 
	C191.819016,91.793304 191.790756,91.938568 196.954346,98.540337 
	C198.401566,100.390640 201.011169,101.289474 202.897186,102.854248 
	C204.090240,103.844101 204.930893,105.258720 205.553375,106.846283 
	C203.451172,106.430122 201.725189,105.650505 199.896698,104.546326 
	C197.871506,103.480270 195.948822,102.738777 193.655670,101.949394 
	C191.536621,101.233765 189.787994,100.566025 187.723816,99.821037 
	C186.976837,99.700195 186.545441,99.656609 186.087769,99.729202 
	C186.061508,99.845398 186.296692,99.883545 186.193237,99.592133 
	C185.727905,99.196205 185.366028,99.091682 184.743301,98.944839 
	C184.312164,98.947731 184.141876,98.992935 183.932556,98.947433 
	C183.893509,98.856735 184.060608,98.751472 184.060608,98.751472 
z"/>
<path fill="#162646" opacity="1.000000" stroke="none" 
	d="
M142.983017,176.984116 
	C142.022598,177.841217 140.649734,178.513855 140.170258,179.586029 
	C137.518723,185.515091 135.084854,191.541489 132.775909,197.770782 
	C132.976730,198.441528 132.978073,198.876022 132.978027,199.635620 
	C132.505508,199.943176 132.034363,199.925659 131.151428,199.574097 
	C130.135498,198.110947 129.531372,196.981857 128.908966,195.627625 
	C128.890671,195.402496 129.119949,195.013290 129.461639,194.895462 
	C130.079849,193.938766 130.356369,193.099915 130.582672,191.901917 
	C131.839966,188.390198 133.147491,185.237610 134.756989,181.980011 
	C135.297470,181.113358 135.535965,180.351761 135.754822,179.261108 
	C135.946335,178.311295 136.157501,177.690536 136.661346,177.006805 
	C137.293701,176.276260 137.633408,175.608673 138.364182,174.723618 
	C140.512772,174.560165 142.270279,174.614182 143.925140,174.969360 
	C143.542679,175.841721 143.262848,176.412918 142.983017,176.984116 
z"/>
<path fill="#445067" opacity="1.000000" stroke="none" 
	d="
M238.532288,131.998688 
	C238.863983,132.616745 238.922363,133.017212 238.664551,133.722275 
	C237.928848,133.946365 237.509338,133.865860 236.967712,133.541351 
	C236.334183,133.152634 235.822784,133.007904 235.221649,132.518921 
	C233.869003,130.877411 232.606094,129.580154 231.421097,128.051331 
	C231.477051,127.467659 231.319244,127.193832 231.030838,126.636871 
	C230.521271,125.249611 230.006439,124.223785 229.555481,122.889206 
	C229.587082,121.330147 229.554794,120.079857 229.807846,118.647713 
	C230.340485,117.639908 230.587784,116.813942 230.984940,115.757401 
	C231.156982,115.164574 231.179138,114.802322 231.533249,114.347427 
	C232.270065,113.507408 232.674911,112.760033 233.340424,111.852219 
	C234.119751,110.896538 234.638412,110.101295 235.157074,109.306061 
	C236.123322,109.106705 237.089539,108.907349 238.424438,108.742828 
	C234.505707,112.601669 234.285156,118.128296 233.964508,123.053932 
	C233.781952,125.857910 236.723984,128.865295 238.532288,131.998688 
z"/>
<path fill="#273654" opacity="1.000000" stroke="none" 
	d="
M269.257996,116.908745 
	C269.980591,113.216698 271.074768,109.532104 272.052734,105.524811 
	C273.503113,104.760590 276.105743,103.556854 276.445160,104.018196 
	C277.531250,105.494415 278.837219,108.471527 278.159180,109.283669 
	C275.739716,112.181610 272.536285,114.425056 269.257996,116.908745 
z"/>
<path fill="#445067" opacity="1.000000" stroke="none" 
	d="
M239.196457,108.842255 
	C243.827957,104.086754 249.858719,104.474930 255.916718,105.655945 
	C257.719757,106.007454 259.349762,107.246414 261.119812,108.447868 
	C253.987762,108.846664 246.794937,108.876350 239.196457,108.842255 
z"/>
<path fill="#57698E" opacity="1.000000" stroke="none" 
	d="
M199.999191,104.870895 
	C201.725189,105.650505 203.451172,106.430122 205.544601,107.249168 
	C207.001236,108.477325 208.090439,109.666046 209.436050,111.022362 
	C209.499542,111.860382 209.306610,112.530800 208.688934,113.395813 
	C206.323792,112.621704 204.383423,111.653015 202.319763,110.370132 
	C201.036102,108.680527 199.875748,107.305115 198.970154,105.806595 
	C199.483002,105.412621 199.741089,105.141754 199.999191,104.870895 
z"/>
<path fill="#142247" opacity="1.000000" stroke="none" 
	d="
M222.453003,201.989761 
	C221.384720,201.524780 220.770660,201.060257 220.454407,200.291962 
	C221.844238,199.629440 222.936249,199.270676 224.310089,198.892273 
	C225.060013,198.596420 225.528107,198.320221 226.395630,198.063843 
	C227.851440,198.227158 228.907806,198.370651 230.042007,198.792160 
	C231.088211,199.661072 232.056595,200.251968 233.024979,200.842865 
	C229.652390,201.225327 226.279800,201.607773 222.453003,201.989761 
z"/>
<path fill="#16284B" opacity="1.000000" stroke="none" 
	d="
M178.845901,93.629333 
	C175.078232,93.593437 171.181519,93.189934 167.152618,92.425095 
	C170.919235,92.463081 174.818054,92.862404 178.845901,93.629333 
z"/>
<path fill="#445067" opacity="1.000000" stroke="none" 
	d="
M264.189270,111.137352 
	C265.529053,112.544098 266.815826,114.334625 268.124878,116.485504 
	C264.390869,116.893394 264.296936,114.182129 264.189270,111.137352 
z"/>
<path fill="#1B2B4C" opacity="1.000000" stroke="none" 
	d="
M102.892891,101.362762 
	C104.691391,101.541710 106.489899,101.720657 108.631958,101.956970 
	C109.457237,102.320686 109.938957,102.627022 110.708260,102.987076 
	C110.986618,103.492607 110.977402,103.944412 110.592705,104.740967 
	C107.775772,103.844742 105.334335,102.603752 102.892891,101.362762 
z"/>
<path fill="#3E4C65" opacity="1.000000" stroke="none" 
	d="
M233.356628,200.862762 
	C232.056595,200.251968 231.088211,199.661072 230.411530,198.736969 
	C232.806885,198.898514 234.910553,199.393265 237.014206,199.888031 
	C236.539490,200.191254 236.064774,200.494461 235.303802,200.850143 
	C234.574448,200.895966 234.131363,200.889313 233.356628,200.862762 
z"/>
<path fill="#445067" opacity="1.000000" stroke="none" 
	d="
M261.237732,109.157295 
	C262.184723,109.223495 263.202118,109.634140 264.234375,110.403214 
	C263.268860,110.341675 262.288513,109.921715 261.237732,109.157295 
z"/>
<path fill="#16284B" opacity="1.000000" stroke="none" 
	d="
M155.614120,92.036629 
	C155.043869,92.246147 154.101547,92.442909 153.083496,92.336899 
	C153.752533,92.030708 154.497284,92.027298 155.614120,92.036629 
z"/>
<path fill="#273654" opacity="1.000000" stroke="none" 
	d="
M269.505341,100.491837 
	C269.507294,100.507668 269.503387,100.476013 269.505341,100.491837 
z"/>
<path fill="#DBE4EC" opacity="1.000000" stroke="none" 
	d="
M100.224922,194.699860 
	C96.034927,196.038010 92.095276,197.173401 88.131905,198.218857 
	C75.814751,201.467896 64.250793,198.441101 52.532402,193.774658 
	C53.207653,189.098236 54.224827,184.567917 55.558010,178.630142 
	C57.469769,180.860947 58.571995,181.778732 59.210068,182.949478 
	C64.701515,193.025223 78.539719,195.779633 89.587212,191.410065 
	C90.652367,190.988770 91.818939,190.823898 93.448685,190.907196 
	C95.450714,194.579620 97.603676,193.771545 100.040230,192.397110 
	C102.286140,191.130249 104.679947,190.125565 106.947784,189.319061 
	C106.837906,190.054703 106.788841,190.476654 106.739761,190.898605 
	C104.647987,192.084396 102.556206,193.270172 100.224922,194.699860 
z"/>
<path fill="#2C3752" opacity="1.000000" stroke="none" 
	d="
M146.774841,128.859436 
	C147.715683,124.026756 147.992493,119.023811 151.615112,115.020668 
	C152.190903,114.384415 151.486191,111.569054 150.529510,110.763626 
	C147.979004,108.616402 141.759674,109.776756 140.469833,112.884407 
	C138.724503,117.089455 135.582596,117.801018 131.403198,117.627769 
	C131.003708,116.876244 131.000580,116.434639 131.093658,115.750839 
	C131.476913,115.075752 131.763977,114.642860 132.379868,114.220184 
	C133.841599,113.599312 134.974503,112.968239 136.324371,112.463310 
	C137.026413,112.050217 137.511475,111.510971 138.207382,110.726929 
	C139.559235,109.964584 140.700241,109.447029 142.158020,108.913742 
	C143.005341,108.324280 143.535904,107.750542 144.020660,107.110832 
	C143.974838,107.044861 143.946808,106.886719 144.294800,106.919220 
	C145.487885,106.329483 146.332962,105.707245 147.484711,105.100716 
	C148.181091,105.010300 148.570816,104.904175 149.298950,104.817238 
	C150.286774,104.321251 150.936172,103.806068 151.891541,103.360138 
	C152.794022,103.260017 153.390564,103.090652 154.408051,102.980034 
	C158.733444,102.197983 158.480927,104.449226 157.569580,106.900398 
	C156.176590,110.646965 154.611450,114.329544 152.956345,118.310181 
	C152.777191,118.999466 152.761108,119.417847 152.384430,119.898849 
	C151.585373,121.561577 151.146927,123.161674 150.795471,124.794289 
	C150.882477,124.826813 150.737061,124.711205 150.395157,124.717171 
	C149.760895,125.492859 149.468536,126.262581 149.067078,127.321869 
	C148.947601,128.023514 148.937210,128.435608 148.657440,128.941223 
	C148.014587,129.097961 147.641159,129.161179 147.141266,129.137512 
	C147.014816,129.050629 146.774841,128.859436 146.774841,128.859436 
z"/>
<path fill="#22314F" opacity="1.000000" stroke="none" 
	d="
M127.291397,172.171814 
	C132.056595,162.210434 132.051346,150.450333 139.315506,141.350372 
	C142.191238,137.747879 143.924942,133.233719 146.476746,128.997040 
	C146.774841,128.859436 147.014816,129.050629 147.141998,129.523071 
	C141.202530,144.331635 135.135864,158.667725 128.836853,172.912170 
	C128.166794,172.604294 127.729095,172.388062 127.291397,172.171814 
z"/>
<path fill="#1F2E4E" opacity="1.000000" stroke="none" 
	d="
M126.822983,121.979019 
	C126.819435,123.167656 126.951866,124.376419 126.779686,125.540108 
	C126.536781,127.181763 126.068443,128.790070 125.660835,130.568115 
	C121.288673,131.549393 118.604454,134.362732 117.876602,139.207336 
	C117.644188,140.754288 116.628380,142.185440 115.960030,143.664627 
	C114.233025,147.486771 112.452286,150.975922 116.714119,154.803436 
	C118.197296,156.135468 117.635628,159.744415 117.748672,162.557434 
	C117.006393,162.505341 116.523308,162.209274 116.056458,161.682556 
	C116.072685,161.451935 115.932770,161.011215 115.977554,160.678665 
	C115.399292,159.503723 114.776253,158.661331 114.109146,157.858337 
	C114.065079,157.897736 114.180725,157.873230 114.202400,157.527908 
	C113.642532,156.526901 113.060989,155.871201 112.485672,155.109985 
	C112.491905,155.004471 112.297424,154.921600 112.278152,154.560852 
	C111.698402,151.778687 111.137924,149.357300 110.743958,146.641357 
	C110.943306,145.900620 110.976151,145.454437 111.322449,144.837814 
	C114.824394,136.353760 118.472961,128.312958 125.359680,122.029465 
	C126.043266,122.020248 126.433121,121.999634 126.822983,121.979019 
z"/>
<path fill="#273654" opacity="1.000000" stroke="none" 
	d="
M127.205887,172.526459 
	C127.729095,172.388062 128.166794,172.604294 128.850494,173.298798 
	C126.092125,181.115646 123.087753,188.454208 119.580330,197.021545 
	C123.312431,196.554855 126.119850,196.203812 128.927261,195.852753 
	C129.531372,196.981857 130.135498,198.110947 130.798462,199.548141 
	C127.134834,200.669632 123.412376,201.483017 120.076370,202.211975 
	C119.296471,199.626587 117.643707,197.182465 118.265717,195.680130 
	C120.850845,189.436295 117.411865,181.052185 125.045319,176.567413 
	C126.096191,175.950027 126.445984,174.139328 127.205887,172.526459 
z"/>
<path fill="#313D5B" opacity="1.000000" stroke="none" 
	d="
M107.129517,190.904388 
	C106.788841,190.476654 106.837906,190.054703 106.943451,189.316467 
	C106.999924,189.000168 107.005249,189.008392 107.328667,188.966339 
	C108.123070,188.291458 108.594055,187.658630 109.356689,186.915436 
	C110.432030,185.872955 111.215714,184.940857 112.315689,183.882217 
	C113.181290,182.577316 113.730598,181.398972 114.193100,180.185547 
	C114.106300,180.150452 114.251564,180.268631 114.558830,180.187744 
	C115.168098,179.393936 115.470093,178.681015 115.897675,177.684280 
	C116.045952,176.989609 116.068634,176.578735 116.394562,176.026291 
	C117.131287,175.906662 117.564766,175.928604 117.998245,175.950546 
	C117.740997,181.712479 112.196136,189.628250 107.129517,190.904388 
z"/>
<path fill="#D9E2EB" opacity="1.000000" stroke="none" 
	d="
M118.268539,175.703110 
	C117.564766,175.928604 117.131287,175.906662 116.335220,175.553146 
	C115.995163,170.785446 116.017693,166.349319 116.040222,161.913193 
	C116.523308,162.209274 117.006393,162.505341 117.691505,163.001938 
	C117.915825,163.903473 117.938118,164.604477 117.979652,165.981964 
	C118.052063,167.107422 118.105232,167.556396 118.158401,168.005386 
	C118.285210,170.488815 118.412018,172.972244 118.268539,175.703110 
z"/>
<path fill="#394560" opacity="1.000000" stroke="none" 
	d="
M127.025444,121.701996 
	C126.433121,121.999634 126.043266,122.020248 125.421745,121.697540 
	C126.573715,119.639519 127.957344,117.924820 129.619675,116.198273 
	C130.264740,116.121964 130.631104,116.057503 130.997467,115.993042 
	C131.000580,116.434639 131.003708,116.876244 130.996979,117.648743 
	C129.734055,119.128082 128.480972,120.276520 127.025444,121.701996 
z"/>
<path fill="#051B4A" opacity="1.000000" stroke="none" 
	d="
M116.572327,186.811096 
	C117.063431,187.024567 117.384071,187.400024 117.637573,187.816345 
	C117.660393,187.853821 117.249474,188.155380 117.039986,188.334305 
	C116.821236,187.884247 116.602486,187.434174 116.572327,186.811096 
z"/>
<path fill="#1F2E4E" opacity="1.000000" stroke="none" 
	d="
M118.407959,167.936600 
	C118.105232,167.556396 118.052063,167.107422 118.065895,166.323761 
	C118.307770,166.615326 118.482643,167.241577 118.407959,167.936600 
z"/>
<path fill="#F7F9F9" opacity="1.000000" stroke="none" 
	d="
M116.056450,161.682556 
	C116.017693,166.349319 115.995163,170.785446 116.031975,175.694717 
	C116.068634,176.578735 116.045952,176.989609 115.590302,177.767014 
	C114.855400,178.845230 114.553482,179.556931 114.251556,180.268631 
	C114.251564,180.268631 114.106300,180.150452 113.835831,180.159286 
	C110.229393,180.300980 111.288185,182.225723 111.999390,184.008759 
	C111.215714,184.940857 110.432030,185.872955 109.035866,186.954086 
	C107.950676,187.738205 107.477966,188.373306 107.005249,189.008392 
	C107.005249,189.008392 106.999924,189.000168 107.004257,189.002777 
	C104.679947,190.125565 102.286140,191.130249 100.040230,192.397110 
	C97.603676,193.771545 95.450714,194.579620 93.852921,190.917175 
	C94.217239,190.022964 94.687553,189.486008 95.800552,188.870956 
	C96.889244,188.110733 97.335251,187.428589 97.781265,186.746445 
	C97.781265,186.746445 97.895981,186.843292 98.177727,186.783264 
	C98.944008,185.780090 99.428535,184.836929 99.913071,183.893784 
	C99.913078,183.893784 99.884117,183.969498 100.229736,183.841904 
	C103.843246,178.560684 103.704712,174.079391 100.180954,170.956253 
	C96.092667,163.961105 88.911041,161.245773 82.134377,158.030365 
	C76.613678,155.410873 70.577156,153.652588 65.494507,150.384628 
	C56.033188,144.301285 51.836964,135.335968 54.267952,123.359650 
	C56.355072,119.312645 58.008110,115.828491 59.661148,112.344345 
	C59.931358,111.928375 60.201565,111.512398 61.110214,111.066559 
	C62.858883,109.752075 63.969112,108.467453 65.079346,107.182831 
	C65.079346,107.182831 65.061104,106.989174 65.320015,106.902969 
	C66.002228,106.757271 66.425529,106.697784 66.943207,106.994949 
	C68.011627,108.385498 68.985672,109.419388 69.916679,110.407608 
	C69.066002,112.429779 67.959229,114.173775 67.604561,116.059250 
	C66.165604,123.708939 66.744827,129.541656 72.133667,130.934830 
	C77.511566,133.914932 82.889465,136.895035 88.704498,140.346085 
	C90.169708,141.134781 91.197769,141.452530 92.225830,141.770279 
	C92.225830,141.770279 92.150566,141.968231 92.265976,142.236664 
	C93.771179,142.891174 95.160973,143.277267 96.550766,143.663361 
	C96.901512,143.654907 97.252266,143.646439 97.860596,144.165665 
	C102.544327,148.287262 103.705559,148.352234 105.049004,145.081161 
	C105.049004,145.081161 105.027374,145.010712 105.363190,144.951843 
	C107.512535,142.926682 109.271515,143.472290 111.008987,145.008255 
	C110.976151,145.454437 110.943306,145.900620 110.413620,146.645508 
	C109.147812,147.391998 108.378860,147.839783 107.609909,148.287567 
	C109.172409,150.498917 110.734917,152.710251 112.297424,154.921600 
	C112.297424,154.921600 112.491905,155.004471 112.398460,155.482758 
	C112.930252,156.598434 113.555489,157.235825 114.180725,157.873230 
	C114.180725,157.873230 114.065079,157.897736 114.050529,158.207047 
	C114.668243,159.347977 115.300507,160.179596 115.932770,161.011215 
	C115.932770,161.011215 116.072685,161.451935 116.056450,161.682556 
M106.467438,184.838837 
	C106.164650,184.895660 105.861855,184.952469 105.559067,185.009277 
	C105.859215,185.078720 106.159363,185.148163 106.467438,184.838837 
z"/>
<path fill="#041C4B" opacity="1.000000" stroke="none" 
	d="
M110.985237,115.965347 
	C111.763306,116.114609 112.541374,116.263863 113.319443,116.413124 
	C113.605843,116.859100 113.892250,117.305077 114.178650,117.751053 
	C111.082840,120.272812 107.936607,122.736679 104.927322,125.357765 
	C104.191544,125.998627 103.404755,127.204582 103.491051,128.065567 
	C104.104942,134.190430 99.573410,139.667053 94.169258,137.678772 
	C88.013855,135.414062 80.693848,134.171341 76.803879,127.957802 
	C75.167908,125.344635 74.094406,121.815605 74.304855,118.810738 
	C74.442467,116.845863 77.010681,114.343361 79.089752,113.392296 
	C82.028061,112.048172 85.496880,111.647606 88.783981,111.361755 
	C90.815552,111.185089 93.967636,111.244217 94.817673,112.457695 
	C97.572960,116.391083 101.652473,116.003006 106.073814,116.869812 
	C107.110115,116.856895 107.466515,116.862206 108.103096,117.001175 
	C109.244606,116.751549 110.105942,116.368263 110.975677,115.987152 
	C110.984085,115.989319 110.985237,115.965355 110.985237,115.965347 
z"/>
<path fill="#D5E0E9" opacity="1.000000" stroke="none" 
	d="
M107.822922,116.867508 
	C107.466515,116.862206 107.110115,116.856895 106.485847,116.855064 
	C103.621323,109.646873 97.407791,106.528175 90.819893,105.402336 
	C83.055885,104.075500 75.906281,106.854240 71.205757,113.626213 
	C67.365974,119.158134 68.182831,124.842163 72.073601,130.564117 
	C66.744827,129.541656 66.165604,123.708939 67.604561,116.059250 
	C67.959229,114.173775 69.066002,112.429779 69.916679,110.407608 
	C68.985672,109.419388 68.011627,108.385498 66.868561,106.719170 
	C66.811592,105.728989 66.923645,105.371239 67.035698,105.013489 
	C68.193466,104.474922 69.351227,103.936348 71.118843,103.220963 
	C72.761353,102.496986 73.794006,101.949829 74.826660,101.402679 
	C79.520462,100.870491 84.214256,99.926147 88.908058,99.926163 
	C93.290596,99.926186 97.673134,100.929100 102.474281,101.426682 
	C105.334335,102.603752 107.775772,103.844742 110.576332,105.079903 
	C110.935448,105.074081 110.942139,105.025703 111.016663,105.429108 
	C111.114418,106.890129 111.137642,107.947746 111.160866,109.005363 
	C110.957825,109.542465 110.754791,110.079559 110.284592,111.117416 
	C109.576012,113.034286 109.134590,114.450394 108.458054,115.934296 
	C107.960304,116.230820 107.826965,116.519295 107.822922,116.867508 
z"/>
<path fill="#D9E2EB" opacity="1.000000" stroke="none" 
	d="
M111.322449,144.837814 
	C109.271515,143.472290 107.512535,142.926682 105.396423,144.967743 
	C107.207443,132.682312 113.618141,122.692268 122.278267,113.955032 
	C123.430557,112.792488 124.702637,111.748688 126.403770,110.775558 
	C126.888298,110.901237 127.157043,111.150627 127.093513,111.542412 
	C127.800316,113.359505 128.570648,114.784813 129.340973,116.210129 
	C127.957344,117.924820 126.573715,119.639519 125.128021,121.686142 
	C118.472961,128.312958 114.824394,136.353760 111.322449,144.837814 
z"/>
<path fill="#D9E2EB" opacity="1.000000" stroke="none" 
	d="
M157.242340,96.123520 
	C165.998688,96.298218 174.932495,94.646774 183.688354,98.704376 
	C184.060608,98.751472 183.893509,98.856735 183.815872,99.259811 
	C183.048019,100.204712 182.357819,100.746544 181.320312,101.332108 
	C180.043228,101.362862 179.113449,101.349876 178.105957,100.918739 
	C176.500854,99.687538 175.010239,98.264793 173.439499,98.170013 
	C167.540436,97.814056 161.615234,97.891342 155.846542,97.558273 
	C156.409622,96.914680 156.825974,96.519104 157.242340,96.123520 
z"/>
<path fill="#D9E2EB" opacity="1.000000" stroke="none" 
	d="
M133.062729,105.030380 
	C133.938660,104.577866 134.814575,104.125359 136.222687,103.448349 
	C137.749069,102.643028 138.743271,102.062195 139.737473,101.481377 
	C140.975388,101.072495 142.213303,100.663605 143.978439,100.130875 
	C144.680420,100.065353 144.855194,100.123672 144.939087,100.510490 
	C140.940125,102.937172 137.032028,105.035355 133.016220,107.022270 
	C132.908508,106.911003 132.691589,106.689919 132.692566,106.401611 
	C132.816589,105.752335 132.939667,105.391357 133.062729,105.030380 
z"/>
<path fill="#CAD4DD" opacity="1.000000" stroke="none" 
	d="
M104.673630,145.277847 
	C103.705559,148.352234 102.544327,148.287262 98.056358,144.351318 
	C100.095772,144.497696 102.197006,144.986115 104.673630,145.277847 
z"/>
<path fill="#313D5B" opacity="1.000000" stroke="none" 
	d="
M156.803955,96.042625 
	C156.825974,96.519104 156.409622,96.914680 155.559784,97.496658 
	C154.746964,97.761917 154.367584,97.840782 153.575592,97.835449 
	C151.768677,97.796669 150.374374,97.842087 148.980087,97.887512 
	C151.441925,97.245583 153.903748,96.603661 156.803955,96.042625 
z"/>
<path fill="#D9E2EB" opacity="1.000000" stroke="none" 
	d="
M148.729614,98.010956 
	C150.374374,97.842087 151.768677,97.796669 153.448639,98.201401 
	C151.420746,99.061989 149.107162,99.472412 146.914551,99.607735 
	C147.146896,98.949524 147.258301,98.566414 147.369705,98.183311 
	C147.739517,98.167015 148.109314,98.150711 148.729614,98.010956 
z"/>
<path fill="#1B2B4C" opacity="1.000000" stroke="none" 
	d="
M111.477974,108.905899 
	C111.137642,107.947746 111.114418,106.890129 110.998901,105.445923 
	C113.450249,105.775467 113.538834,107.073715 111.477974,108.905899 
z"/>
<path fill="#1B2B4C" opacity="1.000000" stroke="none" 
	d="
M108.693176,115.866508 
	C109.134590,114.450394 109.576012,113.034286 110.330704,111.409531 
	C110.757759,112.471962 110.871529,113.743027 110.985275,115.489731 
	C110.985237,115.965355 110.984085,115.989319 110.596527,115.978134 
	C109.703697,115.933479 109.198441,115.899994 108.693176,115.866508 
z"/>
<path fill="#CAD4DD" opacity="1.000000" stroke="none" 
	d="
M96.432907,143.303711 
	C95.160973,143.277267 93.771179,142.891174 92.285477,142.132614 
	C93.564735,142.154770 94.939896,142.549408 96.432907,143.303711 
z"/>
<path fill="#D9E2EB" opacity="1.000000" stroke="none" 
	d="
M128.948700,108.946899 
	C129.132507,108.393524 129.316315,107.840149 130.086365,107.179489 
	C131.345612,106.944778 132.018600,106.817345 132.691589,106.689911 
	C132.691589,106.689919 132.908508,106.911003 132.869781,107.321114 
	C131.652954,108.261002 130.474838,108.790779 129.209778,109.227074 
	C129.122849,109.133591 128.948700,108.946899 128.948700,108.946899 
z"/>
<path fill="#313D5B" opacity="1.000000" stroke="none" 
	d="
M132.692566,106.401611 
	C132.018600,106.817345 131.345612,106.944778 130.333557,107.022278 
	C130.786011,106.308182 131.577530,105.644028 132.715881,105.005127 
	C132.939667,105.391357 132.816589,105.752335 132.692566,106.401611 
z"/>
<path fill="#313D5B" opacity="1.000000" stroke="none" 
	d="
M139.346497,101.357727 
	C138.743271,102.062195 137.749069,102.643028 136.397079,103.197998 
	C137.011353,102.526131 137.983429,101.880112 139.346497,101.357727 
z"/>
<path fill="#313D5B" opacity="1.000000" stroke="none" 
	d="
M147.010483,98.137527 
	C147.258301,98.566414 147.146896,98.949524 146.611145,99.591949 
	C145.801163,99.961510 145.415558,100.071747 145.029953,100.181992 
	C144.855194,100.123672 144.680420,100.065353 144.240189,99.930191 
	C144.866898,99.266144 145.759079,98.678940 147.010483,98.137527 
z"/>
<path fill="#CAD4DD" opacity="1.000000" stroke="none" 
	d="
M92.121216,141.448288 
	C91.197769,141.452530 90.169708,141.134781 89.053955,140.472137 
	C89.983040,140.460281 90.999817,140.793289 92.121216,141.448288 
z"/>
<path fill="#D9E2EB" opacity="1.000000" stroke="none" 
	d="
M126.752960,110.777588 
	C127.177681,110.105118 127.737724,109.556282 128.623230,108.977173 
	C128.948700,108.946899 129.122849,109.133591 129.059097,109.477585 
	C128.382584,110.264595 127.769814,110.707611 127.157043,111.150627 
	C127.157043,111.150627 126.888298,110.901237 126.752960,110.777588 
z"/>
<path fill="#CAD4DD" opacity="1.000000" stroke="none" 
	d="
M100.225288,171.364059 
	C103.704712,174.079391 103.843246,178.560684 100.219498,183.802689 
	C99.998962,179.851334 100.134293,175.811600 100.225288,171.364059 
z"/>
<path fill="#D5E0E9" opacity="1.000000" stroke="none" 
	d="
M59.308792,112.426224 
	C58.008110,115.828491 56.355072,119.312645 54.376762,122.904053 
	C54.042934,122.257698 54.034378,121.504097 53.983597,120.373489 
	C55.613060,117.500359 57.284748,115.004227 59.308792,112.426224 
z"/>
<path fill="#DBE4EC" opacity="1.000000" stroke="none" 
	d="
M99.603294,184.000839 
	C99.428535,184.836929 98.944008,185.780090 98.105713,186.762100 
	C98.265808,185.903259 98.779663,185.005585 99.603294,184.000839 
z"/>
<path fill="#DBE4EC" opacity="1.000000" stroke="none" 
	d="
M97.440781,186.765442 
	C97.335251,187.428589 96.889244,188.110733 96.103333,188.840607 
	C96.209068,188.187027 96.654686,187.485733 97.440781,186.765442 
z"/>
<path fill="#051B4A" opacity="1.000000" stroke="none" 
	d="
M202.443054,110.684326 
	C204.383423,111.653015 206.323792,112.621704 208.579269,113.643730 
	C212.531082,116.018074 213.014160,118.342941 211.631607,122.993408 
	C208.339813,134.066025 212.590729,143.441162 221.729797,151.217972 
	C223.249878,153.024673 225.148727,154.286606 225.385834,155.807602 
	C226.342361,161.943604 231.865952,161.079437 234.814880,160.649857 
	C239.997955,159.894806 243.845428,161.457352 247.385391,164.339981 
	C250.566849,166.930664 253.292816,170.109406 256.024475,173.201263 
	C256.622772,173.878464 256.639587,175.317642 256.505676,176.351715 
	C255.827164,181.590485 251.863388,184.642090 248.410400,187.975784 
	C247.771973,188.592133 246.605042,188.911026 245.672256,188.931961 
	C239.579163,189.068726 233.346146,189.895340 228.096207,185.643921 
	C228.342056,184.052261 228.900436,182.541458 228.408005,181.555466 
	C226.678604,178.092651 218.900009,176.435135 215.418045,178.630783 
	C213.380737,179.915482 211.611176,181.987747 209.417404,182.579422 
	C205.789749,183.557877 204.266617,180.078033 202.158142,177.478424 
	C202.878067,166.234833 197.530014,157.009354 194.387726,147.229034 
	C194.098312,146.328247 192.814713,145.746887 191.981903,144.598083 
	C190.490860,139.189911 188.986801,134.207748 187.542007,129.208435 
	C186.952164,127.167526 186.490723,125.089531 186.035858,122.651085 
	C186.063065,119.857262 186.417419,117.353119 185.901230,115.043533 
	C184.985291,110.945381 186.058929,108.470726 190.235001,107.730453 
	C193.601837,111.902718 197.547043,113.243919 202.443054,110.684326 
z"/>
<path fill="#F5F9F9" opacity="1.000000" stroke="none" 
	d="
M231.025589,126.998299 
	C231.319244,127.193832 231.477051,127.467659 231.346619,128.464523 
	C232.566605,130.360580 233.938995,131.611877 235.311401,132.863174 
	C235.822784,133.007904 236.334183,133.152634 236.943665,133.924942 
	C237.413071,135.551697 237.784393,136.550873 238.155701,137.550049 
	C238.789032,136.986252 239.422363,136.422470 240.385651,135.882477 
	C241.154190,135.917068 241.592743,135.927826 242.031311,135.938599 
	C242.031311,135.938599 241.996429,136.140396 242.042267,136.526550 
	C242.798203,137.242081 243.508301,137.571472 244.218414,137.900848 
	C244.628464,137.927109 245.038513,137.953369 245.793915,138.455643 
	C246.865326,139.239502 247.591370,139.547348 248.317429,139.855194 
	C260.997131,143.172089 272.642395,148.182602 277.755005,161.459854 
	C279.216888,165.256241 278.587097,169.858047 278.995422,174.548401 
	C278.966431,175.370239 278.858368,175.734207 278.508667,176.579254 
	C277.828156,178.363068 277.389282,179.665802 276.950409,180.968536 
	C276.950409,180.968536 277.002655,180.957230 276.795959,181.158936 
	C276.079102,181.575897 275.568909,181.791138 274.728729,182.085022 
	C274.028778,182.887238 273.658813,183.610809 273.288879,184.334396 
	C273.288879,184.334396 273.179382,184.201401 272.896179,184.246826 
	C272.268585,185.024078 271.924255,185.755920 271.579895,186.487747 
	C271.579895,186.487747 271.538971,186.548828 271.245514,186.562424 
	C270.791748,186.861298 270.631470,187.146576 270.471161,187.431854 
	C270.471161,187.431854 270.296844,187.221405 270.018372,187.191605 
	C264.595520,185.702850 264.673065,189.637054 263.961731,192.756561 
	C263.629883,192.924149 263.298035,193.091736 262.298401,193.182465 
	C259.377289,194.268082 257.123871,195.430588 254.870468,196.593079 
	C254.870468,196.593079 254.982941,196.797119 254.662521,196.838654 
	C253.885162,196.863495 253.428223,196.846786 252.716827,196.620605 
	C251.322266,196.963928 250.182144,197.516724 249.042007,198.069519 
	C249.042007,198.069519 249.163406,198.260452 248.814194,198.262848 
	C247.394882,198.631775 246.324783,198.998306 245.254684,199.364853 
	C245.254684,199.364853 244.882355,199.143188 244.882355,199.143188 
	C244.882355,199.143188 244.451797,199.192703 244.228317,199.093964 
	C242.913361,198.851562 241.821899,198.707901 240.372925,198.375336 
	C239.485535,197.638748 238.955627,197.091049 238.425735,196.543335 
	C239.324142,196.065582 240.178207,195.455536 241.129837,195.136444 
	C243.398331,194.375793 245.712921,193.752518 248.285095,192.974533 
	C248.950119,192.872314 249.338928,192.869308 250.078583,192.926270 
	C251.296539,192.401962 252.163681,191.817673 253.258728,191.060974 
	C253.862442,190.864487 254.238235,190.840378 254.993347,190.836411 
	C264.321838,188.214554 265.888397,176.178329 263.253601,170.787384 
	C262.767151,169.792038 261.432983,169.211029 260.730316,168.231995 
	C260.809418,168.163910 260.648285,168.302597 260.601105,168.087402 
	C257.355896,164.852463 253.996719,161.971359 250.637543,159.090271 
	C250.394058,159.478683 250.150574,159.867096 249.584091,160.225296 
	C248.849274,160.068939 248.437439,159.942764 247.945496,159.504456 
	C247.158325,158.868713 246.451294,158.545135 245.788269,158.172882 
	C245.832260,158.124222 245.805557,158.252701 245.749634,157.892334 
	C240.301483,155.424881 234.909286,153.317810 229.361206,151.242065 
	C229.205322,151.273376 228.998932,151.031494 228.918030,150.699539 
	C227.887939,149.912582 226.938766,149.457581 225.689285,148.965775 
	C224.986206,148.928116 224.583450,148.927246 224.180695,148.926376 
	C224.086258,148.555298 223.991821,148.184219 223.868866,147.182281 
	C223.155899,146.086243 222.471481,145.621048 221.787048,145.155838 
	C221.787048,145.155838 221.882324,145.123611 221.864471,144.793076 
	C220.743759,143.346512 219.640915,142.230499 218.538071,141.114471 
	C218.538071,141.114471 218.434479,140.997818 218.593567,140.507965 
	C217.540466,137.340683 216.328293,134.663284 215.116119,131.985870 
	C215.058533,130.275238 215.000961,128.564606 215.387054,126.277298 
	C216.077316,124.199776 216.323883,122.698906 216.570450,121.198044 
	C216.328262,120.917946 216.307831,120.622543 217.054535,120.036377 
	C217.855682,118.864342 218.111465,117.967751 218.367233,117.071167 
	C218.071747,116.791931 218.052399,116.494759 218.931183,116.068161 
	C220.196198,114.809944 220.839233,113.663223 221.482269,112.516502 
	C221.482269,112.516502 221.736618,112.819557 221.982910,112.727264 
	C223.414185,111.329613 224.599182,110.024261 225.784180,108.718910 
	C225.784180,108.718910 225.805069,108.820244 226.095947,108.811058 
	C226.915100,108.185020 227.443390,107.568169 227.971680,106.951317 
	C227.971680,106.951317 227.982346,107.007072 228.315826,107.005882 
	C229.432220,106.316780 230.215118,105.628876 230.998016,104.940964 
	C231.040985,104.690956 231.165176,104.491600 231.543915,104.378250 
	C232.837341,105.731918 233.957443,107.050247 235.117310,108.837311 
	C234.638412,110.101295 234.119751,110.896538 233.000854,111.937592 
	C232.000839,112.935623 231.601074,113.687843 231.201294,114.440063 
	C231.179138,114.802322 231.156982,115.164574 230.645981,115.885139 
	C229.945602,117.105484 229.734070,117.967522 229.522522,118.829559 
	C229.554794,120.079857 229.587082,121.330147 229.430725,123.284622 
	C229.836609,124.991966 230.431091,125.995132 231.025589,126.998299 
z"/>
<path fill="#192848" opacity="1.000000" stroke="none" 
	d="
M228.998932,151.031494 
	C228.998932,151.031494 229.205322,151.273376 229.461502,151.600647 
	C235.080307,154.036179 240.442932,156.144440 245.805557,158.252701 
	C245.805557,158.252701 245.832260,158.124222 245.813477,158.511871 
	C246.538345,159.205200 247.281982,159.510895 248.025620,159.816605 
	C248.437439,159.942764 248.849274,160.068939 249.600525,160.578796 
	C253.455673,163.455414 256.971405,165.948349 260.487122,168.441269 
	C260.648285,168.302597 260.809418,168.163910 260.841492,168.620529 
	C261.299072,171.713608 262.048981,174.186050 262.440735,176.714020 
	C263.474457,183.384811 258.182587,186.642578 254.614044,190.816284 
	C254.238235,190.840378 253.862442,190.864487 252.919312,191.030716 
	C251.477264,191.737335 250.602509,192.301819 249.727753,192.866287 
	C249.338928,192.869308 248.950119,192.872314 247.821594,192.909576 
	C243.930984,193.002594 240.754547,193.344803 237.634323,193.063492 
	C230.216263,192.394684 224.087906,189.502533 221.179382,181.998734 
	C223.595749,183.199738 225.761307,184.582596 227.926865,185.965454 
	C233.346146,189.895340 239.579163,189.068726 245.672256,188.931961 
	C246.605042,188.911026 247.771973,188.592133 248.410400,187.975784 
	C251.863388,184.642090 255.827164,181.590485 256.505676,176.351715 
	C256.639587,175.317642 256.622772,173.878464 256.024475,173.201263 
	C253.292816,170.109406 250.566849,166.930664 247.385391,164.339981 
	C243.845428,161.457352 239.997955,159.894806 234.814880,160.649857 
	C231.865952,161.079437 226.342361,161.943604 225.385834,155.807602 
	C225.148727,154.286606 223.249878,153.024673 222.056427,151.282898 
	C222.514587,150.305328 223.031204,149.688538 223.864258,148.999069 
	C224.583450,148.927246 224.986206,148.928116 225.784210,149.297363 
	C227.119293,150.120972 228.059113,150.576233 228.998932,151.031494 
z"/>
<path fill="#E0E9F0" opacity="1.000000" stroke="none" 
	d="
M215.051697,132.371277 
	C216.328293,134.663284 217.540466,137.340683 218.624344,140.436279 
	C217.326462,138.155212 216.156860,135.455933 215.051697,132.371277 
z"/>
<path fill="#E0E9F0" opacity="1.000000" stroke="none" 
	d="
M225.434433,108.676888 
	C224.599182,110.024261 223.414185,111.329613 221.873657,112.562347 
	C222.706970,111.204773 223.895828,109.919823 225.434433,108.676888 
z"/>
<path fill="#E0E9F0" opacity="1.000000" stroke="none" 
	d="
M218.533295,141.472137 
	C219.640915,142.230499 220.743759,143.346512 221.842789,144.838455 
	C220.735489,144.086182 219.631989,142.957993 218.533295,141.472137 
z"/>
<path fill="#E0E9F0" opacity="1.000000" stroke="none" 
	d="
M221.144165,112.551880 
	C220.839233,113.663223 220.196198,114.809944 219.148407,115.954636 
	C219.431107,114.830826 220.118591,113.709045 221.144165,112.551880 
z"/>
<path fill="#E0E9F0" opacity="1.000000" stroke="none" 
	d="
M216.218063,121.366974 
	C216.323883,122.698906 216.077316,124.199776 215.469101,125.855942 
	C215.360199,124.519470 215.612930,123.027687 216.218063,121.366974 
z"/>
<path fill="#E0E9F0" opacity="1.000000" stroke="none" 
	d="
M230.656586,104.941757 
	C230.215118,105.628876 229.432220,106.316780 228.296967,106.984512 
	C228.734802,106.290405 229.524979,105.616478 230.656586,104.941757 
z"/>
<path fill="#E0E9F0" opacity="1.000000" stroke="none" 
	d="
M221.814056,145.501450 
	C222.471481,145.621048 223.155899,146.086243 223.870148,146.894684 
	C223.213654,146.774307 222.527359,146.310684 221.814056,145.501450 
z"/>
<path fill="#E0E9F0" opacity="1.000000" stroke="none" 
	d="
M218.063385,117.269562 
	C218.111465,117.967751 217.855682,118.864342 217.224701,119.871773 
	C217.152847,119.144402 217.456192,118.306183 218.063385,117.269562 
z"/>
<path fill="#505C73" opacity="1.000000" stroke="none" 
	d="
M259.088104,100.182541 
	C258.583252,100.406662 258.010071,100.398590 257.220398,100.184540 
	C257.675873,99.969162 258.347809,99.959763 259.088104,100.182541 
z"/>
<path fill="#E0E9F0" opacity="1.000000" stroke="none" 
	d="
M227.622421,106.954247 
	C227.443390,107.568169 226.915100,108.185020 226.050903,108.785583 
	C226.234406,108.165253 226.753784,107.561211 227.622421,106.954247 
z"/>
<path fill="#D5E0E9" opacity="1.000000" stroke="none" 
	d="
M64.740570,107.204239 
	C63.969112,108.467453 62.858883,109.752075 61.369568,111.013947 
	C62.127594,109.736008 63.264702,108.480827 64.740570,107.204239 
z"/>
<path fill="#1B2B4C" opacity="1.000000" stroke="none" 
	d="
M74.426727,101.303024 
	C73.794006,101.949829 72.761353,102.496986 71.363892,103.003883 
	C72.008316,102.376869 73.017548,101.790115 74.426727,101.303024 
z"/>
<path fill="#1B2B4C" opacity="1.000000" stroke="none" 
	d="
M54.985992,111.349442 
	C54.694981,110.828987 54.654186,110.314011 54.613388,109.799034 
	C54.879826,109.804985 55.146263,109.810936 55.412704,109.816887 
	C55.353874,110.329567 55.295040,110.842247 54.985992,111.349442 
z"/>
<path fill="#1B2B4C" opacity="1.000000" stroke="none" 
	d="
M66.731567,105.055786 
	C66.923645,105.371239 66.811592,105.728989 66.774185,106.362518 
	C66.425529,106.697784 66.002228,106.757271 65.258453,106.827667 
	C65.434471,106.258415 65.930954,105.678246 66.731567,105.055786 
z"/>
<path fill="#DDE6EE" opacity="1.000000" stroke="none" 
	d="
M128.908966,195.627625 
	C126.119850,196.203812 123.312431,196.554855 119.580330,197.021545 
	C123.087753,188.454208 126.092125,181.115646 129.082855,173.390442 
	C135.135864,158.667725 141.202530,144.331635 147.268463,129.609955 
	C147.641159,129.161179 148.014587,129.097961 148.772919,129.287857 
	C150.964325,131.661392 152.388824,132.054291 153.629333,128.927643 
	C153.928970,128.172424 155.423309,127.891197 156.498901,127.760468 
	C152.098099,139.186646 147.541824,150.234329 143.061935,161.312912 
	C142.390701,162.972855 142.077316,164.777496 141.416489,167.175110 
	C152.187653,167.175110 161.945786,167.185043 171.703873,167.169601 
	C175.011856,167.164368 174.900009,165.006683 174.410995,162.692703 
	C173.939453,160.461456 173.413986,158.241592 173.260971,156.115875 
	C174.730835,159.700790 176.148804,163.125809 176.878647,166.691681 
	C177.456619,169.515579 176.588226,171.608154 172.786957,170.443619 
	C169.800400,169.528641 170.344543,171.416718 170.906219,173.377960 
	C170.139984,173.929520 169.529984,174.259140 168.919998,174.588760 
	C168.201462,174.515457 167.482941,174.442139 166.277802,174.255249 
	C165.173538,174.296967 164.555893,174.452255 163.489960,174.481384 
	C158.363892,174.485565 153.686096,174.615891 149.008316,174.746216 
	C148.553635,174.644745 148.098969,174.543289 146.967224,174.422485 
	C145.536041,174.491501 144.781921,174.579849 144.027786,174.668198 
	C142.270279,174.614182 140.512772,174.560165 138.040771,174.727234 
	C137.007065,175.655472 136.687866,176.362610 136.368668,177.069763 
	C136.157501,177.690536 135.946335,178.311295 135.443634,179.347168 
	C134.919739,180.536530 134.687378,181.310776 134.455017,182.085037 
	C133.147491,185.237610 131.839966,188.390198 130.244019,192.012131 
	C129.677048,193.325424 129.398499,194.169357 129.119949,195.013290 
	C129.119949,195.013290 128.890671,195.402496 128.908966,195.627625 
z"/>
<path fill="#384663" opacity="1.000000" stroke="none" 
	d="
M169.178101,174.890610 
	C169.529984,174.259140 170.139984,173.929520 171.226196,173.458755 
	C172.130844,173.242203 172.559265,173.166809 173.304550,173.268967 
	C175.058807,173.663025 176.496216,173.879517 177.966187,174.069427 
	C177.998749,174.042847 177.915894,174.057159 177.924377,174.398544 
	C178.595139,175.882370 179.257416,177.024811 179.868362,178.475861 
	C179.919907,179.182251 180.022766,179.580017 180.070602,180.353928 
	C180.615601,181.952759 181.215622,183.175461 181.795349,184.725586 
	C181.913101,185.692749 182.051163,186.332489 182.151611,187.318665 
	C182.702103,188.821701 183.290192,189.978271 183.927826,191.105438 
	C183.977356,191.076019 183.863144,191.091232 183.819733,191.497620 
	C183.670425,195.474136 185.367950,196.917816 188.948425,196.750427 
	C193.235504,196.550018 197.545593,196.826126 201.830429,196.602783 
	C203.266510,196.527924 204.655716,195.553680 206.343292,194.973969 
	C206.804916,194.946884 206.989578,194.936371 207.174240,194.925842 
	C206.423492,196.205215 205.634003,198.614059 204.927948,198.589859 
	C197.588257,198.338058 190.261978,197.694839 182.628326,196.961960 
	C180.733871,190.779144 179.693008,184.556305 177.257904,178.937729 
	C176.390106,176.935440 172.141556,176.398361 169.178101,174.890610 
z"/>
<path fill="#0F1C40" opacity="1.000000" stroke="none" 
	d="
M149.115051,175.139618 
	C153.686096,174.615891 158.363892,174.485565 163.524811,174.809967 
	C164.058563,175.479080 164.109177,175.693466 164.159775,175.907852 
	C159.180450,175.782913 154.201111,175.657974 149.115051,175.139618 
z"/>
<path fill="#0F1C40" opacity="1.000000" stroke="none" 
	d="
M143.925140,174.969360 
	C144.781921,174.579849 145.536041,174.491501 146.641266,174.569489 
	C145.911255,175.486115 144.830170,176.236374 143.366043,176.985382 
	C143.262848,176.412918 143.542679,175.841721 143.925140,174.969360 
z"/>
<path fill="#384663" opacity="1.000000" stroke="none" 
	d="
M164.453476,175.834442 
	C164.109177,175.693466 164.058563,175.479080 163.973083,174.936127 
	C164.555893,174.452255 165.173538,174.296967 165.930603,174.369370 
	C165.629089,174.985062 165.188126,175.373032 164.453476,175.834442 
z"/>
<path fill="#E0E9F0" opacity="1.000000" stroke="none" 
	d="
M240.055695,135.858673 
	C239.422363,136.422470 238.789032,136.986252 238.155701,137.550049 
	C237.784393,136.550873 237.413071,135.551697 237.065796,134.168945 
	C237.509338,133.865860 237.928848,133.946365 238.669006,134.027161 
	C238.989685,134.027451 239.180466,134.271378 239.427856,134.546982 
	C239.802078,135.167953 239.928894,135.513306 240.055695,135.858673 
z"/>
<path fill="#445067" opacity="1.000000" stroke="none" 
	d="
M240.385651,135.882477 
	C239.928894,135.513306 239.802078,135.167953 239.582275,134.558289 
	C240.272064,134.619354 241.054810,134.944702 241.934448,135.604324 
	C241.592743,135.927826 241.154190,135.917068 240.385651,135.882477 
z"/>
<path fill="#E0E9F0" opacity="1.000000" stroke="none" 
	d="
M248.191757,139.569916 
	C247.591370,139.547348 246.865326,139.239502 246.054169,138.623138 
	C246.668091,138.637970 247.367081,138.961304 248.191757,139.569916 
z"/>
<path fill="#E0E9F0" opacity="1.000000" stroke="none" 
	d="
M244.129883,137.589874 
	C243.508301,137.571472 242.798203,137.242081 241.989990,136.614578 
	C242.608368,136.637268 243.324875,136.958069 244.129883,137.589874 
z"/>
<path fill="#18284A" opacity="1.000000" stroke="none" 
	d="
M207.392303,194.704437 
	C206.989578,194.936371 206.804916,194.946884 206.241882,194.640686 
	C205.244324,193.214966 204.625168,192.105972 204.009521,190.662933 
	C203.930008,189.895325 203.846985,189.461716 203.826660,188.692261 
	C203.300613,187.484894 202.711853,186.613373 202.167908,185.447662 
	C202.115982,184.772583 202.019241,184.391739 201.982224,183.608597 
	C201.864655,181.606934 201.687378,180.007553 201.693558,178.297592 
	C201.877014,178.187012 202.219269,177.929367 202.219269,177.929367 
	C204.266617,180.078033 205.789749,183.557877 209.417404,182.579422 
	C211.611176,181.987747 213.380737,179.915482 215.418045,178.630783 
	C218.900009,176.435135 226.678604,178.092651 228.408005,181.555466 
	C228.900436,182.541458 228.342056,184.052261 228.096207,185.643921 
	C225.761307,184.582596 223.595749,183.199738 220.791595,181.896271 
	C215.503052,183.626129 213.079590,191.229904 216.119675,195.387741 
	C217.674942,196.053741 219.103317,196.360596 220.881256,196.646881 
	C222.131088,196.835648 223.031342,197.045013 223.913727,197.532043 
	C223.939972,198.177094 223.984116,198.544495 224.028259,198.911896 
	C222.936249,199.270676 221.844238,199.629440 220.389801,199.989166 
	C215.351715,199.039047 211.317963,197.334045 210.433701,190.702682 
	C209.140747,192.433884 208.375549,193.458450 207.392303,194.704437 
z"/>
<path fill="#D9E2EA" opacity="1.000000" stroke="none" 
	d="
M215.992783,195.028595 
	C213.079590,191.229904 215.503052,183.626129 220.540771,182.078125 
	C224.087906,189.502533 230.216263,192.394684 237.634323,193.063492 
	C240.754547,193.344803 243.930984,193.002594 247.545380,193.008789 
	C245.712921,193.752518 243.398331,194.375793 241.129837,195.136444 
	C240.178207,195.455536 239.324142,196.065582 238.425735,196.543335 
	C238.955627,197.091049 239.485535,197.638748 240.288239,198.620224 
	C240.365082,199.335464 240.169113,199.616913 239.973145,199.898376 
	C239.231888,199.853928 238.490631,199.809509 237.381805,199.826569 
	C234.910553,199.393265 232.806885,198.898514 230.333710,198.458939 
	C228.907806,198.370651 227.851440,198.227158 226.238342,197.806763 
	C225.098282,197.438034 224.514954,197.346207 223.931610,197.254379 
	C223.031342,197.045013 222.131088,196.835648 220.685776,196.334381 
	C218.758087,195.704529 217.375427,195.366562 215.992783,195.028595 
z"/>
<path fill="#D9E2EA" opacity="1.000000" stroke="none" 
	d="
M264.306030,192.746490 
	C264.673065,189.637054 264.595520,185.702850 270.083496,187.311737 
	C268.501495,189.219925 266.575928,190.978180 264.306030,192.746490 
z"/>
<path fill="#D9E2EA" opacity="1.000000" stroke="none" 
	d="
M255.236389,196.641113 
	C257.123871,195.430588 259.377289,194.268082 262.013550,193.143677 
	C260.131683,194.350906 257.867004,195.520020 255.236389,196.641113 
z"/>
<path fill="#3E4C65" opacity="1.000000" stroke="none" 
	d="
M240.230042,200.137573 
	C240.169113,199.616913 240.365082,199.335464 240.645737,198.809128 
	C241.821899,198.707901 242.913361,198.851562 244.085953,199.257019 
	C242.940369,199.804810 241.713654,200.090805 240.230042,200.137573 
z"/>
<path fill="#213151" opacity="1.000000" stroke="none" 
	d="
M277.312012,180.862473 
	C277.389282,179.665802 277.828156,178.363068 278.564362,176.861496 
	C278.465668,178.027237 278.069641,179.391815 277.312012,180.862473 
z"/>
<path fill="#D9E2EA" opacity="1.000000" stroke="none" 
	d="
M249.428314,198.157196 
	C250.182144,197.516724 251.322266,196.963928 252.696182,196.880432 
	C252.939484,197.523209 252.949005,197.696701 252.958511,197.870193 
	C251.910538,197.995087 250.862579,198.119980 249.428314,198.157196 
z"/>
<path fill="#213151" opacity="1.000000" stroke="none" 
	d="
M275.058746,182.006378 
	C275.568909,181.791138 276.079102,181.575897 276.770935,181.148987 
	C276.497223,181.897964 276.041840,182.858612 275.267090,183.563934 
	C274.984711,182.874542 275.021729,182.440445 275.058746,182.006378 
z"/>
<path fill="#3E4C65" opacity="1.000000" stroke="none" 
	d="
M245.598068,199.549469 
	C246.324783,198.998306 247.394882,198.631775 248.811218,198.375916 
	C248.085434,198.902435 247.013443,199.318253 245.598068,199.549469 
z"/>
<path fill="#3E4C65" opacity="1.000000" stroke="none" 
	d="
M253.115372,198.092743 
	C252.949005,197.696701 252.939484,197.523209 252.950623,197.089905 
	C253.428223,196.846786 253.885162,196.863495 254.676956,196.954254 
	C254.431961,197.457321 253.852097,197.886322 253.115372,198.092743 
z"/>
<path fill="#D9E2EA" opacity="1.000000" stroke="none" 
	d="
M274.728729,182.085007 
	C275.021729,182.440445 274.984711,182.874542 274.926636,183.635117 
	C274.553802,184.089737 274.202057,184.217865 273.569580,184.340210 
	C273.658813,183.610809 274.028778,182.887238 274.728729,182.085007 
z"/>
<path fill="#D9E2EA" opacity="1.000000" stroke="none" 
	d="
M271.889709,186.422485 
	C271.924255,185.755920 272.268585,185.024078 272.972168,184.287354 
	C272.954102,184.974045 272.576813,185.665634 271.889709,186.422485 
z"/>
<path fill="#D9E2EA" opacity="1.000000" stroke="none" 
	d="
M270.730103,187.431641 
	C270.631470,187.146576 270.791748,186.861298 271.214996,186.582916 
	C271.314972,186.870361 271.151978,187.150894 270.730103,187.431641 
z"/>
<path fill="#AFBED5" opacity="1.000000" stroke="none" 
	d="
M181.667618,101.288376 
	C182.357819,100.746544 183.048019,100.204712 183.854919,99.350510 
	C184.141876,98.992935 184.312164,98.947731 184.878754,99.186935 
	C185.615601,99.608742 185.956146,99.746147 186.296692,99.883545 
	C186.296692,99.883545 186.061508,99.845398 186.176102,100.011497 
	C186.873596,100.084488 187.456482,99.991386 188.039383,99.898285 
	C189.787994,100.566025 191.536621,101.233765 193.733337,102.290108 
	C194.125977,103.138290 194.070496,103.597870 193.583038,104.079094 
	C190.109589,103.687744 187.068085,103.274757 183.830261,102.647308 
	C182.978485,102.051361 182.323059,101.669868 181.667618,101.288376 
z"/>
<path fill="#313D5B" opacity="1.000000" stroke="none" 
	d="
M194.015015,104.057449 
	C194.070496,103.597870 194.125977,103.138290 194.103790,102.337997 
	C195.948822,102.738777 197.871506,103.480270 199.896698,104.546326 
	C199.741089,105.141754 199.483002,105.412621 198.707703,105.702530 
	C196.798660,105.166870 195.406830,104.612160 194.015015,104.057449 
z"/>
<path fill="#D9E2EB" opacity="1.000000" stroke="none" 
	d="
M187.723816,99.821037 
	C187.456482,99.991386 186.873596,100.084488 186.202362,99.895309 
	C186.545441,99.656609 186.976837,99.700195 187.723816,99.821037 
z"/>
<path fill="#D9E2EB" opacity="1.000000" stroke="none" 
	d="
M186.193237,99.592133 
	C185.956146,99.746147 185.615601,99.608742 185.139603,99.229256 
	C185.366028,99.091682 185.727905,99.196205 186.193237,99.592133 
z"/>
<path fill="#273654" opacity="1.000000" stroke="none" 
	d="
M129.461639,194.895462 
	C129.398499,194.169357 129.677048,193.325424 130.294250,192.371277 
	C130.356369,193.099915 130.079849,193.938766 129.461639,194.895462 
z"/>
<path fill="#384663" opacity="1.000000" stroke="none" 
	d="
M136.661346,177.006805 
	C136.687866,176.362610 137.007065,175.655472 137.649689,174.944717 
	C137.633408,175.608673 137.293701,176.276260 136.661346,177.006805 
z"/>
<path fill="#384663" opacity="1.000000" stroke="none" 
	d="
M134.756989,181.980011 
	C134.687378,181.310776 134.919739,180.536530 135.463287,179.676208 
	C135.535965,180.351761 135.297470,181.113358 134.756989,181.980011 
z"/>
<path fill="#E0E9F0" opacity="1.000000" stroke="none" 
	d="
M235.221649,132.518921 
	C233.938995,131.611877 232.566605,130.360580 231.268707,128.696075 
	C232.606094,129.580154 233.869003,130.877411 235.221649,132.518921 
z"/>
<path fill="#E0E9F0" opacity="1.000000" stroke="none" 
	d="
M231.030838,126.636871 
	C230.431091,125.995132 229.836609,124.991966 229.366852,123.593384 
	C230.006439,124.223785 230.521271,125.249611 231.030838,126.636871 
z"/>
<path fill="#E0E9F0" opacity="1.000000" stroke="none" 
	d="
M229.807861,118.647713 
	C229.734070,117.967522 229.945602,117.105484 230.496109,116.115707 
	C230.587784,116.813942 230.340485,117.639908 229.807861,118.647713 
z"/>
<path fill="#E0E9F0" opacity="1.000000" stroke="none" 
	d="
M231.533249,114.347420 
	C231.601074,113.687843 232.000839,112.935623 232.740173,112.098022 
	C232.674911,112.760033 232.270065,113.507408 231.533249,114.347420 
z"/>
<path fill="#16284B" opacity="1.000000" stroke="none" 
	d="
M193.583038,104.079102 
	C195.406830,104.612160 196.798660,105.166870 198.452942,105.825638 
	C199.875748,107.305115 201.036102,108.680527 202.319763,110.370132 
	C197.547043,113.243919 193.601837,111.902718 190.235001,107.730453 
	C186.058929,108.470726 184.985291,110.945381 185.901230,115.043533 
	C186.417419,117.353119 186.063065,119.857262 185.787872,122.518707 
	C184.970062,122.518059 184.465240,122.272461 183.981598,122.020309 
	C184.002747,122.013763 183.962845,122.040375 184.025467,121.640305 
	C183.401733,119.492531 182.715378,117.744835 181.931229,115.808701 
	C181.833450,115.620255 181.902649,115.201332 181.967789,114.742783 
	C182.697479,110.476746 183.362045,106.669258 184.026596,102.861771 
	C187.068085,103.274757 190.109589,103.687744 193.583038,104.079102 
z"/>
<path fill="#3E4C65" opacity="1.000000" stroke="none" 
	d="
M223.913727,197.532043 
	C224.514954,197.346207 225.098282,197.438034 225.838928,197.786942 
	C225.528107,198.320221 225.060013,198.596420 224.310089,198.892242 
	C223.984116,198.544495 223.939972,198.177094 223.913727,197.532043 
z"/>
<path fill="#F8FAFA" opacity="1.000000" stroke="none" 
	d="
M181.902649,115.201332 
	C181.902649,115.201332 181.833450,115.620255 181.883575,116.187393 
	C182.610062,118.516487 183.286453,120.278427 183.962845,122.040375 
	C183.962845,122.040375 184.002747,122.013763 183.918335,122.438232 
	C184.363953,124.938034 184.853989,127.024567 185.431366,129.086655 
	C187.283356,135.701111 189.167648,142.306519 190.989044,149.281494 
	C191.580597,150.759308 192.222580,151.871063 192.897461,153.296982 
	C193.081543,154.423233 193.232758,155.235321 193.115295,156.168274 
	C194.114288,159.873688 195.381958,163.458252 196.846863,167.314972 
	C197.152008,168.020676 197.259918,168.454224 197.124908,169.031601 
	C197.247528,169.784912 197.613052,170.394363 198.127594,171.233749 
	C198.253235,171.822037 198.229843,172.180420 198.133057,172.998383 
	C197.915955,177.499527 197.595581,181.605743 201.922485,184.010880 
	C202.019241,184.391739 202.115982,184.772583 202.105927,185.796204 
	C202.587402,187.302032 203.175674,188.165070 203.763947,189.028122 
	C203.846985,189.461716 203.930008,189.895325 203.670441,190.757538 
	C200.665329,192.341080 198.046921,193.614502 195.330551,194.624496 
	C190.663696,196.359726 187.575500,192.643356 183.863144,191.091232 
	C183.863144,191.091232 183.977356,191.076019 183.988907,190.740921 
	C183.396698,189.261292 182.792953,188.116760 182.189209,186.972229 
	C182.051163,186.332489 181.913101,185.692749 181.857269,184.340714 
	C181.334869,182.411545 180.730255,181.194672 180.125626,179.977798 
	C180.022766,179.580017 179.919907,179.182251 179.925552,178.094345 
	C179.328003,176.288528 178.621948,175.172852 177.915894,174.057159 
	C177.915894,174.057159 177.998749,174.042847 177.925171,173.714554 
	C176.230286,173.287979 174.608994,173.189697 172.987686,173.091415 
	C172.559265,173.166809 172.130844,173.242203 171.382446,173.236816 
	C170.344543,171.416718 169.800400,169.528641 172.786957,170.443619 
	C176.588226,171.608154 177.456619,169.515579 176.878647,166.691681 
	C176.148804,163.125809 174.730835,159.700790 173.156006,155.997345 
	C172.702316,155.779678 172.786377,155.474396 172.867401,155.085266 
	C172.333389,153.458527 171.718338,152.220901 170.976044,150.620209 
	C168.020355,141.818344 165.236649,133.363937 162.308426,124.959908 
	C161.930420,123.875008 160.804321,123.050774 159.845230,121.894836 
	C159.150238,122.171318 158.634750,122.658760 158.073120,123.092728 
	C158.026947,123.039253 158.145569,123.116020 157.776184,123.199844 
	C157.063019,124.645699 156.719269,126.007729 156.361725,127.371002 
	C156.347931,127.372246 156.368240,127.391991 156.368240,127.391998 
	C155.423309,127.891197 153.928970,128.172424 153.629333,128.927643 
	C152.388824,132.054291 150.964325,131.661392 149.042328,129.194321 
	C148.937210,128.435608 148.947601,128.023514 149.377380,127.230446 
	C150.110184,126.136703 150.423615,125.423950 150.737061,124.711205 
	C150.737061,124.711205 150.882477,124.826813 151.140289,124.778755 
	C151.943085,123.838516 152.488052,122.946342 153.284760,121.972595 
	C153.403091,121.262398 153.269653,120.633781 153.054321,119.926117 
	C152.972412,119.847069 152.745026,119.836227 152.745026,119.836227 
	C152.761108,119.417847 152.777191,118.999466 153.287445,118.225380 
	C157.244476,114.196609 160.349091,110.305237 159.927017,104.861244 
	C159.828827,103.594742 158.901749,101.339249 158.409317,101.353706 
	C156.921188,101.397385 155.459259,102.333199 153.987106,102.921280 
	C153.390564,103.090652 152.794022,103.260017 151.543030,103.298248 
	C150.245880,103.710754 149.603210,104.254395 148.960541,104.798042 
	C148.570816,104.904175 148.181091,105.010300 147.133118,105.056335 
	C145.632187,105.626396 144.789490,106.256554 143.946808,106.886719 
	C143.946808,106.886719 143.974838,107.044861 143.722900,107.080917 
	C143.072708,107.131111 142.674469,107.145241 141.899963,107.143646 
	C138.366150,109.488609 135.208588,111.849289 132.051025,114.209976 
	C131.763977,114.642860 131.476913,115.075752 131.093658,115.750839 
	C130.631104,116.057503 130.264740,116.121964 129.619675,116.198273 
	C128.570648,114.784813 127.800316,113.359505 127.093513,111.542412 
	C127.769814,110.707611 128.382584,110.264595 129.146027,109.571068 
	C130.474838,108.790779 131.652954,108.261002 132.977509,107.432381 
	C137.032028,105.035355 140.940125,102.937172 144.939087,100.510490 
	C145.415558,100.071747 145.801163,99.961510 146.490173,99.867050 
	C149.107162,99.472412 151.420746,99.061989 153.861267,98.285599 
	C154.367584,97.840782 154.746964,97.761917 155.413086,97.744675 
	C161.615234,97.891342 167.540436,97.814056 173.439499,98.170013 
	C175.010239,98.264793 176.500854,99.687538 178.028046,101.194839 
	C177.881226,102.241898 177.734619,102.594719 177.299286,103.032043 
	C177.356491,104.075249 177.702438,105.033951 178.188904,106.335770 
	C179.520493,109.519714 180.711578,112.360519 181.902649,115.201332 
z"/>
<path fill="#D9E2EB" opacity="1.000000" stroke="none" 
	d="
M154.408051,102.980042 
	C155.459259,102.333199 156.921188,101.397385 158.409317,101.353706 
	C158.901749,101.339249 159.828827,103.594742 159.927017,104.861244 
	C160.349091,110.305237 157.244476,114.196609 153.450500,117.954483 
	C154.611450,114.329544 156.176590,110.646965 157.569580,106.900398 
	C158.480927,104.449226 158.733444,102.197983 154.408051,102.980042 
z"/>
<path fill="#D9E2EB" opacity="1.000000" stroke="none" 
	d="
M132.379868,114.220184 
	C135.208588,111.849289 138.366150,109.488609 141.852570,107.444664 
	C142.068024,108.150757 141.954636,108.540123 141.841232,108.929474 
	C140.700241,109.447029 139.559235,109.964584 137.896072,110.787323 
	C136.951736,111.507385 136.529556,111.922272 136.107391,112.337166 
	C134.974503,112.968239 133.841599,113.599312 132.379868,114.220184 
z"/>
<path fill="#D9E2EB" opacity="1.000000" stroke="none" 
	d="
M153.033020,122.054169 
	C152.488052,122.946342 151.943085,123.838516 151.053299,124.746231 
	C151.146927,123.161674 151.585373,121.561577 152.384430,119.898849 
	C152.745026,119.836227 152.972412,119.847069 153.018677,120.266075 
	C153.054291,121.141441 153.043655,121.597809 153.033020,122.054169 
z"/>
<path fill="#D9E2EB" opacity="1.000000" stroke="none" 
	d="
M144.294800,106.919220 
	C144.789490,106.256554 145.632187,105.626396 146.826462,105.040619 
	C146.332962,105.707245 145.487885,106.329483 144.294800,106.919220 
z"/>
<path fill="#D9E2EB" opacity="1.000000" stroke="none" 
	d="
M150.395157,124.717171 
	C150.423615,125.423950 150.110184,126.136703 149.486450,126.940887 
	C149.468536,126.262581 149.760895,125.492859 150.395157,124.717171 
z"/>
<path fill="#D9E2EB" opacity="1.000000" stroke="none" 
	d="
M149.298950,104.817238 
	C149.603210,104.254395 150.245880,103.710754 151.237076,103.229004 
	C150.936172,103.806068 150.286774,104.321251 149.298950,104.817238 
z"/>
<path fill="#394560" opacity="1.000000" stroke="none" 
	d="
M142.158020,108.913750 
	C141.954636,108.540123 142.068024,108.150757 142.228821,107.460388 
	C142.674469,107.145241 143.072708,107.131111 143.768707,107.146889 
	C143.535904,107.750542 143.005341,108.324280 142.158020,108.913750 
z"/>
<path fill="#394560" opacity="1.000000" stroke="none" 
	d="
M136.324371,112.463310 
	C136.529556,111.922272 136.951736,111.507385 137.685211,111.032112 
	C137.511475,111.510971 137.026413,112.050217 136.324371,112.463310 
z"/>
<path fill="#D9E2EB" opacity="1.000000" stroke="none" 
	d="
M112.278152,154.560852 
	C110.734917,152.710251 109.172409,150.498917 107.609909,148.287567 
	C108.378860,147.839783 109.147812,147.391998 110.247101,146.940048 
	C111.137924,149.357300 111.698402,151.778687 112.278152,154.560852 
z"/>
<path fill="#D9E2EB" opacity="1.000000" stroke="none" 
	d="
M115.977554,160.678665 
	C115.300507,160.179596 114.668243,159.347977 114.094597,158.167648 
	C114.776253,158.661331 115.399292,159.503723 115.977554,160.678665 
z"/>
<path fill="#D9E2EB" opacity="1.000000" stroke="none" 
	d="
M114.202400,157.527908 
	C113.555489,157.235825 112.930252,156.598434 112.392227,155.588272 
	C113.060989,155.871201 113.642532,156.526901 114.202400,157.527908 
z"/>
<path fill="#DBE4EC" opacity="1.000000" stroke="none" 
	d="
M112.315689,183.882202 
	C111.288185,182.225723 110.229393,180.300980 113.922630,180.194366 
	C113.730598,181.398972 113.181290,182.577316 112.315689,183.882202 
z"/>
<path fill="#DBE4EC" opacity="1.000000" stroke="none" 
	d="
M107.328667,188.966339 
	C107.477966,188.373306 107.950676,187.738205 108.744217,187.064453 
	C108.594055,187.658630 108.123070,188.291458 107.328667,188.966339 
z"/>
<path fill="#DBE4EC" opacity="1.000000" stroke="none" 
	d="
M114.558823,180.187744 
	C114.553482,179.556931 114.855400,178.845230 115.464706,178.050812 
	C115.470093,178.681015 115.168098,179.393936 114.558823,180.187744 
z"/>
<path fill="#DBE4EC" opacity="1.000000" stroke="none" 
	d="
M106.463470,185.028229 
	C106.159363,185.148163 105.859215,185.078720 105.559067,185.009277 
	C105.861855,184.952469 106.164650,184.895660 106.463470,185.028229 
z"/>
<path fill="#162646" opacity="1.000000" stroke="none" 
	d="
M108.458054,115.934296 
	C109.198441,115.899994 109.703697,115.933479 110.588120,115.975967 
	C110.105942,116.368263 109.244606,116.751549 108.103096,117.001175 
	C107.826965,116.519295 107.960304,116.230820 108.458054,115.934296 
z"/>
<path fill="#313D5B" opacity="1.000000" stroke="none" 
	d="
M177.588013,102.947540 
	C177.734619,102.594719 177.881226,102.241898 178.105743,101.612984 
	C179.113449,101.349876 180.043228,101.362862 181.320312,101.332108 
	C182.323059,101.669868 182.978485,102.051361 183.830261,102.647308 
	C183.362045,106.669258 182.697479,110.476746 181.967789,114.742783 
	C180.711578,112.360519 179.520493,109.519714 178.265442,105.946930 
	C177.996964,104.459152 177.792480,103.703339 177.588013,102.947540 
z"/>
<path fill="#273654" opacity="1.000000" stroke="none" 
	d="
M197.367844,168.887756 
	C197.259918,168.454224 197.152008,168.020676 196.907227,166.932556 
	C195.641556,162.867798 194.512756,159.457596 193.383972,156.047409 
	C193.232758,155.235321 193.081543,154.423233 193.154175,153.180359 
	C192.874405,151.516724 192.370789,150.283875 192.093292,148.846222 
	C192.210541,147.433350 192.101654,146.225281 191.992752,145.017197 
	C192.814713,145.746887 194.098312,146.328247 194.387726,147.229034 
	C197.530014,157.009354 202.878067,166.234833 202.158142,177.478424 
	C202.219269,177.929367 201.877014,178.187012 201.351440,178.185455 
	C199.952728,176.302200 199.079590,174.420502 198.206451,172.538788 
	C198.229843,172.180420 198.253235,171.822037 198.181030,170.935699 
	C197.846252,169.901062 197.607056,169.394409 197.367844,168.887756 
z"/>
<path fill="#313D5B" opacity="1.000000" stroke="none" 
	d="
M191.981903,144.598083 
	C192.101654,146.225281 192.210541,147.433350 191.876419,148.873184 
	C191.433395,149.104935 191.039474,148.915421 191.039490,148.915421 
	C189.167648,142.306519 187.283356,135.701111 185.431366,129.086655 
	C184.853989,127.024567 184.363953,124.938034 183.897186,122.444778 
	C184.465240,122.272461 184.970062,122.518059 185.722870,122.896027 
	C186.490723,125.089531 186.952164,127.167526 187.542007,129.208435 
	C188.986801,134.207748 190.490860,139.189911 191.981903,144.598083 
z"/>
<path fill="#D9E2EA" opacity="1.000000" stroke="none" 
	d="
M254.993347,190.836411 
	C258.182587,186.642578 263.474457,183.384811 262.440735,176.714020 
	C262.048981,174.186050 261.299072,171.713608 260.601227,168.827316 
	C261.432983,169.211029 262.767151,169.792038 263.253601,170.787384 
	C265.888397,176.178329 264.321838,188.214554 254.993347,190.836411 
z"/>
<path fill="#D9E2EA" opacity="1.000000" stroke="none" 
	d="
M245.749634,157.892334 
	C240.442932,156.144440 235.080307,154.036179 229.617371,151.569336 
	C234.909286,153.317810 240.301483,155.424881 245.749634,157.892334 
z"/>
<path fill="#D9E2EA" opacity="1.000000" stroke="none" 
	d="
M260.601105,168.087402 
	C256.971405,165.948349 253.455673,163.455414 249.923523,160.608994 
	C250.150574,159.867096 250.394058,159.478683 250.637543,159.090271 
	C253.996719,161.971359 257.355896,164.852463 260.601105,168.087402 
z"/>
<path fill="#D9E2EA" opacity="1.000000" stroke="none" 
	d="
M250.078583,192.926270 
	C250.602509,192.301819 251.477264,191.737335 252.691406,191.203125 
	C252.163681,191.817673 251.296539,192.401962 250.078583,192.926270 
z"/>
<path fill="#D9E2EA" opacity="1.000000" stroke="none" 
	d="
M228.918030,150.699539 
	C228.059113,150.576233 227.119293,150.120972 226.084534,149.334137 
	C226.938766,149.457581 227.887939,149.912582 228.918030,150.699539 
z"/>
<path fill="#D9E2EA" opacity="1.000000" stroke="none" 
	d="
M247.945496,159.504456 
	C247.281982,159.510895 246.538345,159.205200 245.769485,158.560532 
	C246.451294,158.545135 247.158325,158.868713 247.945496,159.504456 
z"/>
<path fill="#273250" opacity="1.000000" stroke="none" 
	d="
M160.024750,122.105797 
	C160.804321,123.050774 161.930420,123.875008 162.308426,124.959908 
	C165.236649,133.363937 168.020355,141.818344 170.939209,150.989319 
	C171.615204,152.972458 172.200790,154.223419 172.786377,155.474396 
	C172.786377,155.474396 172.702316,155.779678 172.807281,155.898209 
	C173.413986,158.241592 173.939453,160.461456 174.410995,162.692703 
	C174.900009,165.006683 175.011856,167.164368 171.703873,167.169601 
	C161.945786,167.185043 152.187653,167.175110 141.416489,167.175110 
	C142.077316,164.777496 142.390701,162.972855 143.061935,161.312912 
	C147.541824,150.234329 152.098099,139.186646 156.498901,127.760468 
	C156.368240,127.391991 156.347931,127.372246 156.704895,127.267532 
	C157.423080,125.813889 157.784332,124.464951 158.145569,123.116020 
	C158.145569,123.116020 158.026947,123.039253 158.371307,123.060783 
	C159.152023,122.756813 159.588394,122.431305 160.024750,122.105797 
M151.054367,148.802246 
	C150.565186,150.145706 150.042557,151.478088 149.593857,152.834946 
	C148.686996,155.577377 147.580490,158.284195 147.006912,161.097580 
	C146.472626,163.718353 147.823624,165.090881 150.668777,165.031189 
	C155.329346,164.933395 159.993729,165.028030 164.656509,165.025223 
	C171.373169,165.021179 171.347809,165.022888 169.366074,158.691971 
	C169.075684,157.764236 169.262604,156.696991 169.053314,155.732346 
	C167.622787,149.138779 166.328186,142.504623 164.525146,136.012589 
	C164.174667,134.750626 161.875259,133.756149 160.282684,133.277527 
	C159.796310,133.131348 158.505646,135.027924 157.863083,136.149292 
	C155.608871,140.083054 153.476608,144.086670 151.054367,148.802246 
z"/>
<path fill="#DDE6EE" opacity="1.000000" stroke="none" 
	d="
M183.819733,191.497620 
	C187.575500,192.643356 190.663696,196.359726 195.330551,194.624496 
	C198.046921,193.614502 200.665329,192.341080 203.666901,191.091568 
	C204.625168,192.105972 205.244324,193.214966 205.964920,194.657257 
	C204.655716,195.553680 203.266510,196.527924 201.830429,196.602783 
	C197.545593,196.826126 193.235504,196.550018 188.948425,196.750427 
	C185.367950,196.917816 183.670425,195.474136 183.819733,191.497620 
z"/>
<path fill="#DDE6EE" opacity="1.000000" stroke="none" 
	d="
M173.304550,173.268967 
	C174.608994,173.189697 176.230286,173.287979 177.892609,173.741135 
	C176.496216,173.879517 175.058807,173.663025 173.304550,173.268967 
z"/>
<path fill="#DDE6EE" opacity="1.000000" stroke="none" 
	d="
M180.070602,180.353928 
	C180.730255,181.194672 181.334869,182.411545 181.877563,184.013290 
	C181.215622,183.175461 180.615601,181.952759 180.070602,180.353928 
z"/>
<path fill="#DDE6EE" opacity="1.000000" stroke="none" 
	d="
M177.924377,174.398544 
	C178.621948,175.172852 179.328003,176.288528 179.976868,177.785736 
	C179.257416,177.024811 178.595139,175.882370 177.924377,174.398544 
z"/>
<path fill="#DDE6EE" opacity="1.000000" stroke="none" 
	d="
M182.151611,187.318665 
	C182.792953,188.116760 183.396698,189.261292 183.939362,190.770340 
	C183.290192,189.978271 182.702103,188.821701 182.151611,187.318665 
z"/>
<path fill="#DDE6EE" opacity="1.000000" stroke="none" 
	d="
M198.133057,172.998383 
	C199.079590,174.420502 199.952728,176.302200 201.167984,178.296051 
	C201.687378,180.007553 201.864655,181.606934 201.982208,183.608597 
	C197.595581,181.605743 197.915955,177.499527 198.133057,172.998383 
z"/>
<path fill="#3E4C65" opacity="1.000000" stroke="none" 
	d="
M216.119675,195.387741 
	C217.375427,195.366562 218.758087,195.704529 220.336212,196.354965 
	C219.103317,196.360596 217.674942,196.053741 216.119675,195.387741 
z"/>
<path fill="#DDE6EE" opacity="1.000000" stroke="none" 
	d="
M203.826660,188.692261 
	C203.175674,188.165070 202.587402,187.302032 202.061127,186.090424 
	C202.711853,186.613373 203.300613,187.484894 203.826660,188.692261 
z"/>
<path fill="#313D5B" opacity="1.000000" stroke="none" 
	d="
M184.025467,121.640305 
	C183.286453,120.278427 182.610062,118.516487 181.981354,116.375839 
	C182.715378,117.744835 183.401733,119.492531 184.025467,121.640305 
z"/>
<path fill="#DDE6EE" opacity="1.000000" stroke="none" 
	d="
M193.115295,156.168274 
	C194.512756,159.457596 195.641556,162.867798 196.709991,166.660400 
	C195.381958,163.458252 194.114288,159.873688 193.115295,156.168274 
z"/>
<path fill="#DDE6EE" opacity="1.000000" stroke="none" 
	d="
M172.867401,155.085266 
	C172.200790,154.223419 171.615204,152.972458 171.066452,151.352386 
	C171.718338,152.220901 172.333389,153.458527 172.867401,155.085266 
z"/>
<path fill="#DDE6EE" opacity="1.000000" stroke="none" 
	d="
M157.776184,123.199844 
	C157.784332,124.464951 157.423080,125.813889 156.718674,127.266289 
	C156.719269,126.007729 157.063019,124.645699 157.776184,123.199844 
z"/>
<path fill="#DDE6EE" opacity="1.000000" stroke="none" 
	d="
M190.989044,149.281494 
	C191.039474,148.915421 191.433395,149.104935 191.650269,149.077972 
	C192.370789,150.283875 192.874405,151.516724 193.121292,152.866211 
	C192.222580,151.871063 191.580597,150.759308 190.989044,149.281494 
z"/>
<path fill="#D9E2EB" opacity="1.000000" stroke="none" 
	d="
M177.299286,103.032043 
	C177.792480,103.703339 177.996964,104.459152 178.124908,105.603806 
	C177.702438,105.033951 177.356491,104.075249 177.299286,103.032043 
z"/>
<path fill="#DDE6EE" opacity="1.000000" stroke="none" 
	d="
M159.845230,121.894836 
	C159.588394,122.431305 159.152023,122.756813 158.417480,123.114258 
	C158.634750,122.658760 159.150238,122.171318 159.845230,121.894836 
z"/>
<path fill="#DDE6EE" opacity="1.000000" stroke="none" 
	d="
M153.284760,121.972595 
	C153.043655,121.597809 153.054291,121.141441 153.100586,120.345123 
	C153.269653,120.633781 153.403091,121.262398 153.284760,121.972595 
z"/>
<path fill="#DDE6EE" opacity="1.000000" stroke="none" 
	d="
M197.124939,169.031601 
	C197.607056,169.394409 197.846252,169.901062 198.032013,170.705780 
	C197.613052,170.394363 197.247528,169.784912 197.124939,169.031601 
z"/>
<path fill="#071848" opacity="1.000000" stroke="none" 
	d="
M151.176208,148.432999 
	C153.476608,144.086670 155.608871,140.083054 157.863083,136.149292 
	C158.505646,135.027924 159.796310,133.131348 160.282684,133.277527 
	C161.875259,133.756149 164.174667,134.750626 164.525146,136.012589 
	C166.328186,142.504623 167.622787,149.138779 169.053314,155.732346 
	C169.262604,156.696991 169.075684,157.764236 169.366074,158.691971 
	C171.347809,165.022888 171.373169,165.021179 164.656509,165.025223 
	C159.993729,165.028030 155.329346,164.933395 150.668777,165.031189 
	C147.823624,165.090881 146.472626,163.718353 147.006912,161.097580 
	C147.580490,158.284195 148.686996,155.577377 149.593857,152.834946 
	C150.042557,151.478088 150.565186,150.145706 151.176208,148.432999 
z"/>
</svg>